<?xml version="1.0" encoding="UTF-8"?>
<!-- Generator: Adobe Illustrator 22.1.0, SVG Export Plug-In . SVG Version: 6.00 Build 0)  -->
<svg version="1.1" id="Layer_1" xmlns="http://www.w3.org/2000/svg" xmlns:xlink="http://www.w3.org/1999/xlink" x="0px" y="0px" viewBox="0 0 130 100" style="enable-background:new 0 0 130 100;" xml:space="preserve">
<style type="text/css">
	.st0{fill:#FFFFFF;}
</style>
<g>
	<g>
		<path class="st0" d="M15.1,68c1.3-3.5,2.5-6.6,3.8-9.8c3.2-8.3,6.4-16.6,9.5-25c0.4-1,0.8-1.3,1.9-1.3c8.6,0,17.2,0,25.9,0    c0.4,0,0.8,0,1.3,0c-0.2,0.6-0.4,1.1-0.5,1.6C52.6,44.8,48.3,56,44,67.3C43.7,68,43.2,68,42.6,68c-8.1,0-16.2,0-24.3,0    C17.3,68,16.3,68,15.1,68z M44.3,44.2c-2.2-3.7-7.3-5.2-11.9-3.8c-4.7,1.5-7.8,6.5-7.3,11.7c0.4,5.4,3.9,9.5,8.6,10.2    c4.5,0.7,9.3-1.2,10.5-4.2c-0.3-0.3-0.6-0.6-1-0.9c-0.3-0.3-0.7-0.5-1-0.8c-0.2,0.3-0.4,0.4-0.6,0.6c-3.4,3.9-9.4,3.4-12.1-1.1    c-1.4-2.3-1.6-4.8-1-7.3c0.7-3,2.5-5.2,5.5-6C37.3,42,40,43,42,45.6c0.1,0.1,0.2,0.2,0.3,0.3C43,45.3,43.6,44.8,44.3,44.2z"/>
		<path class="st0" d="M49.2,62.9c0.6-1.7,1.2-3.2,1.8-4.7c2.1-5.6,4.3-11.2,6.4-16.8c0.6-1.7,0.6-1.6,2.5-1.7    c1.1-0.1,1.6,0.3,2,1.4c1,2.8,2.2,5.6,3.3,8.4c1.6,4.2,3.3,8.3,4.9,12.5c0.1,0.2,0.2,0.5,0.3,1c-1.2,0-2.3,0-3.5,0    c-0.2,0-0.4-0.5-0.5-0.7c-0.6-1.6-1.3-3.3-1.8-4.9c-0.2-0.6-0.5-0.7-1.1-0.7c-2.5,0-4.9,0-7.4,0c-0.6,0-1,0.2-1.2,0.8    c-0.5,1.6-1.2,3.2-1.7,4.8c-0.2,0.7-0.6,1-1.3,0.9C51,62.9,50.2,62.9,49.2,62.9z M59.6,43.5c-1.1,3.1-2.2,6.3-3.3,9.5h6.9    c-1.1-3.2-2.2-6.4-3.3-9.5C59.7,43.5,59.7,43.5,59.6,43.5z"/>
		<path class="st0" d="M18.7,50.1c-0.4,1-0.6,1.8-1.1,2.6c-0.1,0.2-0.6,0.3-1,0.3c-1.8,0-3.5,0-5.3,0c-0.7,0-1,0.2-1,1    c0,2.7,0,5.5,0,8.2c0,0.7-0.2,1-1,1c-3.1,0-2.3,0-2.5-5C7,53,7,47.7,7,42.4C7.1,40,6.7,40,8.4,40c4.3,0,8.6,0,12.9,0    c0.4,0,0.7,0,1.3,0c-0.4,1-0.7,1.9-1.1,2.7c-0.1,0.2-0.6,0.3-1,0.3c-3,0-5.9,0-8.9,0c-0.9,0-1.2,0.2-1.2,1.1    c0.1,1.6,0.1,3.2,0,4.9c0,0.9,0.3,1.1,1.1,1.1c2-0.1,3.9,0,5.9,0C17.8,50.1,18.1,50.1,18.7,50.1z"/>
		<path class="st0" d="M97,41.7c0,0.9,0,1.7,0,2.6c0,0.7-0.3,1-1,0.7c0-1.7,0-3.5,0-5.6c0.6,0.4,1.1,0.5,1.4,0.9    c0.7,0.9,1.3,1.8,2.2,2.7c0-0.8,0-1.7,0-2.5c0-0.3,0.3-0.5,0.5-0.8c0.2,0.3,0.5,0.5,0.5,0.8c0.1,1.3,0.1,2.6,0,3.8    c0,0.3-0.2,0.7-0.4,0.7c-0.3,0-0.8-0.1-1-0.3c-0.7-1-1.4-2-2.1-3C97.2,41.7,97.1,41.7,97,41.7z"/>
		<path class="st0" d="M95,51.3c0-0.2,0-0.4,0-0.5c0.3-0.7-0.7-1.9,0.6-2.1c2.3-0.5,3.9,0.3,4.3,1.9c0.3,1.4-0.3,2.9-1.5,3.2    C97.4,54,96.4,54,95.5,54c-0.2,0-0.4-0.4-0.4-0.6C95,52.7,95,52,95,51.3L95,51.3z M96.2,53c0.9,0,1.9,0.2,2.3-0.8    c0.2-0.6,0.2-1.5-0.1-2.1c-0.4-0.8-1.4-0.7-2.2-0.5C96.2,50.8,96.2,51.9,96.2,53z"/>
		<path class="st0" d="M92.5,51.8c0-0.8,0-1.7,0-2.5c0-0.3,0.4-0.5,0.5-0.7c0.2,0.2,0.4,0.5,0.5,0.7c0,1.5,0,3.1,0,4.6    c-0.1,0.1-0.2,0.2-0.3,0.2c-0.4-0.3-0.9-0.5-1.2-0.8c-0.7-0.8-1.2-1.8-1.8-2.6c-0.1,0-0.2,0-0.3,0c0,0.8,0,1.6,0,2.4    c0,0.3-0.3,0.6-0.5,0.9c-0.2-0.3-0.5-0.6-0.5-0.9c-0.1-1.2-0.1-2.5,0-3.7c0-0.3,0.2-0.8,0.4-0.8c0.3,0,0.8,0.1,1,0.3    c0.7,0.9,1.4,1.9,2,2.9C92.3,51.9,92.4,51.8,92.5,51.8z"/>
		<path class="st0" d="M99,60.2c0-1.6,1.2-2.9,2.9-2.9c1.6,0,2.8,1.3,2.8,2.9c0,1.6-1.3,2.9-2.9,2.9C100.2,63,99,61.7,99,60.2z     M101.8,58.3c-1,0-1.7,0.8-1.6,1.9s0.7,1.8,1.7,1.8c1,0,1.6-0.8,1.6-1.9C103.5,59,102.7,58.3,101.8,58.3z"/>
		<path class="st0" d="M87.9,51.3c0,1.6-1.2,2.9-2.8,2.9c-1.5,0-2.8-1.2-2.8-2.8c0-1.6,1.2-2.9,2.8-2.9    C86.6,48.4,87.9,49.7,87.9,51.3z M83.4,51.2c-0.1,1.1,0.6,1.9,1.6,1.9c1,0,1.7-0.7,1.7-1.7c0.1-1.1-0.6-1.9-1.6-1.9    C84.1,49.5,83.5,50.1,83.4,51.2z"/>
		<path class="st0" d="M85.4,41.8c0,0.9,0,1.7,0,2.6c0,0.2-0.4,0.5-0.6,0.7c-0.2-0.2-0.5-0.5-0.5-0.7c0-1.3,0-2.6,0-3.8    c0-0.3,0.2-0.6,0.3-0.9c0.4,0.2,0.9,0.2,1.1,0.5c0.6,0.7,1.1,1.6,1.7,2.4c0.1,0.1,0.2,0.2,0.5,0.3c0-0.8,0-1.6,0-2.3    c0-0.3,0.3-0.6,0.5-0.9c0.2,0.3,0.5,0.6,0.5,0.9c0.1,1.2,0.1,2.4,0,3.6c0,0.3-0.2,0.6-0.4,0.9c-0.4-0.2-0.8-0.3-1.1-0.6    c-0.7-0.9-1.3-1.9-1.9-2.8C85.6,41.7,85.5,41.8,85.4,41.8z"/>
		<path class="st0" d="M94.3,60c0.8,0,1.5,0,2.4,0c0-0.5-0.1-0.9,0-1.4c0-0.2,0.3-0.4,0.4-0.5c0.2,0.2,0.5,0.3,0.5,0.5    c0.1,1.3,0.1,2.6,0,4c0,0.2-0.4,0.4-0.6,0.5c-0.1-0.2-0.4-0.4-0.4-0.6c-0.1-0.5,0-1,0-1.5c-0.8,0-1.5,0-2.4,0c0,0.5,0.1,1,0,1.5    c0,0.2-0.3,0.4-0.5,0.6c-0.2-0.2-0.5-0.4-0.5-0.6c0-1.3,0-2.6,0-3.9c0-0.2,0.4-0.4,0.6-0.5c0.2,0.2,0.4,0.4,0.4,0.6    C94.4,59,94.3,59.5,94.3,60z"/>
		<path class="st0" d="M108.6,60.7c0.4,0.7,0.7,1.4,1.1,2.1c-0.9,0.4-1.2,0-1.6-0.6c-0.3-0.5-0.7-0.9-1-1.4c-0.1,0.5-0.2,1-0.4,1.5    c-0.1,0.2-0.3,0.4-0.5,0.6c-0.2-0.2-0.5-0.4-0.5-0.6c0-1.4,0-2.8,0-4.2c0-0.2,0.1-0.4,0.2-0.5c0.8-0.6,3,0.1,3.4,1    C109.6,59.4,109.2,60.1,108.6,60.7z M106.6,59.9c0.8-0.1,1.5,0.2,1.6-0.7c0.1-0.6-0.4-0.8-1-0.7C106.3,58.5,106.9,59.2,106.6,59.9    z"/>
		<path class="st0" d="M105.5,50.7c0,0.4,0,0.9,0,1.3c-0.1,1.4-0.9,2.1-2.2,2.2c-1.4,0-2.2-0.8-2.3-2.1c0-0.9-0.1-1.8,0-2.7    c0-0.3,0.4-0.5,0.6-0.7c0.2,0.3,0.5,0.5,0.5,0.8c0.1,0.8,0,1.5,0,2.3c0,0.8,0.2,1.4,1.2,1.4c1,0,1.1-0.7,1.1-1.5    c0-0.8,0-1.6,0-2.3c0-0.3,0.4-0.5,0.6-0.7c0.2,0.2,0.5,0.4,0.5,0.7C105.6,49.8,105.5,50.2,105.5,50.7L105.5,50.7z"/>
		<path class="st0" d="M86.5,59.6c0,0.4,0,0.8,0,1.2c-0.1,1.4-0.9,2.2-2.2,2.2c-1.3,0-2.2-0.9-2.2-2.2c0-0.9,0-1.8,0-2.7    c0-0.2,0.3-0.4,0.5-0.7c0.2,0.2,0.5,0.4,0.5,0.7c0.1,0.9,0,1.7,0,2.6c0,0.7,0.3,1.3,1.1,1.2c0.8,0,1.1-0.5,1.1-1.3    c0-0.9,0-1.8,0-2.6c0-0.2,0.3-0.4,0.5-0.6c0.2,0.2,0.5,0.4,0.5,0.7C86.6,58.6,86.5,59.1,86.5,59.6z"/>
		<path class="st0" d="M115.6,45c-0.8,0.3-1.3,0.2-1.4-0.6c-0.1-0.6-0.5-0.7-1-0.7c-0.5,0-1.2-0.2-1.3,0.7c-0.1,0.7-0.5,0.9-1.3,0.5    c0.6-1.7,1.2-3.3,1.9-4.9c0.3-0.6,1.1-0.5,1.4,0.2C114.4,41.7,115,43.3,115.6,45z M113.6,43c-0.2-0.6-0.4-1.1-0.5-1.5    c-0.1,0-0.1,0-0.2,0c-0.1,0.5-0.3,1-0.4,1.5C112.9,43,113.2,43,113.6,43z"/>
		<path class="st0" d="M81.4,62.7c-0.8,0.4-1.3,0.2-1.4-0.5c-0.2-0.8-0.7-0.6-1.3-0.6c-0.5,0-1-0.1-1.2,0.6    c-0.1,0.6-0.5,0.9-1.4,0.6c0.7-1.7,1.3-3.4,2-5.1c0.1-0.1,1.1-0.1,1.1,0C80.1,59.3,80.7,61,81.4,62.7z M79.4,61    c-0.2-0.6-0.4-1.1-0.6-1.8c-0.2,0.7-0.4,1.2-0.6,1.8C78.6,61,78.9,61,79.4,61z"/>
		<path class="st0" d="M90.1,44.9c0.6-1.6,1.2-3.3,1.9-4.9c0.2-0.6,1.1-0.6,1.3,0c0.7,1.6,1.3,3.2,1.9,4.9c-0.8,0.3-1.3,0.2-1.4-0.6    c-0.1-0.6-0.6-0.6-1.1-0.6c-0.5,0-1.1-0.2-1.3,0.6C91.4,45,91,45.3,90.1,44.9z M92.8,41h-0.2c-0.1,0.7-0.3,1.2-0.4,1h1.2    C93.1,42.1,92.9,41.7,92.8,41z"/>
		<path class="st0" d="M80.8,50.2c-0.7-0.6-1.5-1.1-2.3-0.4c-0.5,0.4-0.8,1.2-0.8,1.8c0,1.3,1.4,2,2.5,1.3c0.4-0.3,0.8-0.5,1.1,0    c0.1,0.2-0.3,0.7-0.6,0.9c-1.2,0.7-2.7,0.5-3.6-0.5c-0.9-1-0.9-2.7,0-3.7c0.9-1,2.5-1.3,3.7-0.6C81.5,49.3,81.7,49.7,80.8,50.2z"/>
		<path class="st0" d="M107.3,43.8c-1.1,1.6-2.9,1.6-3.9,0.9c-1.2-0.8-1.5-2.5-0.8-3.8c0.7-1.2,2.1-1.8,3.5-1.3    c0.2,0.1,0.5,0.2,0.7,0.4c0.1,0.2,0.2,0.5,0.2,0.7c-0.3,0-0.6,0.1-0.8,0c-1-0.5-1.7-0.5-2.3,0.1c-0.6,0.7-0.6,2,0,2.6    c0.5,0.6,1.3,0.6,2.3,0.1C106.3,43.7,106.7,43.8,107.3,43.8z"/>
		<path class="st0" d="M110.8,50.2c-0.6-0.7-1.4-0.9-2.2-0.5c-0.8,0.4-0.9,1.1-0.8,1.9c0.1,1.3,1.4,2,2.5,1.3c0.4-0.3,0.8-0.5,1.1,0    c0.1,0.2-0.3,0.7-0.5,0.9c-1.2,0.8-2.7,0.5-3.6-0.5c-0.9-1.1-0.9-2.8,0.1-3.8c0.9-1,2.5-1.2,3.6-0.5    C111.6,49.3,111.7,49.7,110.8,50.2z"/>
		<path class="st0" d="M78,42.9c0,0.8-0.1,1.4-0.1,2.1c-0.3,0-0.6,0-1.1,0c0-1.6,0-3.2,0-4.8c0-0.2,0.4-0.5,0.6-0.6    c0.8-0.1,1.6-0.1,2.3,0c0.2,0,0.4,0.3,0.6,0.5c-0.2,0.1-0.4,0.4-0.6,0.4c-0.5,0.1-1.1,0-1.7,0c0,0.5,0,0.8,0,1.3    c0.5,0,0.9-0.1,1.2,0c0.2,0,0.4,0.3,0.5,0.5c-0.2,0.1-0.3,0.4-0.5,0.4C78.9,42.9,78.5,42.9,78,42.9z"/>
		<path class="st0" d="M115,62.8c0-1.4,0-2.9,0-4.4c-0.5,0-1,0-1.4,0c-0.2,0-0.4-0.3-0.4-0.4c0-0.2,0.2-0.5,0.4-0.5    c1.3,0,2.5-0.1,3.7,0c0.2,0,0.4,0.3,0.5,0.4c-0.2,0.2-0.4,0.4-0.6,0.5c-0.3,0.1-0.7,0-1.2,0c0,1.3,0,2.5,0,3.6    C116.1,62.8,115.9,63.1,115,62.8z"/>
		<path class="st0" d="M89.3,58.4c-0.5,0-0.9,0.1-1.3,0c-0.2,0-0.4-0.3-0.5-0.5c0-0.1,0.2-0.4,0.4-0.4c1.3,0,2.6,0,3.8,0    c0.1,0,0.4,0.3,0.4,0.4c-0.1,0.2-0.3,0.5-0.4,0.5c-0.4,0.1-0.8,0-1.3,0c0,1.3,0,2.4,0,3.6c0,0.3-0.3,0.8-0.5,0.9    c-0.7,0.1-0.6-0.5-0.6-0.9C89.3,60.8,89.3,59.7,89.3,58.4z"/>
		<path class="st0" d="M117.6,44.1c0.8,0,1.4,0,2.1,0c0.2,0,0.4,0.3,0.6,0.5c-0.2,0.1-0.3,0.4-0.5,0.4c-0.9,0-1.7,0.1-2.6,0    c-0.2,0-0.6-0.4-0.6-0.6c-0.1-1.4,0-2.8,0-4.2c0-0.2,0.3-0.4,0.5-0.6c0.2,0.2,0.5,0.4,0.6,0.6C117.6,41.5,117.6,42.8,117.6,44.1z"/>
		<path class="st0" d="M114.3,49.6c-0.5,0-0.9,0.1-1.3,0c-0.2,0-0.4-0.3-0.5-0.4c0.2-0.2,0.3-0.5,0.5-0.5c1.2,0,2.5,0,3.7,0    c0.2,0,0.3,0.3,0.5,0.5c-0.2,0.2-0.3,0.4-0.5,0.5c-0.4,0.1-0.8,0.1-1.3,0.1c0,1.3,0,2.4,0,3.6c0,0.3-0.3,0.5-0.5,0.8    c-0.2-0.3-0.5-0.5-0.6-0.8C114.3,52.1,114.3,50.9,114.3,49.6z"/>
		<path class="st0" d="M118.5,57.5c1.6-0.4,1.4,1.4,2.3,1.8c0.8-0.4,0.6-2.1,2.2-1.8c-0.2,0.3-0.2,0.6-0.4,0.8    c-0.8,1.2-1.6,2.4-1.4,4c0,0.2-0.3,0.4-0.4,0.6c-0.2-0.2-0.6-0.4-0.6-0.5c0.4-1.8-0.9-3.1-1.6-4.5    C118.5,57.8,118.5,57.7,118.5,57.5z"/>
		<path class="st0" d="M109.4,42c0,0.7,0,1.4,0,2c0,0.2-0.3,0.4-0.5,0.6c-0.2-0.2-0.6-0.4-0.6-0.6c-0.1-1.4,0-2.8,0-4.2    c0-0.2,0.4-0.4,0.6-0.6c0.2,0.2,0.5,0.4,0.5,0.6C109.4,40.5,109.4,41.3,109.4,42C109.4,42,109.4,42,109.4,42z"/>
		<path class="st0" d="M82.8,42c0,0.7,0,1.3,0,2c0,0.2-0.3,0.4-0.5,0.7c-0.2-0.2-0.5-0.4-0.5-0.6c-0.1-1.4-0.1-2.8,0-4.1    c0-0.2,0.3-0.5,0.5-0.7c0.2,0.2,0.5,0.5,0.5,0.7C82.9,40.7,82.8,41.3,82.8,42C82.8,42,82.8,42,82.8,42z"/>
		<path class="st0" d="M112,60.2c0,0.7,0,1.4,0,2c0,0.2-0.3,0.4-0.5,0.7c-0.2-0.2-0.5-0.4-0.5-0.7c0-1.4,0-2.8,0-4.2    c0-0.2,0.3-0.4,0.5-0.7c0.2,0.2,0.5,0.4,0.5,0.7C112,58.8,112,59.5,112,60.2z"/>
	</g>
</g>
</svg>