<?xml version="1.0" encoding="UTF-8"?>
<!-- Generator: Adobe Illustrator 22.1.0, SVG Export Plug-In . SVG Version: 6.00 Build 0)  -->
<svg version="1.1" id="Layer_1" xmlns="http://www.w3.org/2000/svg" xmlns:xlink="http://www.w3.org/1999/xlink" x="0px" y="0px" viewBox="0 0 130 100" style="enable-background:new 0 0 130 100;" xml:space="preserve">
<style type="text/css">
	.st0{fill:#FFFFFF;}
</style>
<g>
	<g>
		<path class="st0" d="M72.7,41.3c3.4-0.3,2.2-0.2,5.5-0.6c0.1,0.7,0.2,1.5,0.4,2.2c0.4-0.3,0.7-0.7,1.1-1c2.1-1.6,4.4-1.8,6.8-0.7    c1.3,0.6,2.1,1.7,2.7,3c0.6,1.4,0.9,2.9,1,4.4c0.1,1,0.1,2,0,3.1c-0.2,2.3-0.6,4.6-2,6.6c-1.2,1.7-2.9,2.6-4.9,2.9    c-1.3,0.2-2.7,0.1-4-0.3c-0.1,0-0.1,0-0.2-0.1c0,2.1,0,4.3,0,6.4c-2.1,0.3-4.2,0.7-6.4,1.1C72.7,59.3,72.7,50.3,72.7,41.3z     M79,51.1l0,4.3c0,0.4,0.3,0.7,0.6,0.8c1.5,0.4,2.6,0,3.4-1.4c0.3-0.6,0.5-1.2,0.6-1.8c0.3-1.6,0.3-3.2,0.1-4.8    c-0.1-0.8-0.3-1.5-0.7-2.1c-0.4-0.7-1.1-1-1.9-0.8c-0.8,0.1-1.4,0.5-1.9,1c-0.1,0.1-0.2,0.2-0.2,0.4L79,51.1z"/>
		<path class="st0" d="M108.8,53c-3.5,0-7,0-10.5,0c-0.1,1.8,1.2,3.4,3,3.5c2.1,0.2,4.1-0.2,6-1.1c0.1,0,0.2-0.1,0.3-0.1    c0.1,0.6,0.2,1.1,0.3,1.7c0.1,0.8,0.3,1.7,0.4,2.5c0,0.2,0,0.3-0.2,0.3c-1,0.6-2.1,1-3.2,1.2c-2.1,0.4-4.2,0.5-6.3,0.1    c-3.2-0.7-5.1-2.6-6-5.7c-0.5-1.9-0.6-3.8-0.5-5.7c0.1-1.5,0.4-2.9,1.1-4.3c1.3-2.7,3.4-4.3,6.3-4.7c1.7-0.2,3.4-0.1,4.9,0.7    c1.7,0.8,2.8,2.1,3.5,3.7c0.6,1.3,0.9,2.7,1,4.1c0.1,1.2,0,2.5,0,3.7C108.8,52.9,108.8,52.9,108.8,53z M102.9,48.8    c0-0.4,0-0.7-0.1-1.1c-0.1-0.7-0.2-1.4-0.6-2.1c-0.3-0.6-0.9-1-1.6-1c-0.8,0-1.3,0.3-1.7,1c-0.6,1-0.7,2.1-0.8,3.2    C99.8,48.8,101.3,48.8,102.9,48.8z"/>
		<path class="st0" d="M35.1,46.4c-0.7-0.3-1.3-0.5-1.9-0.8C32,45.2,30.9,45,29.7,45c-0.3,0-0.6,0.1-0.8,0.2    c-0.7,0.3-0.9,1.1-0.4,1.7c0.3,0.4,0.7,0.6,1.2,0.8c0.8,0.3,1.6,0.7,2.4,1c0.9,0.4,1.8,0.8,2.6,1.4c1.3,1,2,2.4,2.1,4.1    c0.1,1.2-0.1,2.4-0.6,3.5c-0.7,1.5-2,2.5-3.6,3c-1.4,0.5-2.8,0.6-4.2,0.5c-2-0.1-3.9-0.5-5.7-1.4c-0.7-0.3-0.7-0.3-0.6-1    c0.2-1.3,0.4-2.6,0.6-3.9c0-0.1,0-0.1,0-0.2c0.5,0.3,1.1,0.5,1.6,0.7c1.2,0.5,2.5,0.9,3.9,1c0.6,0.1,1.1,0.1,1.7-0.1    c0.5-0.2,0.8-0.4,0.9-0.9c0.1-0.5-0.1-0.9-0.5-1.3c-0.6-0.5-1.3-0.8-2-1c-1.1-0.4-2.2-0.8-3.3-1.4c-1-0.6-2-1.4-2.4-2.6    c-0.8-2.3-0.6-4.5,1-6.4c0.9-1.1,2.2-1.7,3.6-2c1.6-0.3,3.2-0.3,4.8,0c1.2,0.2,2.4,0.5,3.6,1.1c0.1,0.1,0.2,0.1,0.2,0.3    C35.6,43.4,35.3,44.8,35.1,46.4C35.1,46.3,35.1,46.3,35.1,46.4z"/>
		<path class="st0" d="M39.7,45h-2.6c0.3-1.1,0.5-2.6,0.7-4c0.6-0.1,1.2-0.2,1.7-0.3c0.2,0,0.2-0.1,0.2-0.2c0.2-1.5,0.5-2.9,0.7-4.4    c0-0.2,0.1-0.2,0.3-0.3c1.7-0.3,5.3-0.9,5.3-0.9s0,4.1,0,6.1c1.4,0,2.8,0,4.3,0c-0.3,1.7-0.5,3.3-0.8,5c-1.2,0-3.5,0-3.5,0v-0.3v8    c-0.1,0.4,0,0.7,0.1,1.1c0.2,0.6,0.6,1,1.3,1.1c0.7,0.1,1.4-0.1,2.1-0.2c0.1,0,0.1,0,0.2,0c0,0.1,0,0.2,0.4,0.2v4.6    c-0.4,0.1-0.4,0.2-0.6,0.3c-2,0.5-4,0.6-6.1,0.1c-2-0.5-3.1-1.9-3.5-3.8c-0.1-0.7-0.2-1.4-0.2-2.1c0-3,0-6,0-9    C39.7,45.6,39.7,45.5,39.7,45z"/>
		<path class="st0" d="M51,41c0.1,0,0.2,0,0.3,0c1.8,0,3.7,0,5.5,0c0.2,0,0.3,0,0.3,0.3c0.1,0.7,0.2,1.3,0.4,2    c0-0.1,0.1-0.1,0.1-0.1c0.7-1.6,2-2.3,3.8-2.4c0.5,0,0.9,0.1,1.4,0.1c0.1,0,0.2,0.1,0.2,0.2c0,1.9,0,3.8,0,5.7c0,0,0,0,0,0.1    c-0.3,0-0.5,0-0.7-0.1c-1,0-2,0-2.9,0.4c-0.5,0.2-0.9,0.5-1.2,0.8C58,48,58,48.1,58,48.2c0,2.2,0,4.4,0,6.5c0,2,0,4,0,5.9    c0,0.1,0,0.2,0,0.3c-2.3,0-4.6,0-6.9,0C51,54.4,51,47.7,51,41z"/>
		<path class="st0" d="M70,61c-2,0-4,0-6,0c0-6.7,0-13.3,0-20c2,0,4,0,6,0C70,47.7,70,54.3,70,61z"/>
		<path class="st0" d="M64.1,35.3c0-1.9,1.5-3.3,3.4-3.3c1.8,0,3.3,1.5,3.3,3.4c0,1.8-1.5,3.3-3.4,3.3C65.5,38.7,64,37.2,64.1,35.3z    "/>
	</g>
</g>
</svg>