<?xml version="1.0" encoding="UTF-8"?>
<!-- Generator: Adobe Illustrator 22.1.0, SVG Export Plug-In . SVG Version: 6.00 Build 0)  -->
<svg version="1.1" id="Layer_1" xmlns="http://www.w3.org/2000/svg" xmlns:xlink="http://www.w3.org/1999/xlink" x="0px" y="0px" viewBox="0 0 130 100" style="enable-background:new 0 0 130 100;" xml:space="preserve">
<style type="text/css">
	.st0{fill:#FFFFFF;}
</style>
<g>
	<g>
		<path class="st0" d="M26,62.2c-2.9-2.1-5.6-4.1-8.3-6.1c-0.6-0.5-1-0.4-1.6,0c-2.6,2-5.3,3.9-8,5.8C8,62,7.9,62.1,7.7,62.2    c0.6-2,1.2-3.8,1.8-5.6c0.5-1.5,0.9-2.9,1.4-4.4c0.2-0.6,0.1-0.9-0.4-1.2c-2.8-2-5.6-4.1-8.5-6.2c0.3,0,0.6,0,0.8,0    c3.2,0,6.5,0,9.7,0c0.7,0,1-0.3,1.2-0.9c1-3.2,2.1-6.4,3.2-9.9c0.3,0.9,0.6,1.7,0.8,2.4c0.8,2.5,1.7,5.1,2.5,7.6    c0.2,0.5,0.4,0.7,1,0.7c3.3,0,6.6,0,9.8,0c0.2,0,0.5,0,0.9,0c-2.3,1.6-4.4,3.2-6.5,4.7c-0.7,0.5-1.4,1.1-2.1,1.5    c-0.4,0.3-0.4,0.5-0.3,1c1,3.2,2,6.5,3,9.7C25.9,61.8,25.9,61.9,26,62.2z"/>
		<path class="st0" d="M87.2,49.6h1.4v1c2.2-1.8,3.9-2,5.7-1.7c2.2,0.4,3.7,2.1,4.1,4.7c0.2,1.6,0.1,3.1-0.6,4.6    c-1.4,3-5.5,3.7-7.8,1.3c-0.1-0.1-0.1-0.2-0.2-0.3c-0.1,0-0.1,0-0.3,0.1V62v3.1h-2.4C87.2,59.6,87.2,54.4,87.2,49.6z M96.2,54.9    c-0.3-0.9-0.5-1.9-1-2.7c-1.2-1.9-4.1-1.8-5.1,0.2c-0.8,1.6-0.8,3.2-0.1,4.8c1,2.2,3.9,2.4,5.2,0.4C95.8,56.8,95.9,55.8,96.2,54.9    z"/>
		<path class="st0" d="M115.5,60.9c-3.5-0.1-5.8-2.6-5.6-6.2c0.1-3.7,2.5-6,6.1-5.9c3.4,0.1,5.7,2.7,5.5,6.2    C121.3,58.7,119,61,115.5,60.9z M119,55c-0.2-0.8-0.2-1.4-0.4-2c-0.4-1.2-1.2-2-2.5-2.1c-1.3-0.2-2.4,0.3-3,1.4    c-0.9,1.6-0.9,3.4-0.1,5.1c0.6,1.1,1.5,1.6,2.7,1.6c1.3,0,2.2-0.6,2.7-1.8C118.7,56.4,118.9,55.6,119,55z"/>
		<path class="st0" d="M77.7,52.5c-1,0-1.8,0-2.7,0c-0.8-1.6-2.5-2.1-4.1-1.3c-0.3,0.2-0.6,0.6-0.6,0.9c0,0.4,0.3,0.9,0.6,1    c0.9,0.4,1.8,0.6,2.8,0.9c0.9,0.3,1.8,0.5,2.7,0.9c2.3,1,2.2,4.3,0.3,5.6c-2,1.4-5.5,1.5-7.6,0.2c-1.2-0.7-1.6-1.8-1.7-3.2    c0.9,0,1.7,0,2.6,0c0.8,2,2.6,2.7,4.6,1.8c0.4-0.2,0.8-0.7,0.8-1c0-0.4-0.3-1-0.6-1.3c-0.4-0.3-0.9-0.4-1.4-0.6    c-1.1-0.3-2.3-0.5-3.3-0.9c-1.5-0.5-2.3-1.6-2.4-3c0-1.4,0.7-2.6,2.3-3.1c1.8-0.6,3.6-0.7,5.4,0C76.7,49.8,77.5,50.9,77.7,52.5z"/>
		<path class="st0" d="M42.9,60.3c-1,0-1.9,0-2.9,0c0-4.5,0-9,0-13.6c-1.8,0-4.9,0-4.9,0v-1.9h12.7v1.9c0,0-3.1,0-4.9,0    C42.9,51.2,42.9,55.7,42.9,60.3z"/>
		<path class="st0" d="M63.3,48.6c0.9,0,2.1,0,3,0c0,3.9,0,7.8,0,11.7c-0.8,0-2.1,0-2.9,0c0-0.5,0-0.9,0-1.5    c-0.1,0.1-0.2,0.1-0.3,0.2c-1.4,2-3.7,1.9-5.3,1c-1.1-0.6-1.5-1.7-1.6-2.9c-0.1-2.8,0-5.7,0-8.5c0.8,0,1.5,0,2.3,0    c0,0.3,0,0.6,0,0.9c0,2.1,0,4.2,0,6.3c0,1.8,0.7,2.7,2.1,2.8c1.4,0.1,2.5-0.9,2.6-2.6c0.1-2.1,0-4.2,0.1-6.4    C63.3,49.4,63.3,49,63.3,48.6z"/>
		<path class="st0" d="M84.7,49c0,0,0,1.9,0,1.5h-1.9v4.3c0.3,0.8,0.3,1.7,0.3,2.5c0,1,1.4,1,1.4,1s0.9,0,1.3,0c0,0.6,0,1.2,0,1.9    c-1,0-1.9,0.1-2.8,0c-1.4-0.2-1.9-0.8-2-2.2c-0.1-2.2,0-4.3-0.1-6.5c0-0.3,0-0.7,0-1c-0.7,0-1.3,0-1.9,0c0-0.7,0-1,0-1h1.9v-3.9    h1.9v3.4C83.8,49,84.7,49,84.7,49z"/>
		<path class="st0" d="M124.2,50.5c0,0-0.8,0-1.5,0c0-0.7,0-1.3,0-1.9c0.6,0,1.3,0,1.9,0c0-1.2,0-2.9,0-2.9h1.9v2.9h1.9v1.9h-1.9    v3.8c0,0,0.1,2,0.1,2.9c0,1.2,0.3,1.4,1.5,1.1h0.7c0,0.4,0.1,0.5-0.4,0.6v1.5c-0.7,0.3-1.8,0.3-2.9,0c-0.7-0.2-1.2-0.7-1.3-1.4    c-0.1-0.6-0.2-1.2-0.2-1.7C124.2,55.2,124.2,50.5,124.2,50.5z"/>
		<path class="st0" d="M108.1,44.7v15.6h-2.9V44.7H108.1z"/>
		<path class="st0" d="M46.8,48.6c0,0,2.2,0,2.9,0c0,0.6,0,1.2,0,2.1c1-1.7,2.1-2.6,3.9-2.3c0,0.8,0,2.4,0,3.1c-0.5,0-0.9-0.1-1.4,0    c-1.3,0.2-2.3,1.2-2.4,2.7c-0.1,1.7-0.1,3.3-0.1,5c0,0.3,0,1.2,0,1.2h-2.9V48.6z"/>
		<path class="st0" d="M103.2,48.6v11.7h-2.9V48.6H103.2z"/>
		<path class="st0" d="M103.2,44.7v1.9h-2.9v-1.9H103.2z"/>
	</g>
</g>
</svg>