<?xml version="1.0" encoding="UTF-8"?>
<!-- Generator: Adobe Illustrator 22.1.0, SVG Export Plug-In . SVG Version: 6.00 Build 0)  -->
<svg version="1.1" id="Layer_1" xmlns="http://www.w3.org/2000/svg" xmlns:xlink="http://www.w3.org/1999/xlink" x="0px" y="0px" viewBox="0 0 130 100" style="enable-background:new 0 0 130 100;" xml:space="preserve">
<style type="text/css">
	.st0{fill:#FFFFFF;}
</style>
<g>
	<path class="st0" d="M56,57.4v-3.1h-2c-2.4,0-3.3,0.7-3.3,2.4c0,1.5,0.6,2.1,2,2.1C54.1,58.9,54.9,58.3,56,57.4 M56.3,60.6v-1   c-2,1.8-3.5,2-5,2c-2.9,0-4.6-1.8-4.6-4.9c0-3.4,2.2-5.1,6.8-5.1H56v-0.9c0-1.9-0.7-2.6-2.8-2.6c-1.2,0-2.6,0.1-4.3,0.5   c-0.3,0.1-0.6-0.2-0.6-0.5v-2c0-0.3,0.2-0.6,0.6-0.7c1-0.2,2.7-0.5,5.2-0.5c4.3,0,5.8,1.5,5.8,5.6v10c0,0.3-0.3,0.6-0.6,0.6h-2.4   C56.6,61.2,56.3,60.9,56.3,60.6"/>
	<path class="st0" d="M93.9,57.4v-3.1h-2c-2.4,0-3.3,0.7-3.3,2.4c0,1.5,0.6,2.1,2,2.1C92.1,58.9,92.8,58.3,93.9,57.4 M94.2,60.6v-1   c-2,1.8-3.5,2-5,2c-2.9,0-4.6-1.8-4.6-4.9c0-3.4,2.2-5.1,6.8-5.1h2.4v-0.9c0-1.9-0.7-2.6-2.9-2.6c-1.2,0-2.8,0.1-4.5,0.5   c-0.3,0.1-0.6-0.2-0.6-0.5v-2c0-0.3,0.2-0.6,0.6-0.7c1.1-0.2,2.8-0.6,5.4-0.6c4.4,0,6,1.5,6,5.6v10c0,0.3-0.3,0.6-0.6,0.6h-2.4   C94.5,61.2,94.2,60.9,94.2,60.6"/>
	<path class="st0" d="M123.7,61.7c-3.8,0-5.5-1.4-5.5-5.5V42.3c0-0.3,0.3-0.6,0.6-0.6h2.8c0.3,0,0.6,0.3,0.6,0.6v3.3h4.4   c0.3,0,0.6,0.3,0.6,0.6v2.1c0,0.3-0.3,0.6-0.6,0.6h-4.4v7.3c0,1.6,0.7,2.3,2.2,2.3c1.1,0,1.9-0.1,2.5-0.1c0.3,0,0.6,0.2,0.6,0.5   v1.9c0,0.3-0.3,0.6-0.6,0.7C125.7,61.6,125,61.7,123.7,61.7"/>
	<path class="st0" d="M104.8,46.2v0.9c1.5-1.3,3.2-2,5.2-2c3.2,0,4.9,1.4,4.9,4.8l0,10.7c0,0.3-0.3,0.6-0.6,0.6h-2.8   c-0.3,0-0.6-0.3-0.6-0.6v-9.5c0-2-0.7-2.6-2.3-2.6c-1.2,0-2.2,0.4-3.4,1.3v10.8c0,0.3-0.3,0.6-0.6,0.6h-2.8c-0.3,0-0.6-0.3-0.6-0.6   V46.2c0-0.3,0.3-0.6,0.6-0.6h2.4C104.5,45.6,104.8,45.8,104.8,46.2"/>
	<path class="st0" d="M78.1,60.6V39.8c0-0.3,0.3-0.6,0.6-0.6h2.8c0.3,0,0.6,0.3,0.6,0.6v20.8c0,0.3-0.3,0.6-0.6,0.6h-2.8   C78.4,61.2,78.1,60.9,78.1,60.6"/>
	<path class="st0" d="M70.7,60.6V39.8c0-0.3,0.3-0.6,0.6-0.6H74c0.3,0,0.6,0.3,0.6,0.6v20.8c0,0.3-0.3,0.6-0.6,0.6h-2.8   C70.9,61.2,70.7,60.9,70.7,60.6"/>
	<path class="st0" d="M63.3,60.6V46.2c0-0.3,0.3-0.6,0.6-0.6h2.8c0.3,0,0.6,0.3,0.6,0.6v14.5c0,0.3-0.3,0.6-0.6,0.6h-2.8   C63.5,61.2,63.3,60.9,63.3,60.6"/>
	<path class="st0" d="M63.2,42.4v-2.6c0-0.3,0.3-0.6,0.6-0.6h2.9c0.3,0,0.6,0.3,0.6,0.6v2.6c0,0.3-0.3,0.6-0.6,0.6h-2.9   C63.5,43,63.2,42.8,63.2,42.4"/>
	<path class="st0" d="M47.8,39.9l-6.3,20.8c-0.1,0.3-0.4,0.5-0.7,0.5H37c-0.3,0-0.6-0.2-0.7-0.5L30,39.9c-0.1-0.3,0.1-0.7,0.5-0.7   h3.2c0.3,0,0.6,0.2,0.7,0.5L39,57.2l4.6-17.4c0.1-0.3,0.4-0.5,0.7-0.5h3.1C47.7,39.2,47.9,39.6,47.8,39.9"/>
	<path class="st0" d="M12.8,50c0,0,0-0.1,0-0.1c-0.1-0.1-0.1-0.2-0.2-0.3c-0.3-0.4-0.8-0.6-1.1-0.4c-0.4,0.2-0.5,1.1,0,1.9   c0.5,1,1.4,1.1,1.7,0.9c0.3-0.2,0.2-0.5,0.1-1.1c0-0.1,0-0.2-0.1-0.2c0-0.1-0.1,0-0.1,0c-0.1,0-0.4,0.1-0.6-0.1   C12.4,50.3,12.7,50,12.8,50"/>
	<path class="st0" d="M11.6,55.8l-4.2,0c-0.1,0-0.3,0.1-0.3,0.3c0,0.1,0.1,0.3,0.3,0.3l4.2,0C11.5,56.1,11.5,56,11.6,55.8"/>
	<path class="st0" d="M17.6,50.7c-0.1,0-0.2,0-0.3-0.1c0,0-0.1,0-0.1,0c0,0,0,0-0.1,0c0,0.1,0,0.1-0.1,0.2C17,51.4,17,51.8,17.3,52   c0.1,0,0.2,0.1,0.3,0.1c0.4,0,1-0.2,1.4-1c0.5-0.8,0.4-1.7,0-1.9c-0.1-0.1-0.2-0.1-0.3-0.1c-0.3,0-0.6,0.2-0.8,0.5   c-0.1,0.1-0.1,0.2-0.2,0.3c0,0,0,0.1,0,0.1c0.1,0.1,0.4,0.3,0.3,0.5C17.9,50.6,17.8,50.7,17.6,50.7"/>
	<path class="st0" d="M23.1,55.8l-4.2,0c0,0.2,0,0.3,0,0.5l4.2,0c0.1,0,0.3-0.1,0.3-0.3C23.4,55.9,23.3,55.8,23.1,55.8"/>
	<path class="st0" d="M23.5,54.5l-3.3,0.2c-0.1-0.3-0.1-0.8-0.1-1.3c0,0,0,0,0,0c0-0.7,0.1-1.5,0.2-2.1c0.2-0.9,0.5-2.2,0.4-3.5   c-0.1-1.3-1.1-2.5-1.2-2.5c0,0,0,0,0,0c-0.4-0.4-0.7-0.6-0.9-0.8c0,0-0.1-0.1-0.1-0.1c0-0.1,0-0.1,0-0.2c0.3-1,0.6-2.6,1.5-4.8   c0.9-2.2,1.6-4.3,2.1-4.3c0,0,0,0,0,0c0.5,0,0.1,2.2-0.9,4.9c-1,2.7-2.1,3.9-1.8,4c0,0,0.1,0,0.1,0c0.3,0,0.7-0.6,1.3-1.6   c0.7-1.2,1.2-2.5,1.8-4.2c0.6-2.1,0.9-5,0.1-5.1c0,0,0,0-0.1,0c-0.8,0-2.2,2.2-4,5.5c-1.7,3.3-2.3,5.2-2.3,5.2   c0,0.1-0.1,0.2-0.2,0.2c-0.3-0.1-0.6-0.1-1-0.1c0,0,0,0,0,0c0,0,0,0,0,0c-0.4,0-0.7,0-1,0.1c-0.2,0-0.2-0.1-0.2-0.2   c0,0-0.6-1.9-2.3-5.2c-1.8-3.3-3.2-5.5-4-5.5c0,0,0,0-0.1,0c-0.8,0.1-0.6,3,0.1,5.1c0.5,1.8,1.1,3,1.8,4.2c0.6,1,1,1.6,1.3,1.6   c0,0,0.1,0,0.1,0c0.3-0.2-0.8-1.3-1.8-4c-1-2.7-1.4-4.8-0.9-4.9c0,0,0,0,0,0c0.5,0,1.3,2.1,2.1,4.3c0.9,2.2,1.2,3.8,1.5,4.8   c0,0,0,0.1,0,0.2c0,0.1-0.1,0.1-0.1,0.1c-0.2,0.1-0.5,0.4-0.9,0.8c0,0,0,0,0,0c0,0-1,1.2-1.2,2.5c-0.1,1.3,0.2,2.6,0.4,3.5   c0.1,0.6,0.2,1.4,0.2,2.1c0,0,0,0,0,0c0,0.5,0,0.9-0.1,1.3l-3.3-0.2c-0.1,0-0.3,0.1-0.3,0.2c0,0.1,0.1,0.3,0.2,0.3l4.7,0.3   c0,0,0,0,0,0l0,0c0,0,0,0,0,0c0.1-0.2,0.3-0.5,0.6-0.7c0,0,0.1-0.1,0.1-0.1c0.2-0.1,0.3-0.2,0.3-0.5c0-0.3-0.2-0.4-0.3-0.6   c-0.5-0.6-1.3-1.4-1.6-2.2c-0.8-1.6-0.3-3.9,0.6-4c0.7-0.1,1.4,0.4,2.1,1.7c0.2,0.4,0.4,0.9,0.6,1.4c0.2,0.8,0.4,1.6,0.5,2.5   c0,0.5,0,0.8-0.1,1.1c-0.1,0.3-0.2,0.5-0.3,0.6c-0.2,0.3-0.4,0.6-0.4,1c0,0.5,0.5,0.6,0.7,0.8c0.2,0.2,0.3,0.4,0.3,0.6   c0,0.2-0.1,0.4-0.2,0.5c-0.3,0.4-0.8,0.6-1.1,0.6c-0.1,0-0.2,0-0.3,0c-0.8,0-1.4-0.4-1.6-1.2l0,0c0,0,0,0,0,0l-3.7,0.2   c-0.1,0-0.3,0.1-0.2,0.3c0,0.1,0.1,0.2,0.3,0.2l3-0.2c0.7,1.2,2.9,2.8,4.2,2.9c0,0,0,0,0.1,0c0,0,0.1,0,0.1,0   c1.4-0.1,3.6-1.7,4.2-2.9l3,0.2c0.1,0,0.3-0.1,0.3-0.2c0-0.1-0.1-0.3-0.2-0.3l-3.7-0.2c0,0,0,0,0,0l0,0C18.7,57.6,18,58,17.3,58   c-0.1,0-0.2,0-0.3,0c-0.3,0-0.8-0.2-1.1-0.6c-0.1-0.1-0.2-0.3-0.2-0.5c0-0.2,0.1-0.4,0.3-0.6c0.2-0.2,0.7-0.3,0.7-0.8   c0-0.4-0.2-0.7-0.4-1c-0.1-0.2-0.2-0.4-0.3-0.6c-0.1-0.3-0.1-0.6-0.1-1.1c0-0.9,0.2-1.7,0.5-2.5c0.2-0.5,0.4-1,0.6-1.4   c0.7-1.3,1.4-1.8,2.1-1.7c1,0.1,1.4,2.4,0.6,4c-0.4,0.8-1.1,1.6-1.6,2.2c-0.1,0.1-0.3,0.3-0.3,0.6c0,0.3,0.1,0.4,0.3,0.5   c0,0,0.1,0.1,0.1,0.1c0.3,0.2,0.5,0.4,0.6,0.7l0,0l0,0c0,0,0,0,0,0l4.7-0.3c0.1,0,0.3-0.1,0.2-0.3C23.8,54.6,23.7,54.5,23.5,54.5    M16.5,58.9c-0.3,0.3-0.7,0.5-1.1,0.5c-0.1,0-0.3,0-0.3,0c-0.4,0-0.8-0.2-1.1-0.5c0.4-0.1,0.9-0.4,1.2-0.7v0c0,0,0,0,0.1-0.1   c0,0,0,0,0.1,0.1v0C15.6,58.5,16.1,58.8,16.5,58.9"/>
	<path class="st0" d="M12.2,38.1c1-0.6,2-0.9,3.1-0.9c1.1,0,2.1,0.3,3.1,0.9c0.4-0.7,0.7-1.3,1-1.8c-1.3-0.7-2.7-1.1-4.1-1.1   c-1.4,0-2.8,0.4-4.1,1.1C11.5,36.8,11.8,37.4,12.2,38.1"/>
	<path class="st0" d="M23.8,40.8c-0.3-0.4-0.5-0.8-0.8-1.2c-0.3,0.9-0.6,1.6-0.9,2.3c1.7,2.7,2.8,6.3,2.8,9.6   c0,6.5-4.3,11.8-9.6,11.8S5.6,58,5.6,51.4c0-3.3,1.1-6.8,2.8-9.6c-0.3-0.7-0.6-1.4-0.9-2.3C7.2,40,7,40.3,6.7,40.8   c-2,3.1-3.1,7.1-3.1,10.7c0,3.6,1.2,7.1,3.3,9.7c2.2,2.7,5.2,4.2,8.4,4.2s6.2-1.5,8.4-4.2c2.1-2.6,3.3-6,3.3-9.7   C26.9,47.8,25.7,43.8,23.8,40.8"/>
</g>
</svg>