<?xml version="1.0" encoding="UTF-8"?>
<!-- Generator: Adobe Illustrator 22.1.0, SVG Export Plug-In . SVG Version: 6.00 Build 0)  -->
<svg version="1.1" id="Layer_1" xmlns="http://www.w3.org/2000/svg" xmlns:xlink="http://www.w3.org/1999/xlink" x="0px" y="0px" viewBox="0 0 130 100" style="enable-background:new 0 0 130 100;" xml:space="preserve">
<style type="text/css">
	.st0{fill:#FFFFFF;}
</style>
<g>
	<path class="st0" d="M29.1,42.4c0.5,0,0.9,0,1.4,0c0.5,0,1,0,1.5,0c0.3,0,0.4,0.1,0.5,0.4c0.2,1.4,0.5,2.8,0.8,4.2   c0.2,1.2,0.4,2.4,0.6,3.6c0,0.2,0.1,0.5,0.1,0.7c0,0,0.1,0,0.1,0c0.1-0.4,0.1-0.8,0.2-1.1c0.4-1.9,0.7-3.9,1.1-5.9   c0.1-0.5,0.2-1.1,0.3-1.6c0-0.2,0.1-0.3,0.4-0.3c0.7,0,1.5,0,2.2,0c0.2,0,0.3,0.1,0.3,0.3c0.4,2.2,0.9,4.4,1.3,6.6   c0.1,0.6,0.2,1.3,0.3,2C40,51,40,50.7,40,50.4c0.4-2.2,0.8-4.5,1.1-6.7c0.1-0.3,0.1-0.7,0.2-1c0-0.1,0.2-0.3,0.3-0.3   c0.9,0,1.9,0,2.8,0c0.1,0,0.1,0,0.2,0.1c-0.1,0.6-0.2,1.2-0.3,1.8c-0.7,3.6-1.5,7.3-2.2,10.9c-0.1,0.3-0.1,0.3-0.4,0.3   c-1,0-1.9,0-2.9,0c-0.3,0-0.3-0.1-0.4-0.3c-0.4-2.1-0.8-4.2-1.2-6.3c-0.1-0.6-0.2-1.1-0.3-1.7c0-0.1-0.1-0.2-0.1-0.2   c-0.5,2.8-1,5.6-1.6,8.5c-1.2,0-2.4,0-3.6,0C30.8,51.1,29.9,46.8,29.1,42.4z"/>
	<path class="st0" d="M1.3,50.4c0.3,0.4,0.5,0.8,0.8,1.1c0.9,1,2,1.4,3.3,1.3c1.7-0.1,3.2-0.8,4.6-1.7c1.3-0.9,2.4-1.9,3.7-2.8   c4.5-3.4,9-6.8,13.4-10.2c1.4-1.1,3-1.9,4.8-2.2c1.2-0.2,2.4-0.2,3.6,0.2c1.5,0.6,2.3,1.7,2.6,3.3c0.1,0.5,0.1,0.9,0.1,1.4   c0,0-0.1,0-0.1,0c-0.1-0.1-0.1-0.2-0.1-0.2c-0.8-1.6-2.4-2.3-4.1-2.1c-1.8,0.2-3.5,0.9-4.9,2c-5.5,4.2-10.9,8.4-16.4,12.5   c-1.5,1.1-3.1,2-4.9,2.3c-1.3,0.3-2.6,0.3-3.8-0.2c-1.6-0.6-2.3-1.8-2.5-3.4C1.2,51.3,1.3,50.8,1.3,50.4z"/>
	<path class="st0" d="M0.9,44.2c0.7,1.3,1.7,2.1,3.2,2.3c1,0.1,2-0.1,3-0.4c1.5-0.5,2.8-1.4,4-2.3c5.2-4,10.4-7.9,15.6-11.9   c1.5-1.1,3.1-2,5-2.3c1.3-0.2,2.6-0.2,3.8,0.3c1.4,0.6,2.1,1.7,2.3,3.1c0.1,0.5,0.1,0.9,0.1,1.4c0,0-0.1,0-0.1,0   c-0.1-0.1-0.1-0.1-0.1-0.2c-0.9-1.6-2.4-2.3-4.1-2.1c-1.8,0.2-3.5,0.9-4.9,2c-5.5,4.2-10.9,8.4-16.4,12.5c-1.5,1.1-3.1,2-4.9,2.3   C6.2,49.3,5,49.3,3.8,49C2.1,48.5,1,47.1,1,45.3C0.9,45,0.9,44.6,0.9,44.2z"/>
	<path class="st0" d="M57.7,55.5c0-4.4,0-8.7,0-13.1c0.1,0,0.3,0,0.3,0c1.7,0,3.5,0,5.2,0c0.5,0,1,0.1,1.4,0.1   c0.9,0.2,1.6,0.7,1.9,1.5c0.7,1.4,0.8,2.8,0.3,4.2c-0.3,0.8-0.8,1.4-1.5,1.8c-0.1,0.1-0.2,0.1-0.3,0.2c0.8,1.8,1.7,3.5,2.5,5.3   c-0.9,0-1.8,0-2.6,0c-0.4,0-0.8,0.1-1-0.1c-0.3-0.2-0.3-0.6-0.4-0.9c-0.5-1.1-1-2.2-1.5-3.3c-0.1-0.1-0.2-0.3-0.3-0.3   c-0.3,0-0.6,0-0.8,0c0,0-0.1,0.2-0.1,0.3c0,1.3,0,2.6,0,3.8c0,0.3-0.1,0.4-0.4,0.4C59.6,55.5,58.6,55.5,57.7,55.5z M60.9,46.6   c0,0.4,0,0.9,0,1.3c0,0.2,0.1,0.3,0.3,0.3c0.4,0,0.9,0,1.4,0c1,0,1.4-0.6,1.4-1.4c0.1-1-0.5-1.6-1.5-1.6c-0.4,0-0.8,0-1.3,0   c-0.3,0-0.3,0.1-0.3,0.3C60.9,45.8,60.9,46.2,60.9,46.6z"/>
	<path class="st0" d="M127.5,50.2c0.8,1.7,1.7,3.5,2.5,5.2c-0.1,0-0.2,0-0.3,0c-1,0-2,0-3,0c-0.3,0-0.3-0.1-0.4-0.3   c-0.6-1.3-1.1-2.6-1.7-3.9c-0.1-0.3-0.3-0.5-0.7-0.4c-0.5,0-0.5,0-0.5,0.5c0,1.3,0,2.5,0,3.7c0,0.3-0.1,0.4-0.4,0.4   c-0.9,0-1.9,0-2.9,0c0-4.4,0-8.7,0-13.1c0.1,0,0.3,0,0.4,0c1.7,0,3.4,0,5.1,0c0.5,0,1,0.1,1.5,0.1c1,0.2,1.6,0.8,2.1,1.6   c0.6,1.3,0.7,2.6,0.3,3.9c-0.3,0.9-0.8,1.6-1.7,2C127.7,50.1,127.6,50.1,127.5,50.2C127.5,50.2,127.5,50.2,127.5,50.2z M123.3,46.6   c0,0.4,0,0.8,0,1.3c0,0.2,0.1,0.3,0.3,0.3c0.5,0,1.1,0,1.6-0.1c0.6,0,1-0.4,1.1-0.9c0.1-0.4,0.1-0.9,0-1.3   c-0.1-0.5-0.5-0.8-0.9-0.8c-0.6-0.1-1.1,0-1.7-0.1c-0.2,0-0.3,0.1-0.3,0.3C123.3,45.8,123.3,46.2,123.3,46.6z"/>
	<path class="st0" d="M49.7,55.8c-1.8,0-3.6-1.4-4.4-3.5c-0.9-2.6-0.9-5.2,0.4-7.6c1.1-2.1,3.1-2.9,5.2-2.7c2.9,0.2,4.6,2.1,5.2,4.8   c0.4,1.9,0.3,3.8-0.5,5.7C54.6,54.6,52.9,55.8,49.7,55.8z M53.3,48.8c0-0.2,0-0.3,0-0.5c-0.1-0.8-0.3-1.6-0.8-2.3   c-1.1-1.3-3.7-1.3-4.5,0.9c-0.4,1.3-0.4,2.6,0,3.8c0.4,1.1,1.2,1.8,2.3,1.8c1.3,0.1,2.1-0.5,2.6-1.6C53.2,50.3,53.3,49.5,53.3,48.8   z"/>
	<path class="st0" d="M97.3,45.8c-0.6-0.9-1.6-1.1-2.7-1.1c-0.6,0-1.5,0.6-1.4,1.4c0.1,0.5,0.3,0.9,0.9,1c0.5,0.1,1.1,0.2,1.6,0.4   c0.8,0.2,1.6,0.4,2.4,0.8c1.4,0.7,1.9,2,1.7,3.5c-0.3,2.2-1.8,3.6-4,3.9c-1.1,0.1-2.2,0.2-3.2-0.1c-1.2-0.4-2.2-1-2.9-2   c-0.1-0.2-0.1-0.3,0-0.4c0.6-0.6,1.2-1.1,1.8-1.8c0.1,0.1,0.2,0.3,0.4,0.4c1,1,2.2,1.4,3.6,1.1c0.8-0.2,1.1-0.7,0.9-1.5   c-0.1-0.4-0.4-0.7-0.8-0.8c-0.8-0.2-1.6-0.3-2.4-0.5c-1.4-0.4-2.6-1-3-2.5c-0.6-2.1,0.2-4.8,3.2-5.5c1.9-0.4,3.7,0,5.3,1.2   c0.3,0.2,0.4,0.4,0.7,0.7C98.6,44.6,98,45.2,97.3,45.8z"/>
	<path class="st0" d="M88.9,55.5c-2.9,0-5.8,0-8.7,0c0-0.1,0-0.2,0-0.3c0-4.1,0-8.2,0-12.4c0-0.3,0.1-0.4,0.4-0.4c2.5,0,5,0,7.5,0   c0.3,0,0.4,0.1,0.4,0.4c0,0.7,0,1.3,0,2c0,0.4,0,0.4-0.4,0.4c-1.3,0-2.7,0-4,0c-0.1,0-0.3,0-0.5,0c0,0.6,0,1.2,0,1.8   c0,0.2,0.2,0.2,0.3,0.2c1.2,0,2.5,0,3.7,0c0.2,0,0.4,0,0.6,0c0,0.9,0,1.8,0,2.8c-0.1,0-0.3,0-0.4,0c-1.3,0-2.6,0-3.9,0   c-0.3,0-0.4,0.1-0.4,0.4c0,0.8,0,1.5,0,2.3c0.2,0,0.3,0,0.5,0c1.5,0,3,0,4.5,0c0.3,0,0.4,0.1,0.4,0.4   C88.8,53.8,88.9,54.6,88.9,55.5z"/>
	<path class="st0" d="M117.4,47.2c0,0.9,0,1.8,0,2.8c-0.1,0-0.3,0-0.4,0c-1.3,0-2.6,0-3.9,0c-0.3,0-0.4,0.1-0.4,0.4   c0,0.6,0,1.3,0,1.9c0,0.3,0.1,0.4,0.4,0.4c1.5,0,3.1,0,4.6,0c0.4,0,0.4,0,0.4,0.4c0,0.7,0,1.3,0,2c0,0.3-0.1,0.4-0.4,0.4   c-2.7,0-5.3,0-8,0c-0.3,0-0.4-0.1-0.4-0.4c0-4.1,0-8.2,0-12.4c0-0.3,0.1-0.4,0.4-0.4c2.5,0,5,0,7.5,0c0.3,0,0.4,0.1,0.4,0.4   c0,0.7,0,1.4,0,2.1c0,0.3-0.1,0.4-0.4,0.4c-1.4,0-2.8,0-4.2,0c-0.4,0-0.4,0-0.4,0.4c0,0.4,0,0.8,0,1.2c0,0.3,0.1,0.4,0.4,0.4   c1.3,0,2.6,0,4,0C117.2,47.2,117.3,47.2,117.4,47.2z"/>
	<path class="st0" d="M79.1,52.8c-0.9,1.4-2,2.4-3.6,2.8c-2.3,0.6-4.2-0.2-5.7-2c-2.3-2.8-2.1-7.4,0.5-9.9c1.6-1.6,3.5-2.1,5.7-1.3   c1.3,0.5,2.2,1.5,2.9,2.7c-0.8,0.5-1.5,1.1-2.3,1.6c-0.2-0.2-0.3-0.4-0.4-0.6c-1.1-1.2-2.6-1.3-3.8-0.2c-1.6,1.5-1.6,4.7,0.1,6.2   c1.1,0.9,2.6,0.9,3.6-0.2c0.2-0.2,0.3-0.4,0.5-0.6C77.4,51.7,78.2,52.2,79.1,52.8z"/>
	<path class="st0" d="M106,55.5c-1.1,0-2.1,0-3.1,0c-0.1,0-0.2-0.1-0.2-0.2c0-0.1,0-0.2,0-0.3c0-3,0-5.9,0-8.9c0-0.2,0-0.3,0-0.5   c-0.9,0-1.7,0-2.6,0c0-1.1,0-2.1,0-3.2c2.8,0,5.7,0,8.5,0c0,1.1,0,2.1,0,3.2c-0.9,0-1.7,0-2.6,0C106,48.9,106,52.2,106,55.5z"/>
	<path class="st0" d="M31.2,62.4c1.2,0,2.3,0,3.5,0c0.3,0,0.5,0.1,0.8,0.1c0.8,0.2,1.2,0.7,1.3,1.5c0.1,0.8-0.3,1.3-1.1,1.6   c-0.1,0-0.1,0.1-0.2,0.1c0.1,0.1,0.3,0.1,0.4,0.1c0.6,0.1,1.1,0.5,1.2,1.1c0.1,0.7,0,1.3-0.6,1.7C36,69,35.5,69.1,35,69.1   c-1.3,0-2.5,0-3.8,0C31.2,66.9,31.2,64.7,31.2,62.4z M32.8,66.3c0,0.5,0,1,0,1.5c0,0.1,0.1,0.2,0.2,0.2c0.6,0,1.3,0,1.9-0.1   c0.4-0.1,0.6-0.4,0.5-0.8c0-0.4-0.3-0.7-0.6-0.7C34.1,66.3,33.4,66.3,32.8,66.3z M32.8,65.1c0.6,0,1.1,0,1.6,0   c0.4,0,0.7-0.3,0.7-0.7c0-0.3-0.2-0.7-0.6-0.7c-0.6,0-1.2,0-1.8,0C32.8,64.1,32.8,64.6,32.8,65.1z"/>
	<path class="st0" d="M67.5,66.7c-0.4,0-0.8,0-1.2,0c-0.2,0-0.3-0.1-0.3-0.3s0-0.4,0-0.6c0-0.2,0.1-0.3,0.3-0.3c0.8,0,1.6,0,2.4,0   c0.1,0,0.2,0.1,0.2,0.2c0,1.2,0,2.3,0,3.5c-0.4,0-0.8,0-1.3,0c0-0.2,0-0.3,0-0.5c-0.1,0-0.1,0-0.2,0.1c-1.9,1.4-4.3,0.5-4.8-1.9   c-0.2-1-0.2-2,0.4-3c0.6-1.2,1.7-1.7,3-1.7c1.2,0,2.1,0.6,2.9,1.5c-0.4,0.3-0.8,0.5-1.3,0.8c0-0.1-0.1-0.1-0.1-0.2   c-0.5-0.7-1.1-0.9-1.9-0.7c-0.7,0.2-1.1,0.7-1.3,1.4c-0.2,0.7-0.1,1.4,0.2,2.1c0.4,0.9,1.8,1.3,2.6,0.6   C67.3,67.4,67.5,67.1,67.5,66.7z"/>
	<path class="st0" d="M85.5,70.9c0-2.2,0-4.5,0-6.7c0.4,0,0.8,0,1.3,0c0,0.1,0,0.2,0.1,0.4c0.4-0.3,0.8-0.5,1.3-0.5   c1,0,1.8,0.5,2.1,1.4c0.3,0.9,0.3,1.8-0.1,2.6c-0.6,1.3-1.9,1.4-2.8,0.9C87.2,69,87.2,69,87,68.9c0,0.4,0,0.7,0,1c0,0.3,0,0.6,0,1   C86.5,70.9,86,70.9,85.5,70.9z M86.9,66.6c0.1,0.4,0.1,0.7,0.2,1c0.1,0.4,0.4,0.6,0.8,0.6c0.4,0,0.7-0.2,0.8-0.5   c0.3-0.7,0.4-1.4,0.1-2.1c-0.1-0.4-0.4-0.6-0.8-0.6c-0.4,0-0.7,0.2-0.9,0.6C87,65.9,87,66.3,86.9,66.6z"/>
	<path class="st0" d="M54.3,69.2c0-2.3,0-4.5,0-6.7c0.5,0,0.9,0,1.4,0c0,0.7,0,1.4,0,2.3c0.2-0.1,0.3-0.2,0.4-0.3   c0.6-0.4,1.3-0.5,2-0.1c0.4,0.2,0.6,0.5,0.6,0.9c0.1,1.3,0.1,2.6,0.1,4c-0.5,0-1,0-1.4,0c0-0.1,0-0.3,0-0.4c0-0.9,0-1.8-0.1-2.7   c0-0.5-0.3-0.8-0.7-0.8s-0.7,0.3-0.8,0.7c0,0.2-0.1,0.4-0.1,0.5c0,0.9,0,1.8,0,2.6C55.3,69.2,54.8,69.2,54.3,69.2z"/>
	<path class="st0" d="M73.3,66.7c0-1.6,1-2.7,2.6-2.7c1.7,0,2.7,1,2.7,2.7c0,1.6-1,2.6-2.7,2.6C74.3,69.3,73.3,68.3,73.3,66.7z    M77.3,66.7c-0.1-0.3-0.1-0.6-0.2-0.9c-0.2-0.4-0.5-0.6-1-0.6c-0.5,0-0.9,0.2-1.1,0.6c-0.3,0.6-0.3,1.1,0,1.7   c0.2,0.5,0.6,0.7,1.1,0.7s0.9-0.3,1.1-0.7C77.2,67.2,77.2,67,77.3,66.7z"/>
	<path class="st0" d="M43.2,66.7c0,1.6-1,2.6-2.7,2.6c-1.7,0-2.7-1-2.7-2.6c0-1.6,1-2.7,2.6-2.7C42.2,64,43.2,65,43.2,66.7z    M41.8,66.7c-0.1-0.3-0.1-0.5-0.2-0.8c-0.2-0.5-0.6-0.7-1.1-0.7c-0.6,0-0.9,0.2-1.1,0.7c-0.2,0.6-0.2,1.1,0.1,1.6   c0.2,0.5,0.8,0.7,1.3,0.6C41.4,68,41.8,67.5,41.8,66.7z"/>
	<path class="st0" d="M84.2,69.2c-0.5,0-0.9,0-1.4,0c0-0.1-0.1-0.2-0.1-0.4c-0.5,0.4-1,0.6-1.6,0.5c-0.8-0.1-1.4-0.5-1.4-1.4   c0-1.2,0-2.3,0-3.5c0-0.2,0.1-0.3,0.3-0.3c0.3,0,0.6,0,0.9,0c0.2,0,0.3,0.1,0.3,0.3c0,0.9,0,1.9,0,2.9c0,0.5,0.2,0.8,0.6,0.8   c0.6,0,0.9-0.2,1-0.7c0.1-0.6,0-1.3,0-1.9c0-0.4,0-0.7,0-1.1c0-0.2,0.1-0.3,0.3-0.3c0.4,0,0.7,0,1.1,0c0,0.4,0.1,0.7,0.1,1.1   C84.2,66.5,84.2,67.8,84.2,69.2z"/>
	<path class="st0" d="M43.6,68.3c0.3-0.3,0.6-0.5,0.8-0.8c0.4,0.2,0.8,0.4,1.1,0.6c0.3,0.1,0.7,0,1-0.1c0.1,0,0.3-0.3,0.3-0.4   c0-0.1-0.2-0.3-0.3-0.4c-0.4-0.1-0.8-0.2-1.2-0.3c-0.4-0.1-0.9-0.3-1.2-0.7c-0.5-0.8-0.1-1.8,0.8-2.2c0.6-0.3,1.3-0.3,1.9-0.1   c0.5,0.1,0.9,0.4,1.5,0.6c-0.4,0.3-0.6,0.6-0.9,0.8c-0.4-0.1-0.8-0.3-1.2-0.4c-0.2-0.1-0.4,0-0.6,0.1c-0.1,0.1-0.3,0.2-0.3,0.3   c0,0.1,0.2,0.3,0.3,0.3c0.4,0.1,0.8,0.2,1.2,0.3c0.2,0.1,0.4,0.1,0.7,0.2c1,0.5,1.1,1.8,0.3,2.5C46.6,69.6,44.6,69.4,43.6,68.3z"/>
	<path class="st0" d="M53.6,65.2c-0.4,0.2-0.7,0.4-1,0.6c-0.2-0.2-0.3-0.3-0.4-0.4c-0.5-0.4-1.1-0.3-1.4,0.3c-0.3,0.5-0.3,1-0.2,1.6   c0.1,0.5,0.4,0.9,0.9,1c0.5,0.1,0.9-0.3,1.1-0.7c0.4,0.2,0.7,0.4,1.1,0.5c-0.6,1-1.6,1.5-2.7,1.3c-1.1-0.3-1.8-1.1-1.9-2.2   c-0.1-0.7,0-1.3,0.4-1.9c0.5-0.8,1.3-1.2,2.2-1.1C52.4,64.1,53.1,64.4,53.6,65.2z"/>
	<path class="st0" d="M71.4,69.2c-0.4,0-0.7,0-1,0c-0.1,0-0.2,0-0.3,0c0-0.1,0-0.2,0-0.3c0-1.5,0-3,0-4.4c0-0.2,0.1-0.3,0.3-0.3   c0.4,0,0.7,0,1.1,0c0,0.2,0,0.3,0.1,0.4c0.2-0.1,0.4-0.3,0.7-0.3c0.2-0.1,0.5-0.1,0.8-0.2c0,0.4,0,0.8,0,1.1c0,0.1-0.1,0.2-0.3,0.2   c-1.1,0.2-1.2,0.3-1.2,1.4c0,0.7,0,1.5,0,2.2C71.5,69.1,71.5,69.1,71.4,69.2z"/>
</g>
</svg>