<?xml version="1.0" encoding="utf-8"?>
<!-- Generator: Adobe Illustrator 23.0.1, SVG Export Plug-In . SVG Version: 6.00 Build 0)  -->
<svg version="1.1" id="Layer_1" xmlns="http://www.w3.org/2000/svg" xmlns:xlink="http://www.w3.org/1999/xlink" x="0px" y="0px"
	 viewBox="0 0 540.6 416.7" style="enable-background:new 0 0 540.6 416.7;" xml:space="preserve">
<style type="text/css">
	.st0{fill:#9A9A9A;}
	.st1{fill:#ED7622;}
</style>
<g>
	<path class="st0" d="M218.7,293.4c0-0.6,0-1.1,0-1.8c1.2,0,2.4,0.1,3.5-0.1c0.5-0.1,1.3-1,1.2-1.3c-0.7-2.1,0.7-2.4,2-2.7
		c3.7-0.8,7.3-1.7,11-2.2c1.1-0.2,2.3,0.5,3.5,0.4c-0.4-0.2-0.9-0.4-1.3-0.6c2.3-0.8,4.1-2.8,6.9-1.5c0.8,0.4,2.4,0.6,3-1.1
		c0.2-0.5,1.3-0.7,2-0.9c5-1,10.1-2,15.1-3.1c2.4-0.5,4.7-1.5,7.4-2.3c0,1.1,0,1.7,0,2.3c0.2,0.1,0.4,0.2,0.6,0.3
		c0.2-0.4,0.4-0.8,0.4-1.3c0-0.3-0.3-0.6-0.6-1.2c7.9-2.4,15.8-3.6,23.5-5.7c8-2.1,16.2-3.9,24.3-5.8c8.1-1.9,16.2-3.9,24.2-5.8
		c8.1-1.9,16.2-3.8,24.3-5.7c8.2-1.9,16.3-3.8,24.5-5.8c8.1-1.9,16.2-3.8,24.3-5.8c8.1-1.9,16.2-3.8,24.3-5.7
		c8.1-1.9,16.2-3.9,24.3-5.8c8-1.9,16.1-3.8,24.1-5.7c7.7-1.8,15.4-3.5,23.4-5.3c0.2,0.5,0.5,1.2,0.8,1.9c0.1-0.3,0.3-0.7,0.4-1
		c0.6-0.6,1.1-1.6,1.9-1.8c6.6-1.7,13.3-3.2,19.9-4.8c0.5-0.1,1,0,1.7,0c0.4,2,0.9,4,1.3,5.9c-5.7,2.8-18.4,4.9-19.9,3.3
		c-0.5,0.5-1,1.3-1.6,1.5c-5.2,1.5-10.4,3-15.6,4.4c-3.2,0.9-6.4,1.7-9.7,2.3c-5.1,0.8-9.9,2.6-15,3.5c-1.5,0.3-2,1.1-2.2,2.5
		c-2,14.9-5.7,29.3-10.9,43.4c-7.6,20.6-18.1,39.6-31.7,56.8c-1.1,1.4-2.9,2.3-4,3.7c-1.4,1.7-2.3,3.6-3.6,5.4
		c-1.6,2.3-3.3,4.6-6.7,2.1c-0.2,1-0.4,1.7-0.6,2.4c0.1,0.1,0.2,0.1,0.3,0.2c0.4-0.5,0.9-1.1,1.3-1.6c1.8-0.2,1.4,1.8-1,4.2
		c-1.1,1.1-2.3,2.2-3.6,3.4c-0.6-0.3-1.2-0.7-1.2-0.7c-1.3,1.9-2,4-3.5,5.3c-6.9,5.8-13.7,11.7-20.9,16.9
		c-15.1,11-31.5,19.6-49.2,25.7c-4.1,1.4-8.2,3-12.5,4.2c-14.5,4-29.1,6.9-44.1,7.9c-24.2,1.7-47.9-0.8-71.2-7.3
		c-13.6-3.8-26.7-9-39.3-15.5c-20-10.4-38-23.7-53.7-39.9c-3.2-3.2-5.8-6.9-8.8-10.4c-2.5-2.9-5.2-5.6-7.5-8.6
		c-1.4-1.9-2.2-4.3-3.1-6.3c0,0.3,0.1,0.9,0.2,1.6c-0.3-0.1-0.5,0-0.7-0.2c-0.3-0.3-0.5-0.6-0.8-1c-2.9-4.1-2.8-4-7.8-2.8
		c-13.6,3.2-27.3,6.3-40.9,9.5c-5.1,1.2-10.1,2.5-15.2,3.8c-0.7,0.2-1.5,0.3-2.2,0.5c-0.2-0.3-0.3-0.5-0.4-0.7
		c-1.6-5.8-1.5-5.7,4.5-7.2C57.9,327,78,322.2,98,317.4c0.7-0.2,1.5-0.4,2.2-0.5c1.5-0.2,3.3-1.4,3.8,2.2c0.6-3.3,1.9-4,4.3-3.6
		c1.3,0.2,2.7,0.2,4.1,0.2c0-0.2,0-0.5,0-0.7c-0.7,0-1.5,0-2.2,0c0-0.1-0.1-0.2-0.1-0.3c0.6-0.2,1.1-0.4,1.7-0.5
		c7.4-1.8,14.8-3.6,22.3-5.3c1.7-0.4,3.8-1.8,5.3,0.6c5.3-4.9,12.4-4.3,18.6-6.2c7.6-2.3,15.5-3.7,23.3-5.5
		c11.7-2.8,23.3-5.6,34.9-8.3c0.2-0.1,0.5,0,0.8-0.1c0,0.9-0.3,1.9-0.1,2.7C217.3,292.8,218.2,293.1,218.7,293.4
		c0.3,0.1,0.8,0.4,0.7,0.5c-0.1,0.4-0.5,1.1-0.7,1.1c-0.8-0.1-2-0.2-2.4-0.8c-1-1.5-1.8-1.3-3-0.2c-1.6,1.4-3.2,2.9-5,3.9
		c-1.5,0.8-3.2,1.1-4.9,1.6c-2.9,0.8-5.8,1.5-8.7,2.2c-15.8,3.8-31.5,7.5-47.3,11.2c-1,0.2-2-0.1-3.2-0.2c-0.3,0.3-0.7,0.8-1.4,1.7
		c-0.3-1.1-0.4-1.7-0.5-2.2c-2,0.4-3.8,0.7-5.7,1.1c0.6,0.4,1.2,0.7,2,1.3c-0.7,0.3-1,0.6-1.4,0.7c-4.7,1.1-9.4,2.3-14.2,3.2
		c-2.1,0.4-1.3,1.1-0.6,2c2.1,2.7,4.3,5.3,6.4,8c0.5,0.6,0.5,1.5,0.8,2.2c1.1,0.7,2.3,1.4,3.2,2.3c13.9,15.1,29.7,27.6,47.7,37.6
		c27.3,15.1,56.6,22.9,87.8,23.3c16.3,0.2,32.4-1.7,48.2-5.9c17.2-4.5,33.4-11.3,48.8-20.2c4.3-2.5,7.8-6.9,14-6.8
		c-0.9-0.4-1.4-0.6-1.9-0.8c1.3-1.1,2.6-2.1,3.8-3.2c6.5-5.6,13.1-11.3,19.7-16.9c0.9-0.8,2.2-1.2,3.3-1.7c0.2-0.5,0.3-1.3,0.7-1.9
		c1.2-1.7,2.6-3.2,4-4.9c4.5-5.4,9-10.8,13.1-16.6c15.2-21.9,25.5-45.8,30.5-72c0.1-0.7,0.1-1.4,0.2-2.3c-0.7,0.1-1.1,0.1-1.6,0.2
		c-10.9,2.6-21.8,5.1-32.7,7.7c-16.6,3.9-33.2,7.9-49.8,11.8c-1.7,0.4-2.8,1-3.7,2.6c-9.6,16.7-22.9,29.9-39.5,39.7
		c-2,1.2-4,2.7-6.1,1c-0.9,1.2-1.4,2.9-2.4,3.3c-4.6,2-9.4,3.8-14.1,5.6c-1.8,0.7-3.5,1.4-4.5,0c-0.7,0.7-1.1,1.5-1.7,1.6
		c-2.3,0.7-4.5,1.2-6.9,1.6c-20.1,3.4-39.8,1.9-58.9-5.6c-2.7-1.1-6.5-1.1-7.6-5c0-0.2-0.6-0.4-0.9-0.3c-2.8,0.8-4.7-0.7-6.6-2.2
		c0-0.9,0-1.7,0-3.2c-0.8,1.2-1.2,1.7-1.7,2.4c-0.4-0.9-0.7-1.5-1-2c-0.1,0.2-0.2,0.4-0.3,0.6c-1.2-0.4-2.4-0.9-3.6-1.3
		c3.3-0.6,7-2.6,8.3,2.5c0.7-0.3,1.2-0.6,2-1c0,1.3,0,2.2,0,3.4c0.8-0.7,1.4-1.3,2.1-1.9c0.2,0.7,0.3,1.2,0.3,1.2
		c1.7,0.4,3.1,0.4,4.2,0.9c14.2,6.5,29.1,9.9,44.6,9.7c10.9-0.1,21.8-1.3,32.2-5.2c3.5-1.3,7-2.4,10.4-4c14.5-6.7,27.2-16,37.5-28.4
		c3.6-4.3,6.7-8.9,10-13.4c-0.2-0.2-0.4-0.4-0.5-0.6c-6.7,1.5-13.3,3-20,4.6s-13.4,3.2-20.1,4.8c-6.7,1.6-13.4,3.4-20.1,4.7
		c-6.7,1.3-13.1,4.3-20.1,3.8c-6,3.6-12.9,3.9-19.4,5.4s-12.8,4.5-19.7,3.9c-6,3.5-12.9,3.3-19.2,5.6c0-0.4,0-0.7,0.1-1.1
		C220.7,294.1,219.7,293.8,218.7,293.4z M396.2,353.8c-2.5,2-4.6,4-6.9,5.6c-4.3,3.1-8.8,6-13.2,8.9c-0.8,0.5-1.8,0.6-2.6,1.1
		c-1.8,1.3-3.2,3.1-5.1,4.3c-28.8,17.2-60.1,26-93.5,27c-24.9,0.8-49.1-3.5-72.4-12.3c-24.4-9.2-46-22.8-65-40.7
		c-3.7-3.5-7.1-7.2-10.6-10.8c0.1-0.1,0.2-0.3,0.3-0.4c0.8,0.1,1.5,0.2,2.7,0.4c-0.2-0.9-0.4-1.4-0.5-1.8c-0.5,0.3-0.9,0.9-1.2,0.8
		c-1.7-0.4-2.9-1.2-4.1-2.9c-1.7-2.3-4.4-3.9-4.5-6.4c-3-1.6-3.7-4.5-5.6-6c-1.1,0.4-2.2,0.8-3.4,1.3c0.1,0.3,0.2,0.7,0.4,0.9
		c3.5,4.4,6.8,9,10.5,13.2c7.2,8.4,15,16.1,23.6,23.2c16.5,13.6,34.8,24.3,54.7,32c19.7,7.6,40.2,11.8,61.3,13
		c14.2,0.8,28.4-0.3,42.4-2.6c12.3-2.1,24.4-5.4,36-9.9c14.8-5.8,29-12.8,42-22.1c10.3-7.4,20.3-15.2,28.9-24.6
		c1.1-1.2,2.3-0.8,3.5-0.5c0.4,0.1,0.9,0.2,1.3,0.4c-0.2-0.5-0.3-1.1-0.7-1.4c-0.4-0.3-1.1-0.3-2-0.6
		c27.6-29.9,44.6-64.6,51.2-104.4c-3.4-0.5-3.9,1.5-4.3,3.9c-2.8,15.6-7.4,30.7-14,45.1c-5.4,11.8-11.9,22.9-19.4,33.4
		s-16,20-25.4,28.7c-0.9,0.9-2.4,1.2-3.5,1.9c-0.8,0.5-1.4,1.2-2,1.8C395.3,353.4,395.6,353.5,396.2,353.8z M407.6,358.6
		c0-0.3,0.1-0.5,0.1-0.8c-2.4,0.7-3.1-0.2-2.4-2.3c0.2-0.6,0.3-1.2,0.2-1.7c-0.1-0.4-0.7-0.6-1.5-1.3c0,2.3,0,3.8,0,5.5
		c-0.5,0-1.3,0.1-2.1,0.2c0,0.1,0,0.3,0.1,0.4C403.8,358.6,405.7,358.6,407.6,358.6z M404.4,363c1.8,1.6,1.9,1.5,3.1-2.2
		c-1-0.1-1.9-0.3-2.9-0.4c0,0.2,0.1,0.3,0.1,0.5c0.5,0.3,1,0.7,1.5,1C405.6,362.3,405.1,362.6,404.4,363z M189.9,298
		c-0.1,1-0.3,2.1-0.4,2.9c1.4-0.1,2.5-0.3,3.4-0.3C192.1,299.8,191.2,299,189.9,298z M109.1,317.6c0,0.3,0,0.5,0,0.8
		c2,0,4.1,0,6.1,0c0-0.3,0-0.5,0-0.8C113.1,317.6,111.1,317.6,109.1,317.6z"/>
	<path class="st0" d="M384.7,110.8c-1.5,2.8-4.6,2.7-7,2.9s-4.3,1.5-6.7,1.6c-1.9,0.1-3.8,0.9-5.7,1.4c-0.3-0.5-0.6-0.9-0.9-1.4
		c-0.5,0.7-0.8,1.3-1.1,1.7c-1,0.5-1.8-3-2.8,0.4c-0.4,1.2-3.8,1.6-5.9,2.1c-12.8,3-25.6,6-38.4,9c-4.9,1.1-9.7,2.3-14.6,3.4
		c-0.1-0.3-0.2-0.6-0.3-1c1.9-0.5,3.8-1,5.7-1.5c0-0.1,0.1-0.3,0.1-0.4c-1.9-0.2-3.9-0.4-6.7-0.6c1.1-0.8,1.7-1.2,2.7-2
		c-2.3,0-4.1,0-6,0c0-0.1-0.1-0.2-0.1-0.3c9.6-2.3,19.1-4.6,29.5-7.1c-3-1.8-5.4-3.2-7.6-4.5c0.3-1.2,0.6-2.3,0.9-3.6
		c3.5,2.1,7.2,4.3,10.9,6.4c0.7,0.4,1.8,0.3,2.7,0.1c4-0.9,7.9-1.9,11.9-2.8c5.3-1.2,10.7-2.3,15.9-3.7c3.1-0.8,6.3-0.3,9.4-1.5
		c4.4-1.7,9-2.9,13.6-4c9.2-2.2,18.3-4.3,27.5-6.4c1-0.2,2.1,0.5,3.2,0.5c1.2,0,2.4-0.3,3.5-1c-1,0.1-2,0.2-3,0.3
		c0-0.3-0.1-0.5-0.1-0.8c1.6-0.2,3.3-0.3,4.9-0.5c0.1-0.1,0.2-0.3,0.3-0.4c-0.7-0.2-1.6-0.3-2.1-0.8c-1.1-1-2.1-2.1-2.9-3.2
		c-5.5-7.5-12-14-18.8-20.3c-24.4-22.6-52.8-37.7-85.2-45.2c-19-4.4-38.2-5.9-57.6-4c-13.1,1.3-25.9,3.8-38.5,7.5
		c-1,0.3-2.1,0.1-3.1,0.4c-0.7,0.2-1.2,1.1-1.9,1.3c-16.6,5.7-32.1,13.5-46.4,23.6c-2.9,2-5.7,4.3-8.6,6.4c-1.5,1.1-3.1,2.1-4.8,3.2
		c-0.1-0.2-0.4-0.9-0.7-1.7c-0.3,0.4-0.5,0.6-0.5,0.7c1.1,2-0.3,3.1-1.5,4.2c-26.9,23.8-45.4,53-55.6,87.5
		c-1.8,6.1-3.1,12.3-4.8,19.1c1.6-0.3,2.6-0.5,3.7-0.7c10.3-2.5,20.6-5,31-7.4c4.4-1,8.9-1.8,13.3-2.9c0.9-0.2,2.4,1.1,2.7-1
		c0.7,0.2,1.3,0.4,2.3,0.7c0.3-0.5,0.6-3,1.9-0.7c1.4-0.7,2.7-1.6,4.1-1.9c8.8-2.2,17.7-4.2,26.5-6.5c1.2-0.3,2.6-1.3,3.2-2.4
		c4.7-7.7,10.1-14.9,16.4-21.4c12.1-12.3,26.4-21.4,42.8-26.8c5.9-1.9,12.1-2.8,18.2-4.1c3.2-0.7,6.4-1.2,9.8-1.9
		c-0.1,1.2-0.2,1.9-0.3,2.6c0.2,0.1,0.4,0.1,0.7,0.2c0.3-0.8,0.6-1.6,0.8-2.1c2.3,0,4.5,0,6.6,0c0,0.3,0,0.6,0,0.9
		c-0.9,0-1.9,0-2.9,0c-0.1,0.6-0.3,1.3-0.4,2c-0.5,0.1-1,0.1-1.5,0.1c-2.6,0.1-5.3,0.3-7.9,0.4c-0.6,0-1.2-0.3-1.8-0.5
		c0.6-0.2,1.2-0.4,1.8-0.7c0.2-0.1,0.4-0.2,0.6-0.4c-2.1-1.2-3.3-0.4-3.7,2.2c-32.3,5.4-57.2,21.9-74.5,50c6-1.4,12-2.8,18-4.3
		c12.4-2.9,24.8-5.9,37.2-8.8c0.8-0.2,1.6,0,2.1,0c7.4-2.7,15.2-3.7,23-5.3c-0.6,0.2-1.2,0.4-1.8,0.6c0.2,0.3,0.4,0.6,0.6,0.9
		c0.5-0.2,1.5-0.3,1.6-0.6c0.4-2,2.1-2.1,3.6-2.5c3-0.7,5.9-1.5,8.9-2.1c0.7-0.2,1.6-0.5,2.2-0.2c2.6,1.1,4.8,0.5,6.8-1.9
		c0.1,0.8,0.2,1.3,0.3,2.1c1.5-1.9,2.8-3.7,5.6-2.5c1.6-2.4,6.2-3,9.8-0.8c-0.9,1.6-1.8,3.2-2.8,4.7c-0.3,0.4-1,0.7-1.5,0.7
		c-4.4-0.2-8,2.7-12.3,2.9c-0.9,0-1.9-0.1-2.8-0.2c0.1-0.9,0.2-1.8,0.4-2.9c-0.9,0.3-1.9,0.7-2.9,1.1c0.7,0.8,1.4,1.5,2.4,2.7
		c-4.6,1.2-8.7,2.3-12.9,3.3c-8.3,2-16.7,3.9-25,5.9c-25.5,6-51,12.1-76.4,18.1c-3.8,0.9-7.7,1.4-11.5,2.2c-2.5,0.6-4.8,1.6-7.3,2.2
		c-11.9,2.9-23.8,5.6-35.8,8.4c-7.4,1.7-14.7,3.5-22,5.3c-9.6,2.3-19.1,4.6-28.7,6.8c-7.7,1.8-15.5,3.7-23.3,5.3
		c-1.8,0.4-3.5,1.1-5.3,1.5c-2.2,0.5-4.5,1-6.7,1.6c-2.1,0.5-4.3,1-6.4,1.6c-2.2,0.5-4.5,1-6.7,1.5c-2.1,0.5-4.3,1.1-6.4,1.5
		c-3.4,0.8-3.4,0.8-4.3-2.5c-0.2-0.9-0.4-1.8-0.6-3.1c1.8-0.5,3.6-1,5.3-1.5c3.5-0.8,6.9-1.7,10.4-2.4c1-0.2,2.2-0.1,3.2-0.1
		c0.6,0,1.2,0,1.7-0.1c3.8-1.2,7.6-2.6,11.5-3.6c10-2.5,20.1-4.8,30.1-7.3c0.9-0.2,1.8-1.9,2-3c1.6-7.6,2.7-15.4,4.7-23
		c8.1-30.6,22.2-58.2,43-82.1c4.1-4.7,8.4-9.2,12.8-13.7c0.5-0.5,1.5-0.4,2.3-0.5c0.2,0,0.5,0.2,0.7,0.1c1.4-0.3,2.8-0.6,4.5-0.9
		c-1.8-0.3-3.5-0.5-5.8-0.8c4.3-3.8,8.1-7.2,11.9-10.6c3.1,2.6,3.1,2.6,3.8,0.1c-0.9,0.1-1.8,0.1-3.1,0.2c1.7-2.3,3-3.9,5.5-2.5
		c-0.2,0.3-0.5,0.6-0.9,1.2c1.2-0.2,2-0.3,2.7-0.4c0.1,0.2,0.2,0.3,0.3,0.5c-0.6,0.6-1.1,1.3-2.1,2.4c4,0,7.5,0,10.5,0
		c0.5-1.3,0.9-2.3,1.3-3.3c-1.3-0.4-3.8,1-3.6-2.5c-0.3,3.5-2.6,2.8-4.5,2.7c-1.2,0-2.5-0.3-3.7-0.5c0.4-3.6,3.1-4.9,5.9-6.5
		c4.9-2.8,9.3-6.7,14.2-9.6c14.4-8.7,29.7-15.3,45.9-20.1c22.7-6.8,46-9.8,69.7-8.6c32.6,1.6,63.2,10.2,91.8,26.2
		c13.9,7.8,26.8,16.9,38.5,27.6c3.1,2.8,6.1,5.7,9.1,8.7c0.8,0.8,1.3,1.9,2.1,2.8c0.6,0.7,1.3,1.4,2.2,2.3c-0.4,0.2-1,0.5-1.6,0.8
		c3.2-0.9,4.4,1.5,5.9,3.3c4.5,5.7,9,11.5,13.5,17.2c0.5,0.7,0.8,1.6,1.3,2.6c6.1-1.5,12.3-3,18.6-4.4c11.7-2.8,23.5-5.6,35.2-8.4
		c2.8-0.7,5.7-1.3,8.5-2c1.5-0.4,2.2,0,2.5,1.5c0.2,1.2,0.8,2.3,0.7,3.4c0,0.6-1,1.4-1.7,1.6c-11.3,2.8-22.6,5.4-34,8.1
		c-7.7,1.8-15.3,3.6-23,5.4c-6.3,1.5-12.6,3-18.9,4.3c-1,0.2-2.1-0.3-3.3-0.4c0,0.2,0.1,0.7,0.1,1.1c-8.5,2.1-16.9,4.2-25.4,6.3
		c-4.1,1-8.3,1.9-12.4,2.9c-1.2,0.3-2.4,0.6-3.7,0.7C385.4,111.8,385,111.2,384.7,110.8c-0.1-2-1.3-3.2-2.7-2.8
		c-0.9,0.2-1.8,0.3-2.6,0.5c-0.3,0.1-0.4,0.5-0.7,1C383.4,109,383.4,109,384.7,110.8z M399.8,59.1c0-0.2,0.1-0.4,0.1-0.6
		c-0.7-0.2-1.4-0.6-2.1-0.6c-2.2,0.2-3.6-1.1-5.2-2.3c-6.2-4.5-12.3-9.2-18.7-13.2c-24.9-15.6-52-25.2-81.3-28.6
		c-21.3-2.5-42.4-1.5-63.4,3c-35.2,7.6-66,23.6-92.5,48.1c-0.8,0.7-2.1,0.9-2.8,1.7c-1.3,1.4-2.2,3.2-3.6,4.6
		c-22.1,22.7-37.9,49-47.3,79.2c-2.1,6.7-3.6,13.6-5.3,20.5c-0.6,2.3-0.9,4.8-1.3,7.3c2.3-0.2,3.7-0.5,4.1-2.9
		c2-12.5,5.5-24.7,10.2-36.5c8.7-22.2,20.9-42.1,37-59.7c20.3-22.3,44.5-39,72.7-49.9c14.2-5.5,28.8-9.2,43.8-11.3
		c18.2-2.5,36.4-2.4,54.6,0.3c19,2.8,37.2,8.5,54.6,16.9c17,8.2,32.6,18.7,46.5,31.5c4.1,3.7,8.1,7.6,11.8,11.7
		c4.3,4.8,8.4,9.7,12.2,14.9c1.7,2.3,3.6,3,5.6,0.8c-1.1-1.3-2.2-2.6-3.3-3.9c-7.8-8.6-15.7-17.2-23.5-25.9
		c-0.5-0.6-0.7-1.6-0.9-2.2c-2.5,0.8-3.1-1.7-4.4-3C398.3,58.9,399,59,399.8,59.1z M144.7,49.7c-1.1,0.1-2.1,0.3-2.8,0.4
		c0.9,0.8,1.6,1.5,2.1,2c-1,0.7-1.7,1.1-2.4,1.6c1.1,0,2.3,0,3.5,0C145,52.4,144.9,51.3,144.7,49.7z M137.5,61.1
		c-1-0.3-2.1-0.5-3.4-0.9c0.6,2.1-0.1,3.1-2.1,3.4c0.9,0.3,1.8,0.5,2.8,0.8C134.5,62.2,135,60.8,137.5,61.1z M124,63.2
		c-0.1,0.2-0.2,0.3-0.2,0.5c1.9,0.2,3.9,0.4,6.2,0.6c-1.3-0.9-2.1-1.5-2.5-1.8C126.1,62.8,125,63,124,63.2z M372.9,114.3
		c0.1-0.2,0.1-0.4,0.2-0.6c-0.4-0.8-0.8-1.7-1.3-2.7c-0.5,0.2-1.4,0.5-2.7,1C370.7,113,371.8,113.7,372.9,114.3z"/>
	<path class="st1" d="M453.8,200.3c1.3-0.1,2.5-0.3,3.8-0.4c-0.1-0.2-0.2-0.3-0.2-0.3c-3.5-0.1-5.2-1.5-4.5-5.3
		c0.2-0.9-1-2.2-1.6-3.5c1.3-0.3,2.3-0.6,3.3-0.9c-0.1,0.8-0.3,1.5-0.5,2.6c1,0.1,2,0.2,3.1,0.4c0.1-0.3,0.1-0.5,0.2-0.8
		c-0.6-0.3-1.2-0.5-2.1-1c0.8-0.6,1.4-1.1,2.2-1.7c-2-2-4.1,0.3-6.3-0.4c-0.1-0.3-0.4-0.9-0.5-1.4c-3.5-14.7-7-29.4-10.5-44.1
		c-1.9-7.9-3.7-15.8-5.6-23.7c-0.5-2.2-0.1-3.2,2.3-3.7c10.7-2.5,21.4-5.3,32.2-7.9c7.2-1.7,14.5-2.3,21.8-0.9
		c7.9,1.5,13.4,6.4,17,13.4c4.7,9.3,6.9,19.1,5.8,29.6c-0.7,6.7-3.7,12.3-8.7,16.8c-0.4,0.4-0.9,0.8-1.9,1.7
		c10.3,9.8,20.6,19.6,30.8,29.3c-0.2,0.3-0.4,0.7-0.7,1c-3.2,0.8-6.3,1.6-9.5,2.4c-4.1,1-8.3,2-12.4,2.8c-0.7,0.1-1.7,0.2-2.1-0.2
		c-3.6-3.5-7.1-7.1-10.5-10.7c-4.4-4.6-8.9-9.2-13.2-13.9c-2.5-2.7-5.2-1.6-8-1.1c-1.1,0.2-2.3,0-3.4,0.4c-1.4,0.4-2.8,1.1-4.5,1.9
		c0.8,3.9,1.5,7.9,2.5,11.8c0.9,3.9,2.1,7.8,3.1,11.7c-0.9,0.5-1.8,0.9-2.6,1.3c0,0.3,0,0.7,0,1c2.6-1.7,3.3-0.4,3.6,1.5
		c0.1,0.6,0.2,1.2,0.4,1.7c0.7,2,0.3,3-2.1,3.5c-4.5,0.8-8.9,2.1-13.4,3.1c-1.4,0.3-3.7,2.2-3.6-1.8c0.1-2.4-1.3-4.8-2-7.2
		C455,205,454.4,202.7,453.8,200.3z M456.9,158.2c0,0.2-0.1,0.3-0.1,0.5c0.8,0.4,1.5,1.1,2.3,1.1c3.7-0.1,7.3,1.4,11.1,0.1
		c5.4-1.8,11-2.9,16.3-4.9c4.6-1.7,7.1-5.4,6.7-10.4c-0.3-3.7-0.9-7.4-2.1-10.9c-2-5.4-5.4-7.7-11.1-6.9c-7.2,1-14.3,3-21.4,4.5
		c-0.1,0-0.2,0.2-0.4,0.5c2.1,8.9,4.2,18,6.2,26.9C461.7,158.6,459.3,158.4,456.9,158.2z M460.1,200.6c1-3.6,1-3.6-2.1-4.1
		c0.1-0.7,0.2-1.3,0.3-2.1c-1.2,0.3-2.3,0.5-4,0.9c1.4,0.2,2,0.3,3.4,0.5c-1.5,0.8-2.2,1.2-3.6,2C456.8,197.9,460,196.1,460.1,200.6
		z M465.5,181.9c0.1,0.1,0.1,0.3,0.2,0.4c0.8,0,1.6,0,3.2,0c-0.6-1.5-0.9-2.7-1.5-3.8c-0.2-0.3-1.4,0.2-2.7,0.4
		c1.2,1,1.8,1.5,2.5,2.1C466.5,181.4,466,181.6,465.5,181.9z M465.2,186.2c0.9-0.3,1.7-0.5,2.5-0.9c0.4-0.2,0.6-0.6,0.9-1
		c-0.4-0.3-0.7-0.8-1.1-0.8c-1.1,0-2.1,0.2-3.2,0.3C464.7,184.7,465,185.7,465.2,186.2z M496.4,167.2c0.1-0.2,0.3-0.4,0.4-0.6
		c-1.4-1.3-2.8-2.5-4.2-3.8c-0.1,0.2-0.3,0.3-0.4,0.5C493.6,164.6,495,165.9,496.4,167.2z"/>
	<path class="st1" d="M275.6,250.9c1.3-0.1,2.1-0.2,3-0.3c-2.7,0.4-3.4-1-3.9-3.3c-5.1-22-10.3-44-15.6-66c-1.5-6.4-2.9-12.7-4.6-19
		c-0.6-2.3-0.4-3.7,2.5-3.6c0.2,0.4,0.4,0.9,0.5,1c1-0.7,1.9-1.7,2.9-1.9c7.3-1.9,14.7-3.6,22-5.3c4.4-1,8.7-2.5,13.2-2.8
		c3.2-0.3,5.8-2.1,8.9-2.5c3.3-0.4,6.5-1.3,9.7-2.2c1.8-0.5,2.6-0.1,3,1.8c1.2,5.8,2.7,11.6,4.1,17.7c-5.2,1.2-10.3,2.5-15.4,3.7
		c-8.6,2-17.2,4-25.8,6.1c-0.7,0.2-1.7,1.2-1.6,1.6c1.4,6.4,3,12.7,4.6,19.3c5.1-1.2,9.9-2.3,14.8-3.4c7.2-1.7,14.4-3.4,21.6-5.2
		c1.9-0.5,2.7,0,3.2,1.9c1.1,5.5,2.5,10.9,3.8,16.7c-4.6,1.1-8.9,2.2-13.3,3.2c-7.6,1.8-15.2,3.7-22.8,5.3c-2.2,0.5-2.7,1.4-2.1,3.5
		c1.3,5.1,2.6,10.2,3.6,15.4c0.4,2,1.2,2.4,3.1,2c13-3.1,26-6.1,38.9-9.2c1-0.2,2-0.5,3.2-0.7c1.3,5.5,2.6,10.8,3.9,16.2
		c0.9,3.7,0.8,3.7-2.9,4.6c-13.6,3.2-27.1,6.5-40.7,9.6c-4,0.9-8.1,1.5-12.1,2.4c-2.4,0.6-4.8,1.5-7.6,2.4
		C277.1,256.8,276.4,254,275.6,250.9z"/>
	<path class="st1" d="M411.4,171.2c-0.7,0-1.1,0-1.6,0c0.1,0.2,0.1,0.5,0.2,0.5c1.8,0.6,3.1,1.6,4.1,3.4c2.3,4.1,4.9,8,7.6,11.9
		c1.8,2.6,3.8,4.9,5.6,7.5c0.4,0.5,0.3,1.4,0.5,2.8c-0.2-0.1,0.3,0,0.6,0.3c0.6,0.7,2.2,0.7,1.2,2.5c-0.5,1,0.1,2.5,0.7,3.8
		c-0.1-0.8-0.3-1.6-0.4-2.5c0-0.4,0-0.9,0.2-1.1s0.9-0.1,1.1,0.1c4.4,6.5,8.8,13,13.4,19.8c-5.7,1.4-11,2.6-16.2,3.9
		c-4.5,1-4.5,1-7.2-2.9c-2.5-3.7-4.9-7.3-7.3-11c-0.4-0.6-0.5-1.5-0.8-2.2c0.8-0.1,1.5-0.2,2.3-0.3c0.4-0.1,0.8-0.2,1.1-0.6
		c-1.4,0-2.9,0-4.6,0c-0.7-1.8-2.2-1.5-4-1.1c-8.7,2.1-17.5,4.3-26.3,6.3c-2.2,0.5-4.6,0.3-6.6,0.4c-0.2-0.1,0.3,0.1,0.7,0.3
		c-3.6,4-1.4,8.9-3.2,13.2c-0.4-0.1-1.1-0.1-2.1-0.3c2.1,1.3,2.5,4.1,1.4,6c-0.3,0.6-0.8,1.4-0.6,2c0.4,2.2,1.1,3.6-2.5,4.1
		c-5,0.6-9.9,2.6-14.8,4c-0.9,0.2-1.8,0.3-3.1,0.5c0.5-4.6,1-8.9,1.5-13.2c0.9-7.4,1.9-14.7,2.8-22.1c2.6-20.5,5.1-41.1,7.7-61.6
		c0.5-3.6,0.9-7.2,1.5-10.8c0.1-0.7,0.8-1.6,1.3-1.7c5.2-1.3,10.4-2.5,15.6-3.8c1.5-0.4,2.3,0,3.1,1.2c4.7,7.1,9.4,14.1,14.2,21.2
		c1.9,2.9,4.2,5.6,5.6,8.7C406.1,164.1,409.8,166.7,411.4,171.2z M381.7,161.8c-0.2,0-0.4,0.1-0.7,0.1c-1.3,10-2.5,20-3.9,30.5
		c7.4-1.8,14.3-3.4,21.6-5.1C392.9,178.5,387.3,170.1,381.7,161.8z M369.8,218.1c0-0.3-0.1-0.5-0.1-0.8c-1.2,0-2.5,0-3.9,0
		c0.4,1.3,0.7,2.2,1,3.1c0.1,0,0.3-0.1,0.4-0.1c0-0.6,0-1.1,0-1.6C368.2,218.5,369,218.3,369.8,218.1z M409.3,183.5
		c1,2.1,2.6,2.4,4.9,0.6C412.4,183.9,410.9,183.7,409.3,183.5z M414.8,180.2c-0.3,0.2-0.5,0.4-0.8,0.6c0.7,0.7,1.4,1.4,2.4,2.4
		c0,0.1-0.2,0.8-0.4,1.5c0.7,0,1.2,0,2.5,0C417.1,183,415.9,181.6,414.8,180.2z"/>
	<path class="st1" d="M77.3,217.2c-1.5,0.1-2.6,0.2-3.7,0.2c0.1,0.3,0.1,0.6,0.2,0.9c0.6-0.2,1.1-0.5,1.7-0.8c0,0.8,0,1.5,0,1.9
		c-1.1,0.7-2,1.2-3.4,2.1c0-1.6-0.3-3.2,0.1-4.7c1.6-5.6,3.6-10.9,8.7-14.4c1.3-0.9,2.7-1.7,4.1-2.5c0.8-0.5,2.3-0.3,1.9-2
		c-0.1-0.3,0.8-0.8,1.3-1.1c3.5-1.5,6.8-3.3,10.9-2.6c0.9,0.2,2-1.1,3.1-1.2c12.3-1.3,21.7,3.9,29,13.5c8.4,11,12.4,23.7,14.9,37
		c2.2,11.7,2.6,23.3-1.6,34.7c-3.1,8.3-8.5,14.6-17.2,17.5c-3.2,1.1-6.4,2-9.7,2.8c-0.9,0.2-1.9-0.3-2.9-0.5c-0.2,0.2-0.6,0.9-1,1
		c-3.5,0.5-8-0.6-8.9-2c-3.1,0.8-3.1,0.8-2.6-2.2c-0.7,0.8-1.1,1.3-1.5,1.8c-3.6-1.8-7.9-2.8-8.8-6.8c-1.2-0.5-2-0.6-2.4-1
		c-4.4-4.7-7.8-10-10.4-15.9c-3.8-8.5-6.4-17.4-7.8-26.7c-0.6-3.8-0.9-7.6-1.1-11.4c-0.1-2.5,0.2-5,0.3-7.7c1,0,1.8,0.1,2.8,0.1
		c0.1,1,0.2,2,0.2,3.1c1.3-0.5-0.1-4.8,3.4-2.7c-0.8-0.5-1.6-0.9-2.8-1.6c0.8-0.2,1.2-0.3,1.5-0.4c0.6-0.1,1.1-0.2,1.6-0.4
		c0.1,0,0-0.8,0-0.8c-0.6-0.1-1.2-0.2-1.9-0.2c-1.1,0-2.2,0.2-3.4,0.3C73.5,221.8,76.9,221.1,77.3,217.2z M84,207.8
		c-0.3,0.6-0.5,1.3-0.9,1.7c-1.1,0.9-2.2,1.7-3.4,2.5c1.2,1.2,1.2,1.2,6.8,0.4c0.2-0.9,0.4-1.8,0.6-3c-0.9,0.3-1.6,0.6-2.3,0.9
		C84.5,209.4,84.3,208.6,84,207.8c1.5,0.5,3.8-1.3,5.3,1.4c0.1-1.5,0.2-3.1,0.2-4.6c-0.1,0-0.3,0-0.4,0c-0.2,0.7-0.4,1.4-0.6,1.9
		c-1.3,0.3-2.4,0.5-4.3,0.9c1.2-1.9,2.1-3.3,3.5-5.4C83,204.3,83,204.3,84,207.8z M86.1,237.5c0.1,0,0.3,0,0.4,0
		c0.4-0.7,0.7-1.4,1.2-2c0.1-0.1,0.9,0.3,1.3,0.5c-0.9,1.7,1,2.6,1.3,4.1c1.2,6.7,2.1,13.6,4.4,20c1.8,5.2,5.1,9.9,8.2,14.5
		c3.5,5.1,9.9,6.7,15.6,4.4c2.2-0.9,4.8-2.2,5.8-4c1.8-3.4,2.5-7.3,3.6-11c0.4-1.3,0.8-2.7,1.2-4.1c-1.5-0.7-1.6-3.8,0.2-5.2
		c-2.8-2.5-1.5-6.1-2.9-9.3c1.6,0.2,2.7,0.3,3.7,0.4c0-0.2,0.1-0.4,0.1-0.7c-1.3-0.2-2.5-0.5-3.6-0.7c-1.2-4-2.1-7.9-3.5-11.6
		s-3.2-7.3-5-10.8c-2-3.6-4.6-6.9-8.4-8.6c-3.1-1.3-6.4-2.2-9.7-0.5c-0.3-1-0.5-1.7-0.8-2.5c0.6,3.6-2.8,3.9-4.4,5.5
		c-1.5,1.6-2.4,4.2-5.3,3.2c0.7,0.9,1.8,1.7,1.7,2.4c-0.3,3-0.9,6-1.4,9c-0.2,1.1-0.5,2.1-0.8,3.7c-0.4-0.1-1.3-0.2-2.6-0.4
		C86.3,234.7,86.2,236.1,86.1,237.5z M90.5,210.8c1-0.2,2.6-0.5,4.4-0.9c-0.4-0.4-0.5-0.7-0.7-0.7c-2.5-0.4-3.4-1.5-1.6-3.8
		c0.2-0.3-0.2-1-0.4-1.6c-0.3,0-0.6,0-0.9,0C91,206.1,90.8,208.3,90.5,210.8z M84,222.9c-0.6,0.4-1.6,1.3-1.7,1.2
		c-2-1.5-2.4,0.5-3.3,1.5c2.3-0.3,4.6-0.6,7.2-0.9C85.1,223.7,84.4,223.2,84,222.9z M84.6,216.8c1.8,0.2,4.1,1.9,5-1.2
		c0.5-1.5-0.5-3.2-1.6-3.2c0.3,0.9,0.6,1.9,0.9,3.2C87.4,216,86,216.4,84.6,216.8z M81.2,218.5c1.1-1.5,1.7-2.4,2.4-3.3
		c-1-0.1-2-0.1-3-0.2C80.8,216.1,81,217,81.2,218.5z"/>
	<path class="st1" d="M162.2,181c6.8-1.6,13.1-3.2,19.5-4.5c0.8-0.2,2.1,0.5,2.7,1.2c8.2,9.7,16.3,19.4,24.4,29.1
		c0.5,0.6,0.8,1.3,1.2,1.9c0.3-0.2,0.5-0.3,0.8-0.5c1.2-4.8,2.3-9.7,3.5-14.5c1.9-8.1,3.8-16.2,5.8-24.3c0.2-1,1.2-2.2,2-2.4
		c6.1-1.6,12.2-3,18.3-4.4c0.2-0.1,0.5,0.1,1.1,0.2c-0.6,2.8-1.2,5.6-1.8,8.4c-2.9,12.7-5.9,25.5-8.8,38.2c-0.4,1.9-0.7,3.8-1.3,5.7
		c-0.3,0.8-1,1.5-1.5,2.1c0,0.8,0.1,1.7,0,2.5c-0.5,4.3-1.9,8.7-1.3,12.8c1.5,9.2,4.1,18.2,6.1,27.3c0.2,1-0.1,2.1,0.1,3.1
		c0.1,0.6,0.7,1.2,1.2,2c-2.9,0.1-1.2,2-1.6,3.2c-0.3,0.9-0.4,2.2-1,2.6c-0.7,0.4-1.9,0.1-2.9-0.1c-0.5-0.1-0.9-0.4-0.7-0.3
		c-1.1,0.9-1.8,1.8-2.7,2c-2.2,0.7-4.4,1.2-6.7,1.6c-0.9,0.2-2.5,0.3-2.7-0.1c-0.5-1.1-0.5-2.5-0.7-4c-1.9-4.3-3.3-8.9-2.4-14.3
		c-0.5,0.1-0.9,0.2-1.4,0.3c-0.3-1.4-0.6-2.9-0.9-4.4c1.1-0.3,2-0.6,2.9-0.9c0-0.2,0-0.4,0-0.6c-1.1-0.3-2.3-0.5-3.7-0.8
		c-0.8-3.6-1.6-7.5-2.5-11.3c-1.1-4.5-4.7-7.4-7.5-10.7c-11.9-14.5-23.9-28.9-35.9-43.4C163.4,182.8,163,182.1,162.2,181z
		 M224.6,253.7c0,1.4,1.1,1.7,2.5,1.2c2.8-1,0.4-2.8,0.8-3.9C226.9,251.7,226,252.5,224.6,253.7z M222.5,255c0,3.9,0.7,4.4,4.7,2.9
		C225.6,257,224.1,256,222.5,255z M230.4,262.8c-0.6-0.2-1.2-0.5-2.2-0.9c1-0.7,1.5-1,2.1-1.4c0-0.2-0.1-0.3-0.1-0.5
		c-2.6,0-5.1,0-8,0c1.8,2.1,6.2-1.7,6.1,3.2C229,263.1,229.7,262.9,230.4,262.8z"/>
	<path class="st1" d="M9.3,237.3c-1.4-6.5-2.7-12.7-4.1-19.2c6.8-1.6,13.5-3.1,20.1-4.7c3.9-0.9,7.8-1.8,11.7-2.8
		c2.9-0.8,3.3-0.6,3.5,2.5c0,0.2,0,0.5,0.1,0.7c0.7,2.9,0.7,2.9-2,3.7c0,0.1,0.1,0.4,0.1,0.4c3-0.3,3.8,1.4,4.3,3.9
		c0.6,3.5,1.7,6.9,2.4,10.4c2.6,12.5,6,24.7,8.8,37.1c2.9,12.7,6,25.3,8.9,38c0.2,0.9,0.4,1.8,0.6,2.9c-2.4,0.7-4.8,1.3-7.1,1.9
		c-3,0.8-6.1,1.3-9.1,2.2c-2,0.6-2.7-0.1-3.1-2c-3.1-13.4-6.2-26.8-9.4-40.2c-2.8-11.6-5.6-23.3-8.4-34.9c-0.1-0.3-0.2-0.7-0.2-1
		c0.3-2.8-1.5-2.6-3.3-2.2c-3.6,0.9-7.2,1.8-10.8,2.7C11.6,236.9,10.7,237.1,9.3,237.3z"/>
	<path class="st0" d="M128.3,153c-0.2-3-0.5-5.2-0.5-7.5c0-1.8-0.8-2.8-2.2-3.6c-2-1.1-3.9-2.3-6.5-3.8c2.7-1.1,4.8-2.1,7.1-2.9
		c1.6-0.6,2.5-1.5,2.7-3.2c0.3-2.2,1-4.4,1.7-7.3c1.9,2.2,3.3,3.9,4.7,5.7c1.2,1.6,2.6,2.1,4.6,1.8c2.1-0.4,4.2-0.4,6.9-0.7
		c-1.7,2.7-3.2,4.8-4.3,7.1c-0.4,0.9-0.5,2.2-0.2,3.1c0.8,2.2,1.8,4.3,3.1,7.2c-2.9-0.7-5.3-1.1-7.6-1.8c-1.6-0.5-2.7-0.1-3.9,1
		C132.3,149.7,130.5,151.1,128.3,153z"/>
	<path class="st0" d="M346.5,84c0.9,0,1.8,0.1,2.8,0.1c1.2-3.4,5-1.7,7.1-3.1c-2.6-3.3,1.5-6.1,0.3-9.6c3.3,2.1,4.5,4.1,3.6,5
		c3.9,2.8,8.2,2.2,13.1,1.5c-1.3,2-2,4.1-3.5,5.4c-1.9,1.5-1.6,2.9-0.9,4.7c0.8,2.2,1.7,4.4,2.5,6.5c-0.2,0.2-0.4,0.3-0.6,0.5
		c-0.8-0.4-1.5-1.1-2.4-1.3c-2-0.3-4.1-0.8-6-0.5c-2,0.3-3.8,1.4-5.7,2.2c-0.9,0.4-1.7,1-0.7,2.1c0.1,0.2-0.3,0.7-1,1
		c-0.2-2.5-0.3-5-0.7-7.4c-0.1-0.9-0.8-2-1.6-2.5c-2-1.4-4.1-2.6-6.2-3.9C346.5,84.5,346.5,84.2,346.5,84z"/>
	<path class="st0" d="M289.6,104.5c-4.2-0.7-8.4-1.4-13-2.2c0.1-0.4,0.2-1.1,0.3-1.7c1.5,0.9,2.2-2.7,3.9-0.6
		c0.1,0.1,0.2,0.2,0.4,0.2c2.2,0.1,4.3,0.1,6.5,0.3c1,0.1,1.9,0.7,2.8,1.6c0.9-0.1,1.8-0.2,2.7-0.3c0,0.3,0.1,0.6,0.1,0.9
		c-0.9,0.2-1.9,0.3-2.8,0.6C290.2,103.6,289.9,104.2,289.6,104.5L289.6,104.5z"/>
	<path class="st0" d="M289.6,104.5c1.9-0.5,4.5,0.5,4.7-2.7c6.3,0.8,6.8,1.3,6.1,5.1C296.8,106.1,293.2,105.3,289.6,104.5
		L289.6,104.5z"/>
	<path class="st0" d="M307.5,108.7c-2-0.4-4-0.7-6-1c0.2-1.3,0.3-2.2,0.4-3.2c2.7,0.1,5.2,0.7,6.9,3.1
		C308.5,107.9,308,108.3,307.5,108.7z"/>
	<path class="st0" d="M307.5,108.7c0.5-0.4,0.9-0.8,1.4-1.2c0.3-0.4,0.6-1.1,0.8-1.1c1,0.3,1.9,0.7,2.8,1.1c0.2,0.1,0.3,0.5,0.3,0.6
		c-0.2,0.3-0.4,0.6-0.7,0.9c-0.5,0.4-1,0.7-2,1.3c-0.5-0.2-1.8-0.7-3-1.3c0,0,0-0.2,0.1-0.2C307.2,108.8,307.4,108.8,307.5,108.7z"
		/>
	<path class="st0" d="M318.7,112.9c-0.9,0.1-1.9,0.2-2.8,0.3c0-0.2-0.1-0.4-0.1-0.6c0.4-0.3,0.8-0.5,1.2-0.8
		c-0.1-0.2-0.1-0.4-0.2-0.5c-1,0.2-2,0.5-3,0.7c-0.1-0.2-0.2-0.4-0.3-0.6c1-0.7,2.1-1.9,3.1-1.8c0.9,0,1.7,1.5,2.5,2.3
		C318.9,112.3,318.8,112.6,318.7,112.9z"/>
	<path class="st0" d="M391.5,277c2.7-1.1,4.9-2.1,7.1-2.9c1.5-0.5,2.2-1.3,2.5-2.8c0.5-2.4,1.1-4.8,1.8-7.7c1.9,2.2,3.3,4.2,5.1,5.9
		c0.8,0.8,2.1,1.4,3.2,1.4c2.4,0.1,4.8-0.3,7.9-0.5c-1.6,2.5-2.8,4.6-4.1,6.5c-0.9,1.2-1.1,2.3-0.3,3.7c1.1,2.1,1.9,4.3,3,7.1
		c-2.6-0.6-4.8-1-7-1.7c-1.7-0.5-3-0.5-4.3,0.8c-1.6,1.7-3.6,3-5.9,5c-0.1-2.8-0.3-4.9-0.3-7.1c0-1.8-0.5-3-2.2-3.9
		C395.9,279.9,394,278.5,391.5,277z"/>
	<path class="st0" d="M173.8,344.9c-0.1-2.2-0.3-4.4-0.3-6.5c0-1.7-0.6-2.8-2.2-3.6c-2.1-1.1-4-2.5-6.4-4c2.6-1.1,4.8-2.2,7.1-3
		c1.5-0.5,2.1-1.4,2.4-2.9c0.5-2.4,1.1-4.7,1.7-7.6c1.5,1.9,2.8,3.3,3.8,4.8c1.4,2.3,3.3,3.1,6,2.6c1.9-0.3,3.8-0.3,6.5-0.6
		c-1.5,2.4-2.6,4.4-3.9,6.2c-1.2,1.6-1.1,3-0.3,4.7c0.9,1.9,1.5,4,2.4,6.4c-2.2-0.5-4.3-0.8-6.3-1.5s-3.5-0.4-5,1.1
		s-3.1,2.8-4.7,4.2C174.3,345.1,174,345,173.8,344.9z"/>
	<g>
		<path class="st1" d="M377.8,306.7l-2.9,3.5l-6.8-5.5c0.1-3,1.4-6.1,3.3-8.4c4.2-5.2,11-6.2,16-2.1s5.5,10.8,1.2,16.1
			c-2.4,2.9-5.3,4.5-8.5,4.6l-0.3-4.3c2.3-0.2,4-1.1,5.4-2.8c2.6-3.2,2.3-7.2-0.9-9.8c-3.1-2.5-7.1-2.1-9.7,1.1
			c-0.8,1-1.4,2.2-1.7,3.6L377.8,306.7z"/>
		<path class="st1" d="M370.1,312.9l7.9,9.1l-3.7,3.2l-7.7-8.9c-2.7-3.1-5.1-3.2-7.4-1.2s-2.5,4.4,0.2,7.5l7.7,8.9l-3.7,3.2
			l-7.9-9.1c-4.1-4.8-3.7-9.8,0.9-13.8C360.9,307.9,365.9,308.1,370.1,312.9z"/>
		<path class="st1" d="M336.6,331.8l8.5-5.1l-0.7-4.9l4.4-2.6l2.9,23.3l-4.2,2.5l-19.4-13.5l4.5-2.7L336.6,331.8z M339.8,334.2
			l7.2,5.3l-1.3-8.8L339.8,334.2z"/>
		<path class="st1" d="M314,336.9l6,4l0.2-0.1l4-1.6l-2.2-5.6l4.6-1.8l7.8,20l-8.6,3.4c-5.3,2.1-9.8,0.6-11.5-3.8
			c-1.2-3-0.5-5.8,1.6-7.9l-7-4.7L314,336.9z M324.7,351.4l3.8-1.5l-2.7-7l-3.8,1.5c-2.8,1.1-3.7,3-2.9,5.1
			C319.9,351.8,321.9,352.5,324.7,351.4z"/>
		<path class="st1" d="M293.6,346.9l9.7-2l0.9-4.9l5-1l-4.9,22.9l-4.8,1l-13.8-19l5.1-1.1L293.6,346.9z M295.9,350.3l5,7.3l1.6-8.7
			L295.9,350.3z"/>
		<path class="st1" d="M265.3,366l-0.7-21.4l4.1-0.1l11.1,12.7l-0.4-13l4.9-0.2l0.7,21.4l-4.1,0.1l-11.1-12.7l0.4,13L265.3,366z"/>
		<path class="st1" d="M253.7,360.8l6.8,0.9l-0.5,4l-18.5-2.4l0.5-4l6.8,0.9l2.2-17.3l4.9,0.6L253.7,360.8z"/>
		<path class="st1" d="M225.3,340.9l1.1-3.8l16,4.5l-5.8,20.6l-15.6-4.4l1.1-3.8l10.9,3l1.3-4.5l-9.6-2.7l1-3.7l9.6,2.7l1.3-4.8
			L225.3,340.9z"/>
		<path class="st1" d="M206.6,332.7l1.6-3.6l15.1,6.8l-8.8,19.5l-14.8-6.7l1.6-3.6l10.3,4.6l1.9-4.2l-9.1-4.1l1.6-3.5l9.1,4.1l2-4.5
			L206.6,332.7z"/>
	</g>
	<g>
		<path class="st1" d="M162.3,106.6l2.9-3.5l6.6,5.6c-0.2,2.9-1.6,6-3.5,8.4c-4.4,5.1-11.1,5.9-16,1.7s-5.2-11-0.8-16.2
			c2.4-2.9,5.4-4.4,8.6-4.4l0.2,4.3c-2.3,0.1-4,1-5.4,2.7c-2.7,3.2-2.4,7.2,0.7,9.8c3.1,2.6,7.1,2.3,9.7-0.9c0.9-1,1.5-2.1,1.8-3.5
			L162.3,106.6z"/>
		<path class="st1" d="M170.2,100.6l-7.7-9.2l3.8-3.2l7.5,9.1c2.6,3.1,5,3.3,7.4,1.4c2.3-1.9,2.6-4.3,0-7.5l-7.5-9.1l3.8-3.1
			l7.7,9.2c4,4.9,3.5,9.8-1.2,13.7C179.2,105.8,174.2,105.4,170.2,100.6z"/>
		<path class="st1" d="M204.1,82.4l-8.6,5l0.6,4.9l-4.4,2.5l-2.4-23.4l4.3-2.4l19,13.8l-4.5,2.6L204.1,82.4z M200.8,79.9l-7-5.4
			l1.1,8.8L200.8,79.9z"/>
		<path class="st1" d="M226.8,77.8l-5.9-4.2l-0.2,0.1l-4.1,1.5l2.1,5.6l-4.7,1.7l-7.4-20.1l8.7-3.2c5.4-2,9.8-0.4,11.4,4.1
			c1.1,3,0.4,5.8-1.8,7.9l6.9,4.8L226.8,77.8z M216.4,63.1l-3.8,1.4l2.6,7l3.8-1.4c2.8-1,3.8-2.9,3-5.1
			C221.1,62.8,219.2,62,216.4,63.1z"/>
		<path class="st1" d="M247.4,68.2l-9.8,1.8l-1,4.9l-5,0.9l5.5-22.8l4.8-0.9l13.4,19.3l-5.1,1L247.4,68.2z M245.2,64.8l-4.9-7.4
			l-1.8,8.7L245.2,64.8z"/>
		<path class="st1" d="M276.1,49.9l0.2,21.4h-4.1l-10.8-12.9l0.1,13h-4.9L256.4,50h4.1l10.8,12.9l-0.1-13L276.1,49.9z"/>
		<path class="st1" d="M287.5,55.3l-6.8-1l0.6-4l18.5,2.8l-0.6,4l-6.8-1l-2.6,17.2l-4.9-0.7L287.5,55.3z"/>
		<path class="st1" d="M315.5,75.8l-1.2,3.8l-15.9-4.8l6.2-20.5l15.5,4.7l-1.2,3.8l-10.8-3.3l-1.4,4.5l9.5,2.9l-1.1,3.7l-9.5-2.9
			l-1.4,4.7L315.5,75.8z"/>
		<path class="st1" d="M334,84.4l-1.7,3.6l-15-7.2l9.2-19.3l14.6,7l-1.7,3.6l-10.2-4.9l-2,4.2l9,4.3l-1.7,3.5l-9-4.3l-2.1,4.5
			L334,84.4z"/>
	</g>
</g>
</svg>
