<?xml version="1.0" encoding="utf-8"?>
<!-- Generator: Adobe Illustrator 22.1.0, SVG Export Plug-In . SVG Version: 6.00 Build 0)  -->
<svg version="1.1" id="Layer_1" xmlns="http://www.w3.org/2000/svg" xmlns:xlink="http://www.w3.org/1999/xlink" x="0px" y="0px"
	 viewBox="0 0 558.1 431.5" style="enable-background:new 0 0 558.1 431.5;" xml:space="preserve">
<style type="text/css">
	.st0{fill:#9A9A9A;}
	.st1{fill:#ED7622;}
</style>
<path class="st0" d="M225.5,298.7c0-0.6,0-1.1,0-1.8c1.2,0,2.4,0.1,3.5-0.1c0.5-0.1,1.3-1,1.2-1.3c-0.7-2.1,0.7-2.4,2-2.7
	c3.7-0.8,7.3-1.7,11-2.2c1.1-0.2,2.3,0.5,3.5,0.4c-0.4-0.2-0.9-0.4-1.3-0.6c2.3-0.8,4.1-2.8,6.9-1.5c0.8,0.4,2.4,0.6,3-1.1
	c0.2-0.5,1.3-0.7,2-0.9c5-1,10.1-2,15.1-3.1c2.4-0.5,4.7-1.5,7.4-2.3c0,1.1,0,1.7,0,2.3c0.2,0.1,0.4,0.2,0.6,0.3
	c0.2-0.4,0.4-0.8,0.4-1.3c0-0.3-0.3-0.6-0.6-1.2c7.9-2.4,15.8-3.6,23.5-5.7c8-2.1,16.2-3.9,24.3-5.8c8.1-1.9,16.2-3.9,24.2-5.8
	c8.1-1.9,16.2-3.8,24.3-5.7c8.2-1.9,16.3-3.8,24.5-5.8c8.1-1.9,16.2-3.8,24.3-5.8c8.1-1.9,16.2-3.8,24.3-5.7
	c8.1-1.9,16.2-3.9,24.3-5.8c8-1.9,16.1-3.8,24.1-5.7c7.7-1.8,15.4-3.5,23.4-5.3c0.2,0.5,0.5,1.2,0.8,1.9c0.1-0.3,0.3-0.7,0.4-1
	c0.6-0.6,1.1-1.6,1.9-1.8c6.6-1.7,13.3-3.2,19.9-4.8c0.5-0.1,1,0,1.7,0c0.4,2,0.9,4,1.3,5.9c-5.7,2.8-18.4,4.9-19.9,3.3
	c-0.5,0.5-1,1.3-1.6,1.5c-5.2,1.5-10.4,3-15.6,4.4c-3.2,0.9-6.4,1.7-9.7,2.3c-5.1,0.8-9.9,2.6-15,3.5c-1.5,0.3-2,1.1-2.2,2.5
	c-2,14.9-5.7,29.3-10.9,43.4c-7.6,20.6-18.1,39.6-31.7,56.8c-1.1,1.4-2.9,2.3-4,3.7c-1.4,1.7-2.3,3.6-3.6,5.4
	c-1.6,2.3-3.3,4.6-6.7,2.1c-0.2,1-0.4,1.7-0.6,2.4c0.1,0.1,0.2,0.1,0.3,0.2c0.4-0.5,0.9-1.1,1.3-1.6c1.8-0.2,1.4,1.8-1,4.2
	c-1.1,1.1-2.3,2.2-3.6,3.4c-0.6-0.3-1.2-0.7-1.2-0.7c-1.3,1.9-2,4-3.5,5.3c-6.9,5.8-13.7,11.7-20.9,16.9
	c-15.1,11-31.5,19.6-49.2,25.7c-4.1,1.4-8.2,3-12.5,4.2c-14.5,4-29.1,6.9-44.1,7.9c-24.2,1.7-47.9-0.8-71.2-7.3
	c-13.6-3.8-26.7-9-39.3-15.5c-20-10.4-38-23.7-53.7-39.9c-3.2-3.2-5.8-6.9-8.8-10.4c-2.5-2.9-5.2-5.6-7.5-8.6
	c-1.4-1.9-2.2-4.3-3.1-6.3c0,0.3,0.1,0.9,0.2,1.6c-0.3-0.1-0.5,0-0.7-0.2c-0.3-0.3-0.5-0.6-0.8-1c-2.9-4.1-2.8-4-7.8-2.8
	c-13.6,3.2-27.3,6.3-40.9,9.5c-5.1,1.2-10.1,2.5-15.2,3.8c-0.7,0.2-1.5,0.3-2.2,0.5c-0.2-0.3-0.3-0.5-0.4-0.7
	c-1.6-5.8-1.5-5.7,4.5-7.2c20.1-4.7,40.2-9.5,60.2-14.3c0.7-0.2,1.5-0.4,2.2-0.5c1.5-0.2,3.3-1.4,3.8,2.2c0.6-3.3,1.9-4,4.3-3.6
	c1.3,0.2,2.7,0.2,4.1,0.2c0-0.2,0-0.5,0-0.7c-0.7,0-1.5,0-2.2,0c0-0.1-0.1-0.2-0.1-0.3c0.6-0.2,1.1-0.4,1.7-0.5
	c7.4-1.8,14.8-3.6,22.3-5.3c1.7-0.4,3.8-1.8,5.3,0.6c5.3-4.9,12.4-4.3,18.6-6.2c7.6-2.3,15.5-3.7,23.3-5.5
	c11.7-2.8,23.3-5.6,34.9-8.3c0.2-0.1,0.5,0,0.8-0.1c0,0.9-0.3,1.9-0.1,2.7C224.2,298.1,225,298.4,225.5,298.7
	c0.3,0.1,0.8,0.4,0.7,0.5c-0.1,0.4-0.5,1.1-0.7,1.1c-0.8-0.1-2-0.2-2.4-0.8c-1-1.5-1.8-1.3-3-0.2c-1.6,1.4-3.2,2.9-5,3.9
	c-1.5,0.8-3.2,1.1-4.9,1.6c-2.9,0.8-5.8,1.5-8.7,2.2c-15.8,3.8-31.5,7.5-47.3,11.2c-1,0.2-2-0.1-3.2-0.2c-0.3,0.3-0.7,0.8-1.4,1.7
	c-0.3-1.1-0.4-1.7-0.5-2.2c-2,0.4-3.8,0.7-5.7,1.1c0.6,0.4,1.2,0.7,2,1.3c-0.7,0.3-1,0.6-1.4,0.7c-4.7,1.1-9.4,2.3-14.2,3.2
	c-2.1,0.4-1.3,1.1-0.6,2c2.1,2.7,4.3,5.3,6.4,8c0.5,0.6,0.5,1.5,0.8,2.2c1.1,0.7,2.3,1.4,3.2,2.3c13.9,15.1,29.7,27.6,47.7,37.6
	c27.3,15.1,56.6,22.9,87.8,23.3c16.3,0.2,32.4-1.7,48.2-5.9c17.2-4.5,33.4-11.3,48.8-20.2c4.3-2.5,7.8-6.9,14-6.8
	c-0.9-0.4-1.4-0.6-1.9-0.8c1.3-1.1,2.6-2.1,3.8-3.2c6.5-5.6,13.1-11.3,19.7-16.9c0.9-0.8,2.2-1.2,3.3-1.7c0.2-0.5,0.3-1.3,0.7-1.9
	c1.2-1.7,2.6-3.2,4-4.9c4.5-5.4,9-10.8,13.1-16.6c15.2-21.9,25.5-45.8,30.5-72c0.1-0.7,0.1-1.4,0.2-2.3c-0.7,0.1-1.1,0.1-1.6,0.2
	c-10.9,2.6-21.8,5.1-32.7,7.7c-16.6,3.9-33.2,7.9-49.8,11.8c-1.7,0.4-2.8,1-3.7,2.6c-9.6,16.7-22.9,29.9-39.5,39.7
	c-2,1.2-4,2.7-6.1,1c-0.9,1.2-1.4,2.9-2.4,3.3c-4.6,2-9.4,3.8-14.1,5.6c-1.8,0.7-3.5,1.4-4.5,0c-0.7,0.7-1.1,1.5-1.7,1.6
	c-2.3,0.7-4.5,1.2-6.9,1.6c-20.1,3.4-39.8,1.9-58.9-5.6c-2.7-1.1-6.5-1.1-7.6-5c0-0.2-0.6-0.4-0.9-0.3c-2.8,0.8-4.7-0.7-6.6-2.2
	c0-0.9,0-1.7,0-3.2c-0.8,1.2-1.2,1.7-1.7,2.4c-0.4-0.9-0.7-1.5-1-2c-0.1,0.2-0.2,0.4-0.3,0.6c-1.2-0.4-2.4-0.9-3.6-1.3
	c3.3-0.6,7-2.6,8.3,2.5c0.7-0.3,1.2-0.6,2-1c0,1.3,0,2.2,0,3.4c0.8-0.7,1.4-1.3,2.1-1.9c0.2,0.7,0.3,1.2,0.3,1.2
	c1.7,0.4,3.1,0.4,4.2,0.9c14.2,6.5,29.1,9.9,44.6,9.7c10.9-0.1,21.8-1.3,32.2-5.2c3.5-1.3,7-2.4,10.4-4c14.5-6.7,27.2-16,37.5-28.4
	c3.6-4.3,6.7-8.9,10-13.4c-0.2-0.2-0.4-0.4-0.5-0.6c-6.7,1.5-13.3,3-20,4.6c-6.7,1.6-13.4,3.2-20.1,4.8c-6.7,1.6-13.4,3.4-20.1,4.7
	c-6.7,1.3-13.1,4.3-20.1,3.8c-6,3.6-12.9,3.9-19.4,5.4c-6.5,1.5-12.8,4.5-19.7,3.9c-6,3.5-12.9,3.3-19.2,5.6c0-0.4,0-0.7,0.1-1.1
	C227.6,299.4,226.5,299.1,225.5,298.7z M403,359.1c-2.5,2-4.6,4-6.9,5.6c-4.3,3.1-8.8,6-13.2,8.9c-0.8,0.5-1.8,0.6-2.6,1.1
	c-1.8,1.3-3.2,3.1-5.1,4.3c-28.8,17.2-60.1,26-93.5,27c-24.9,0.8-49.1-3.5-72.4-12.3c-24.4-9.2-46-22.8-65-40.7
	c-3.7-3.5-7.1-7.2-10.6-10.8c0.1-0.1,0.2-0.3,0.3-0.4c0.8,0.1,1.5,0.2,2.7,0.4c-0.2-0.9-0.4-1.4-0.5-1.8c-0.5,0.3-0.9,0.9-1.2,0.8
	c-1.7-0.4-2.9-1.2-4.1-2.9c-1.7-2.3-4.4-3.9-4.5-6.4c-3-1.6-3.7-4.5-5.6-6c-1.1,0.4-2.2,0.8-3.4,1.3c0.1,0.3,0.2,0.7,0.4,0.9
	c3.5,4.4,6.8,9,10.5,13.2c7.2,8.4,15,16.1,23.6,23.2c16.5,13.6,34.8,24.3,54.7,32c19.7,7.6,40.2,11.8,61.3,13
	c14.2,0.8,28.4-0.3,42.4-2.6c12.3-2.1,24.4-5.4,36-9.9c14.8-5.8,29-12.8,42-22.1c10.3-7.4,20.3-15.2,28.9-24.6
	c1.1-1.2,2.3-0.8,3.5-0.5c0.4,0.1,0.9,0.2,1.3,0.4c-0.2-0.5-0.3-1.1-0.7-1.4c-0.4-0.3-1.1-0.3-2-0.6c27.6-29.9,44.6-64.6,51.2-104.4
	c-3.4-0.5-3.9,1.5-4.3,3.9c-2.8,15.6-7.4,30.7-14,45.1c-5.4,11.8-11.9,22.9-19.4,33.4c-7.5,10.5-16,20-25.4,28.7
	c-0.9,0.9-2.4,1.2-3.5,1.9c-0.8,0.5-1.4,1.2-2,1.8C402.2,358.7,402.5,358.8,403,359.1z M414.4,363.8c0-0.3,0.1-0.5,0.1-0.8
	c-2.4,0.7-3.1-0.2-2.4-2.3c0.2-0.6,0.3-1.2,0.2-1.7c-0.1-0.4-0.7-0.6-1.5-1.3c0,2.3,0,3.8,0,5.5c-0.5,0-1.3,0.1-2.1,0.2
	c0,0.1,0,0.3,0.1,0.4C410.7,363.8,412.5,363.8,414.4,363.8z M411.2,368.3c1.8,1.6,1.9,1.5,3.1-2.2c-1-0.1-1.9-0.3-2.9-0.4
	c0,0.2,0.1,0.3,0.1,0.5c0.5,0.3,1,0.7,1.5,1C412.5,367.6,411.9,367.9,411.2,368.3z M196.8,303.3c-0.1,1-0.3,2.1-0.4,2.9
	c1.4-0.1,2.5-0.3,3.4-0.3C198.9,305.1,198,304.3,196.8,303.3z M115.9,322.9c0,0.3,0,0.5,0,0.8c2,0,4.1,0,6.1,0c0-0.3,0-0.5,0-0.8
	C120,322.9,118,322.9,115.9,322.9z"/>
<path class="st0" d="M391.5,116.1c-1.5,2.8-4.6,2.7-7,2.9c-2.4,0.2-4.3,1.5-6.7,1.6c-1.9,0.1-3.8,0.9-5.7,1.4
	c-0.3-0.5-0.6-0.9-0.9-1.4c-0.5,0.7-0.8,1.3-1.1,1.7c-1,0.5-1.8-3-2.8,0.4c-0.4,1.2-3.8,1.6-5.9,2.1c-12.8,3-25.6,6-38.4,9
	c-4.9,1.1-9.7,2.3-14.6,3.4c-0.1-0.3-0.2-0.6-0.3-1c1.9-0.5,3.8-1,5.7-1.5c0-0.1,0.1-0.3,0.1-0.4c-1.9-0.2-3.9-0.4-6.7-0.6
	c1.1-0.8,1.7-1.2,2.7-2c-2.3,0-4.1,0-6,0c0-0.1-0.1-0.2-0.1-0.3c9.6-2.3,19.1-4.6,29.5-7.1c-3-1.8-5.4-3.2-7.6-4.5
	c0.3-1.2,0.6-2.3,0.9-3.6c3.5,2.1,7.2,4.3,10.9,6.4c0.7,0.4,1.8,0.3,2.7,0.1c4-0.9,7.9-1.9,11.9-2.8c5.3-1.2,10.7-2.3,15.9-3.7
	c3.1-0.8,6.3-0.3,9.4-1.5c4.4-1.7,9-2.9,13.6-4c9.2-2.2,18.3-4.3,27.5-6.4c1-0.2,2.1,0.5,3.2,0.5c1.2,0,2.4-0.3,3.5-1
	c-1,0.1-2,0.2-3,0.3c0-0.3-0.1-0.5-0.1-0.8c1.6-0.2,3.3-0.3,4.9-0.5c0.1-0.1,0.2-0.3,0.3-0.4c-0.7-0.2-1.6-0.3-2.1-0.8
	c-1.1-1-2.1-2.1-2.9-3.2c-5.5-7.5-12-14-18.8-20.3c-24.4-22.6-52.8-37.7-85.2-45.2c-19-4.4-38.2-5.9-57.6-4
	c-13.1,1.3-25.9,3.8-38.5,7.5c-1,0.3-2.1,0.1-3.1,0.4c-0.7,0.2-1.2,1.1-1.9,1.3c-16.6,5.7-32.1,13.5-46.4,23.6
	c-2.9,2-5.7,4.3-8.6,6.4c-1.5,1.1-3.1,2.1-4.8,3.2c-0.1-0.2-0.4-0.9-0.7-1.7c-0.3,0.4-0.5,0.6-0.5,0.7c1.1,2-0.3,3.1-1.5,4.2
	c-26.9,23.8-45.4,53-55.6,87.5c-1.8,6.1-3.1,12.3-4.8,19.1c1.6-0.3,2.6-0.5,3.7-0.7c10.3-2.5,20.6-5,31-7.4c4.4-1,8.9-1.8,13.3-2.9
	c0.9-0.2,2.4,1.1,2.7-1c0.7,0.2,1.3,0.4,2.3,0.7c0.3-0.5,0.6-3,1.9-0.7c1.4-0.7,2.7-1.6,4.1-1.9c8.8-2.2,17.7-4.2,26.5-6.5
	c1.2-0.3,2.6-1.3,3.2-2.4c4.7-7.7,10.1-14.9,16.4-21.4c12.1-12.3,26.4-21.4,42.8-26.8c5.9-1.9,12.1-2.8,18.2-4.1
	c3.2-0.7,6.4-1.2,9.8-1.9c-0.1,1.2-0.2,1.9-0.3,2.6c0.2,0.1,0.4,0.1,0.7,0.2c0.3-0.8,0.6-1.6,0.8-2.1c2.3,0,4.5,0,6.6,0
	c0,0.3,0,0.6,0,0.9c-0.9,0-1.9,0-2.9,0c-0.1,0.6-0.3,1.3-0.4,2c-0.5,0.1-1,0.1-1.5,0.1c-2.6,0.1-5.3,0.3-7.9,0.4
	c-0.6,0-1.2-0.3-1.8-0.5c0.6-0.2,1.2-0.4,1.8-0.7c0.2-0.1,0.4-0.2,0.6-0.4c-2.1-1.2-3.3-0.4-3.7,2.2c-32.3,5.4-57.2,21.9-74.5,50
	c6-1.4,12-2.8,18-4.3c12.4-2.9,24.8-5.9,37.2-8.8c0.8-0.2,1.6,0,2.1,0c7.4-2.7,15.2-3.7,23-5.3c-0.6,0.2-1.2,0.4-1.8,0.6
	c0.2,0.3,0.4,0.6,0.6,0.9c0.5-0.2,1.5-0.3,1.6-0.6c0.4-2,2.1-2.1,3.6-2.5c3-0.7,5.9-1.5,8.9-2.1c0.7-0.2,1.6-0.5,2.2-0.2
	c2.6,1.1,4.8,0.5,6.8-1.9c0.1,0.8,0.2,1.3,0.3,2.1c1.5-1.9,2.8-3.7,5.6-2.5c1.6-2.4,6.2-3,9.8-0.8c-0.9,1.6-1.8,3.2-2.8,4.7
	c-0.3,0.4-1,0.7-1.5,0.7c-4.4-0.2-8,2.7-12.3,2.9c-0.9,0-1.9-0.1-2.8-0.2c0.1-0.9,0.2-1.8,0.4-2.9c-0.9,0.3-1.9,0.7-2.9,1.1
	c0.7,0.8,1.4,1.5,2.4,2.7c-4.6,1.2-8.7,2.3-12.9,3.3c-8.3,2-16.7,3.9-25,5.9c-25.5,6-51,12.1-76.4,18.1c-3.8,0.9-7.7,1.4-11.5,2.2
	c-2.5,0.6-4.8,1.6-7.3,2.2c-11.9,2.9-23.8,5.6-35.8,8.4c-7.4,1.7-14.7,3.5-22,5.3c-9.6,2.3-19.1,4.6-28.7,6.8
	c-7.7,1.8-15.5,3.7-23.3,5.3c-1.8,0.4-3.5,1.1-5.3,1.5c-2.2,0.5-4.5,1-6.7,1.6c-2.1,0.5-4.3,1-6.4,1.6c-2.2,0.5-4.5,1-6.7,1.5
	c-2.1,0.5-4.3,1.1-6.4,1.5c-3.4,0.8-3.4,0.8-4.3-2.5c-0.2-0.9-0.4-1.8-0.6-3.1c1.8-0.5,3.6-1,5.3-1.5c3.5-0.8,6.9-1.7,10.4-2.4
	c1-0.2,2.2-0.1,3.2-0.1c0.6,0,1.2,0,1.7-0.1c3.8-1.2,7.6-2.6,11.5-3.6c10-2.5,20.1-4.8,30.1-7.3c0.9-0.2,1.8-1.9,2-3
	c1.6-7.6,2.7-15.4,4.7-23c8.1-30.6,22.2-58.2,43-82.1c4.1-4.7,8.4-9.2,12.8-13.7c0.5-0.5,1.5-0.4,2.3-0.5c0.2,0,0.5,0.2,0.7,0.1
	c1.4-0.3,2.8-0.6,4.5-0.9c-1.8-0.3-3.5-0.5-5.8-0.8c4.3-3.8,8.1-7.2,11.9-10.6c3.1,2.6,3.1,2.6,3.8,0.1c-0.9,0.1-1.8,0.1-3.1,0.2
	c1.7-2.3,3-3.9,5.5-2.5c-0.2,0.3-0.5,0.6-0.9,1.2c1.2-0.2,2-0.3,2.7-0.4c0.1,0.2,0.2,0.3,0.3,0.5c-0.6,0.6-1.1,1.3-2.1,2.4
	c4,0,7.5,0,10.5,0c0.5-1.3,0.9-2.3,1.3-3.3c-1.3-0.4-3.8,1-3.6-2.5c-0.3,3.5-2.6,2.8-4.5,2.7c-1.2,0-2.5-0.3-3.7-0.5
	c0.4-3.6,3.1-4.9,5.9-6.5c4.9-2.8,9.3-6.7,14.2-9.6c14.4-8.7,29.7-15.3,45.9-20.1c22.7-6.8,46-9.8,69.7-8.6
	c32.6,1.6,63.2,10.2,91.8,26.2c13.9,7.8,26.8,16.9,38.5,27.6c3.1,2.8,6.1,5.7,9.1,8.7c0.8,0.8,1.3,1.9,2.1,2.8
	c0.6,0.7,1.3,1.4,2.2,2.3c-0.4,0.2-1,0.5-1.6,0.8c3.2-0.9,4.4,1.5,5.9,3.3c4.5,5.7,9,11.5,13.5,17.2c0.5,0.7,0.8,1.6,1.3,2.6
	c6.1-1.5,12.3-3,18.6-4.4c11.7-2.8,23.5-5.6,35.2-8.4c2.8-0.7,5.7-1.3,8.5-2c1.5-0.4,2.2,0,2.5,1.5c0.2,1.2,0.8,2.3,0.7,3.4
	c0,0.6-1,1.4-1.7,1.6c-11.3,2.8-22.6,5.4-33.9,8.1c-7.7,1.8-15.3,3.6-23,5.4c-6.3,1.5-12.6,3-18.9,4.3c-1,0.2-2.1-0.3-3.3-0.4
	c0,0.2,0.1,0.7,0.1,1.1c-8.5,2.1-16.9,4.2-25.4,6.3c-4.1,1-8.3,1.9-12.4,2.9c-1.2,0.3-2.4,0.6-3.7,0.7
	C392.2,117.1,391.9,116.4,391.5,116.1c-0.1-2-1.3-3.2-2.7-2.8c-0.9,0.2-1.8,0.3-2.6,0.5c-0.3,0.1-0.4,0.5-0.7,1
	C390.3,114.3,390.3,114.3,391.5,116.1z M406.7,64.4c0-0.2,0.1-0.4,0.1-0.6c-0.7-0.2-1.4-0.6-2.1-0.6c-2.2,0.2-3.6-1.1-5.2-2.3
	c-6.2-4.5-12.3-9.2-18.7-13.2c-24.9-15.6-52-25.2-81.3-28.6c-21.3-2.5-42.4-1.5-63.4,3c-35.2,7.6-66,23.6-92.5,48.1
	c-0.8,0.7-2.1,0.9-2.8,1.7c-1.3,1.4-2.2,3.2-3.6,4.6c-22.1,22.7-37.9,49-47.3,79.2c-2.1,6.7-3.6,13.6-5.3,20.5
	c-0.6,2.3-0.9,4.8-1.3,7.3c2.3-0.2,3.7-0.5,4.1-2.9c2-12.5,5.5-24.7,10.2-36.5c8.7-22.2,20.9-42.1,37-59.7
	c20.3-22.3,44.5-39,72.7-49.9c14.2-5.5,28.8-9.2,43.8-11.3c18.2-2.5,36.4-2.4,54.6,0.3c19,2.8,37.2,8.5,54.6,16.9
	c17,8.2,32.6,18.7,46.5,31.5c4.1,3.7,8.1,7.6,11.8,11.7c4.3,4.8,8.4,9.7,12.2,14.9c1.7,2.3,3.6,3,5.6,0.8c-1.1-1.3-2.2-2.6-3.3-3.9
	c-7.8-8.6-15.7-17.2-23.5-25.9c-0.5-0.6-0.7-1.6-0.9-2.2c-2.5,0.8-3.1-1.7-4.4-3C405.1,64.2,405.9,64.3,406.7,64.4z M151.6,55
	c-1.1,0.1-2.1,0.3-2.8,0.4c0.9,0.8,1.6,1.5,2.1,2c-1,0.7-1.7,1.1-2.4,1.6c1.1,0,2.3,0,3.5,0C151.8,57.7,151.7,56.6,151.6,55z
	 M144.3,66.4c-1-0.3-2.1-0.5-3.4-0.9c0.6,2.1-0.1,3.1-2.1,3.4c0.9,0.3,1.8,0.5,2.8,0.8C141.4,67.5,141.9,66.1,144.3,66.4z
	 M130.9,68.5c-0.1,0.2-0.2,0.3-0.2,0.5c1.9,0.2,3.9,0.4,6.2,0.6c-1.3-0.9-2.1-1.5-2.5-1.8C132.9,68.1,131.9,68.3,130.9,68.5z
	 M379.8,119.6c0.1-0.2,0.1-0.4,0.2-0.6c-0.4-0.8-0.8-1.7-1.3-2.7c-0.5,0.2-1.4,0.5-2.7,1C377.6,118.3,378.7,118.9,379.8,119.6z"/>
<path class="st1" d="M436.7,213.6c1.3-0.1,2.5-0.3,3.8-0.4c-0.1-0.2-0.2-0.3-0.2-0.3c-3.5-0.1-5.2-1.5-4.5-5.3
	c0.2-0.9-1-2.2-1.6-3.5c1.3-0.3,2.3-0.6,3.3-0.9c-0.1,0.8-0.3,1.5-0.5,2.6c1,0.1,2,0.2,3.1,0.4c0.1-0.3,0.1-0.5,0.2-0.8
	c-0.6-0.3-1.2-0.5-2.1-1c0.8-0.6,1.4-1.1,2.2-1.7c-2-2-4.1,0.3-6.3-0.4c-0.1-0.3-0.4-0.9-0.5-1.4c-3.5-14.7-7-29.4-10.5-44.1
	c-1.9-7.9-3.7-15.8-5.6-23.7c-0.5-2.2-0.1-3.2,2.3-3.7c10.7-2.5,21.4-5.3,32.2-7.9c7.2-1.7,14.5-2.3,21.8-0.9
	c7.9,1.5,13.4,6.4,17,13.4c4.7,9.3,6.9,19.1,5.8,29.6c-0.7,6.7-3.7,12.3-8.7,16.8c-0.4,0.4-0.9,0.8-1.9,1.7
	c10.3,9.8,20.6,19.6,30.8,29.3c-0.2,0.3-0.4,0.7-0.7,1c-3.2,0.8-6.3,1.6-9.5,2.4c-4.1,1-8.3,2-12.4,2.8c-0.7,0.1-1.7,0.2-2.1-0.2
	c-3.6-3.5-7.1-7.1-10.5-10.7c-4.4-4.6-8.9-9.2-13.2-13.9c-2.5-2.7-5.2-1.6-8-1.1c-1.1,0.2-2.3,0-3.4,0.4c-1.4,0.4-2.8,1.1-4.5,1.9
	c0.8,3.9,1.5,7.9,2.5,11.8c0.9,3.9,2.1,7.8,3.1,11.7c-0.9,0.5-1.8,0.9-2.6,1.3c0,0.3,0,0.7,0,1c2.6-1.7,3.3-0.4,3.6,1.5
	c0.1,0.6,0.2,1.2,0.4,1.7c0.7,2,0.3,3-2.1,3.5c-4.5,0.8-8.9,2.1-13.4,3.1c-1.4,0.3-3.7,2.2-3.6-1.8c0.1-2.4-1.3-4.8-2-7.2
	C437.8,218.3,437.3,216,436.7,213.6z M439.8,171.5c0,0.2-0.1,0.3-0.1,0.5c0.8,0.4,1.5,1.1,2.3,1.1c3.7-0.1,7.3,1.4,11.1,0.1
	c5.4-1.8,11-2.9,16.3-4.9c4.6-1.7,7.1-5.4,6.7-10.4c-0.3-3.7-0.9-7.4-2.1-10.9c-2-5.4-5.4-7.7-11.1-6.9c-7.2,1-14.3,3-21.4,4.5
	c-0.1,0-0.2,0.2-0.4,0.5c2.1,8.9,4.2,18,6.2,26.9C444.6,171.9,442.2,171.7,439.8,171.5z M443,213.9c1-3.6,1-3.6-2.1-4.1
	c0.1-0.7,0.2-1.3,0.3-2.1c-1.2,0.3-2.3,0.5-4,0.9c1.4,0.2,2,0.3,3.4,0.5c-1.5,0.8-2.2,1.2-3.6,2C439.7,211.2,442.9,209.4,443,213.9z
	 M448.4,195.2c0.1,0.1,0.1,0.3,0.2,0.4c0.8,0,1.6,0,3.2,0c-0.6-1.5-0.9-2.7-1.5-3.8c-0.2-0.3-1.4,0.2-2.7,0.4c1.2,1,1.8,1.5,2.5,2.1
	C449.4,194.7,448.9,194.9,448.4,195.2z M448.1,199.5c0.9-0.3,1.7-0.5,2.5-0.9c0.4-0.2,0.6-0.6,0.9-1c-0.4-0.3-0.7-0.8-1.1-0.8
	c-1.1,0-2.1,0.2-3.2,0.3C447.5,198,447.9,199,448.1,199.5z M479.3,180.5c0.1-0.2,0.3-0.4,0.4-0.6c-1.4-1.3-2.8-2.5-4.2-3.8
	c-0.1,0.2-0.3,0.3-0.4,0.5C476.5,177.9,477.9,179.2,479.3,180.5z"/>
<path class="st1" d="M258.5,264.2c1.3-0.1,2.1-0.2,3-0.3c-2.7,0.4-3.4-1-3.9-3.3c-5.1-22-10.3-44-15.6-66c-1.5-6.4-2.9-12.7-4.6-19
	c-0.6-2.3-0.4-3.7,2.5-3.6c0.2,0.4,0.4,0.9,0.5,1c1-0.7,1.9-1.7,2.9-1.9c7.3-1.9,14.7-3.6,22-5.3c4.4-1,8.7-2.5,13.2-2.8
	c3.2-0.3,5.8-2.1,8.9-2.5c3.3-0.4,6.5-1.3,9.7-2.2c1.8-0.5,2.6-0.1,3,1.8c1.2,5.8,2.7,11.6,4.1,17.7c-5.2,1.2-10.3,2.5-15.4,3.7
	c-8.6,2-17.2,4-25.8,6.1c-0.7,0.2-1.7,1.2-1.6,1.6c1.4,6.4,3,12.7,4.6,19.3c5.1-1.2,9.9-2.3,14.8-3.4c7.2-1.7,14.4-3.4,21.6-5.2
	c1.9-0.5,2.7,0,3.2,1.9c1.1,5.5,2.5,10.9,3.8,16.7c-4.6,1.1-8.9,2.2-13.3,3.2c-7.6,1.8-15.2,3.7-22.8,5.3c-2.2,0.5-2.7,1.4-2.1,3.5
	c1.3,5.1,2.6,10.2,3.6,15.4c0.4,2,1.2,2.4,3.1,2c13-3.1,26-6.1,38.9-9.2c1-0.2,2-0.5,3.2-0.7c1.3,5.5,2.6,10.8,3.9,16.2
	c0.9,3.7,0.8,3.7-2.9,4.6c-13.6,3.2-27.1,6.5-40.7,9.6c-4,0.9-8.1,1.5-12.1,2.4c-2.4,0.6-4.8,1.5-7.6,2.4
	C259.9,270.1,259.3,267.3,258.5,264.2z"/>
<path class="st1" d="M394.3,184.4c-0.7,0-1.1,0-1.6,0c0.1,0.2,0.1,0.5,0.2,0.5c1.8,0.6,3.1,1.6,4.1,3.4c2.3,4.1,4.9,8,7.6,11.9
	c1.8,2.6,3.8,4.9,5.6,7.5c0.4,0.5,0.3,1.4,0.5,2.8c-0.2-0.1,0.3,0,0.6,0.3c0.6,0.7,2.2,0.7,1.2,2.5c-0.5,1,0.1,2.5,0.7,3.8
	c-0.1-0.8-0.3-1.6-0.4-2.5c0-0.4,0-0.9,0.2-1.1c0.2-0.2,0.9-0.1,1.1,0.1c4.4,6.5,8.8,13,13.4,19.8c-5.7,1.4-11,2.6-16.2,3.9
	c-4.5,1-4.5,1-7.2-2.9c-2.5-3.7-4.9-7.3-7.3-11c-0.4-0.6-0.5-1.5-0.8-2.2c0.8-0.1,1.5-0.2,2.3-0.3c0.4-0.1,0.8-0.2,1.1-0.6
	c-1.4,0-2.9,0-4.6,0c-0.7-1.8-2.2-1.5-4-1.1c-8.7,2.1-17.5,4.3-26.3,6.3c-2.2,0.5-4.6,0.3-6.6,0.4c-0.2-0.1,0.3,0.1,0.7,0.3
	c-3.6,4-1.4,8.9-3.2,13.2c-0.4-0.1-1.1-0.1-2.1-0.3c2.1,1.3,2.5,4.1,1.4,6c-0.3,0.6-0.8,1.4-0.6,2c0.4,2.2,1.1,3.6-2.5,4.1
	c-5,0.6-9.9,2.6-14.8,4c-0.9,0.2-1.8,0.3-3.1,0.5c0.5-4.6,1-8.9,1.5-13.2c0.9-7.4,1.9-14.7,2.8-22.1c2.6-20.5,5.1-41.1,7.7-61.6
	c0.5-3.6,0.9-7.2,1.5-10.8c0.1-0.7,0.8-1.6,1.3-1.7c5.2-1.3,10.4-2.5,15.6-3.8c1.5-0.4,2.3,0,3.1,1.2c4.7,7.1,9.4,14.1,14.2,21.2
	c1.9,2.9,4.2,5.6,5.6,8.7C389,177.3,392.7,180,394.3,184.4z M364.6,175.1c-0.2,0-0.4,0.1-0.7,0.1c-1.3,10-2.5,20-3.9,30.5
	c7.4-1.8,14.3-3.4,21.6-5.1C375.7,191.8,370.1,183.4,364.6,175.1z M352.7,231.4c0-0.3-0.1-0.5-0.1-0.8c-1.2,0-2.5,0-3.9,0
	c0.4,1.3,0.7,2.2,1,3.1c0.1,0,0.3-0.1,0.4-0.1c0-0.6,0-1.1,0-1.6C351.1,231.8,351.9,231.6,352.7,231.4z M392.1,196.8
	c1,2.1,2.6,2.4,4.9,0.6C395.3,197.1,393.7,197,392.1,196.8z M397.7,193.5c-0.3,0.2-0.5,0.4-0.8,0.6c0.7,0.7,1.4,1.4,2.4,2.4
	c0,0.1-0.2,0.8-0.4,1.5c0.7,0,1.2,0,2.5,0C399.9,196.2,398.8,194.9,397.7,193.5z"/>
<path class="st1" d="M-195,312.9c-1.5,0.1-2.6,0.2-3.7,0.2c0.1,0.3,0.1,0.6,0.2,0.9c0.6-0.2,1.1-0.5,1.7-0.8c0,0.8,0,1.5,0,1.9
	c-1.1,0.7-2,1.2-3.4,2.1c0-1.6-0.3-3.2,0.1-4.7c1.6-5.6,3.6-10.9,8.7-14.4c1.3-0.9,2.7-1.7,4.1-2.5c0.8-0.5,2.3-0.3,1.9-2
	c-0.1-0.3,0.8-0.8,1.3-1.1c3.5-1.5,6.8-3.3,10.9-2.6c0.9,0.2,2-1.1,3.1-1.2c12.3-1.3,21.7,3.9,29,13.5c8.4,11,12.4,23.7,14.9,37
	c2.2,11.7,2.6,23.3-1.6,34.7c-3.1,8.3-8.5,14.6-17.2,17.5c-3.2,1.1-6.4,2-9.7,2.8c-0.9,0.2-1.9-0.3-2.9-0.5c-0.2,0.2-0.6,0.9-1,1
	c-3.5,0.5-8-0.6-8.9-2c-3.1,0.8-3.1,0.8-2.6-2.2c-0.7,0.8-1.1,1.3-1.5,1.8c-3.6-1.8-7.9-2.8-8.8-6.8c-1.2-0.5-2-0.6-2.4-1
	c-4.4-4.7-7.8-10-10.4-15.9c-3.8-8.5-6.4-17.4-7.8-26.7c-0.6-3.8-0.9-7.6-1.1-11.4c-0.1-2.5,0.2-5,0.3-7.7c1,0,1.8,0.1,2.8,0.1
	c0.1,1,0.2,2,0.2,3.1c1.3-0.5-0.1-4.8,3.4-2.7c-0.8-0.5-1.6-0.9-2.8-1.6c0.8-0.2,1.2-0.3,1.5-0.4c0.6-0.1,1.1-0.2,1.6-0.4
	c0.1,0,0-0.8,0-0.8c-0.6-0.1-1.2-0.2-1.9-0.2c-1.1,0-2.2,0.2-3.4,0.3C-198.7,317.4-195.3,316.8-195,312.9z M-188.2,303.5
	c-0.3,0.6-0.5,1.3-0.9,1.7c-1.1,0.9-2.2,1.7-3.4,2.5c1.2,1.2,1.2,1.2,6.8,0.4c0.2-0.9,0.4-1.8,0.6-3c-0.9,0.3-1.6,0.6-2.3,0.9
	C-187.7,305-188,304.3-188.2,303.5c1.5,0.5,3.8-1.3,5.3,1.4c0.1-1.5,0.2-3.1,0.2-4.6c-0.1,0-0.3,0-0.4,0c-0.2,0.7-0.4,1.4-0.6,1.9
	c-1.3,0.3-2.4,0.5-4.3,0.9c1.2-1.9,2.1-3.3,3.5-5.4C-189.2,300-189.2,300-188.2,303.5z M-186.2,333.1c0.1,0,0.3,0,0.4,0
	c0.4-0.7,0.7-1.4,1.2-2c0.1-0.1,0.9,0.3,1.3,0.5c-0.9,1.7,1,2.6,1.3,4.1c1.2,6.7,2.1,13.6,4.4,20c1.8,5.2,5.1,9.9,8.2,14.5
	c3.5,5.1,9.9,6.7,15.6,4.4c2.2-0.9,4.8-2.2,5.8-4c1.8-3.4,2.5-7.3,3.6-11c0.4-1.3,0.8-2.7,1.2-4.1c-1.5-0.7-1.6-3.8,0.2-5.2
	c-2.8-2.5-1.5-6.1-2.9-9.3c1.6,0.2,2.7,0.3,3.7,0.4c0-0.2,0.1-0.4,0.1-0.7c-1.3-0.2-2.5-0.5-3.6-0.7c-1.2-4-2.1-7.9-3.5-11.6
	c-1.4-3.7-3.2-7.3-5-10.8c-2-3.6-4.6-6.9-8.4-8.6c-3.1-1.3-6.4-2.2-9.7-0.5c-0.3-1-0.5-1.7-0.8-2.5c0.6,3.6-2.8,3.9-4.4,5.5
	c-1.5,1.6-2.4,4.2-5.3,3.2c0.7,0.9,1.8,1.7,1.7,2.4c-0.3,3-0.9,6-1.4,9c-0.2,1.1-0.5,2.1-0.8,3.7c-0.4-0.1-1.3-0.2-2.6-0.4
	C-186,330.4-186.1,331.8-186.2,333.1z M-181.8,306.4c1-0.2,2.6-0.5,4.4-0.9c-0.4-0.4-0.5-0.7-0.7-0.7c-2.5-0.4-3.4-1.5-1.6-3.8
	c0.2-0.3-0.2-1-0.4-1.6c-0.3,0-0.6,0-0.9,0C-181.3,301.7-181.5,304-181.8,306.4z M-188.2,318.5c-0.6,0.4-1.6,1.3-1.7,1.2
	c-2-1.5-2.4,0.5-3.3,1.5c2.3-0.3,4.6-0.6,7.2-0.9C-187.2,319.4-187.8,318.8-188.2,318.5z M-187.6,312.5c1.8,0.2,4.1,1.9,5-1.2
	c0.5-1.5-0.5-3.2-1.6-3.2c0.3,0.9,0.6,1.9,0.9,3.2C-184.8,311.7-186.2,312.1-187.6,312.5z M-191,314.2c1.1-1.5,1.7-2.4,2.4-3.3
	c-1-0.1-2-0.1-3-0.2C-191.4,311.7-191.3,312.7-191,314.2z"/>
<path class="st1" d="M145,194.2c6.8-1.6,13.1-3.2,19.5-4.5c0.8-0.2,2.1,0.5,2.7,1.2c8.2,9.7,16.3,19.4,24.4,29.1
	c0.5,0.6,0.8,1.3,1.2,1.9c0.3-0.2,0.5-0.3,0.8-0.5c1.2-4.8,2.3-9.7,3.5-14.5c1.9-8.1,3.8-16.2,5.8-24.3c0.2-1,1.2-2.2,2-2.4
	c6.1-1.6,12.2-3,18.3-4.4c0.2-0.1,0.5,0.1,1.1,0.2c-0.6,2.8-1.2,5.6-1.8,8.4c-2.9,12.7-5.9,25.5-8.8,38.2c-0.4,1.9-0.7,3.8-1.3,5.7
	c-0.3,0.8-1,1.5-1.5,2.1c0,0.8,0.1,1.7,0,2.5c-0.5,4.3-1.9,8.7-1.3,12.8c1.5,9.2,4.1,18.2,6.1,27.3c0.2,1-0.1,2.1,0.1,3.1
	c0.1,0.6,0.7,1.2,1.2,2c-2.9,0.1-1.2,2-1.6,3.2c-0.3,0.9-0.4,2.2-1,2.6c-0.7,0.4-1.9,0.1-2.9-0.1c-0.5-0.1-0.9-0.4-0.7-0.3
	c-1.1,0.9-1.8,1.8-2.7,2c-2.2,0.7-4.4,1.2-6.7,1.6c-0.9,0.2-2.5,0.3-2.7-0.1c-0.5-1.1-0.5-2.5-0.7-4c-1.9-4.3-3.3-8.9-2.4-14.3
	c-0.5,0.1-0.9,0.2-1.4,0.3c-0.3-1.4-0.6-2.9-0.9-4.4c1.1-0.3,2-0.6,2.9-0.9c0-0.2,0-0.4,0-0.6c-1.1-0.3-2.3-0.5-3.7-0.8
	c-0.8-3.6-1.6-7.5-2.5-11.3c-1.1-4.5-4.7-7.4-7.5-10.7c-11.9-14.5-23.9-28.9-35.9-43.4C146.3,196.1,145.8,195.4,145,194.2z
	 M207.4,267c0,1.4,1.1,1.7,2.5,1.2c2.8-1,0.4-2.8,0.8-3.9C209.8,265,208.8,265.8,207.4,267z M205.4,268.3c0,3.9,0.7,4.4,4.7,2.9
	C208.5,270.3,207,269.3,205.4,268.3z M213.2,276.1c-0.6-0.2-1.2-0.5-2.2-0.9c1-0.7,1.5-1,2.1-1.4c0-0.2-0.1-0.3-0.1-0.5
	c-2.6,0-5.1,0-8,0c1.8,2.1,6.2-1.7,6.1,3.2C211.9,276.4,212.6,276.2,213.2,276.1z"/>
<path class="st1" d="M-262.9,333c-1.4-6.5-2.7-12.7-4.1-19.2c6.8-1.6,13.5-3.1,20.1-4.7c3.9-0.9,7.8-1.8,11.7-2.8
	c2.9-0.8,3.3-0.6,3.5,2.5c0,0.2,0,0.5,0.1,0.7c0.7,2.9,0.7,2.9-2,3.7c0,0.1,0.1,0.4,0.1,0.4c3-0.3,3.8,1.4,4.3,3.9
	c0.6,3.5,1.7,6.9,2.4,10.4c2.6,12.5,6,24.7,8.8,37.1c2.9,12.7,6,25.3,8.9,38c0.2,0.9,0.4,1.8,0.6,2.9c-2.4,0.7-4.8,1.3-7.1,1.9
	c-3,0.8-6.1,1.3-9.1,2.2c-2,0.6-2.7-0.1-3.1-2c-3.1-13.4-6.2-26.8-9.4-40.2c-2.8-11.6-5.6-23.3-8.4-34.9c-0.1-0.3-0.2-0.7-0.2-1
	c0.3-2.8-1.5-2.6-3.3-2.2c-3.6,0.9-7.2,1.8-10.8,2.7C-260.7,332.6-261.6,332.7-262.9,333z"/>
<path class="st0" d="M135.2,158.3c-0.2-3-0.5-5.2-0.5-7.5c0-1.8-0.8-2.8-2.2-3.6c-2-1.1-3.9-2.3-6.5-3.8c2.7-1.1,4.8-2.1,7.1-2.9
	c1.6-0.6,2.5-1.5,2.7-3.2c0.3-2.2,1-4.4,1.7-7.3c1.9,2.2,3.3,3.9,4.7,5.7c1.2,1.6,2.6,2.1,4.6,1.8c2.1-0.4,4.2-0.4,6.9-0.7
	c-1.7,2.7-3.2,4.8-4.3,7.1c-0.4,0.9-0.5,2.2-0.2,3.1c0.8,2.2,1.8,4.3,3.1,7.2c-2.9-0.7-5.3-1.1-7.6-1.8c-1.6-0.5-2.7-0.1-3.9,1
	C139.2,155,137.4,156.4,135.2,158.3z"/>
<path class="st0" d="M353.4,89.3c0.9,0,1.8,0.1,2.8,0.1c1.2-3.4,5-1.7,7.1-3.1c-2.6-3.3,1.5-6.1,0.3-9.6c3.3,2.1,4.5,4.1,3.6,5
	c3.9,2.8,8.2,2.2,13.1,1.5c-1.3,2-2,4.1-3.5,5.4c-1.9,1.5-1.6,2.9-0.9,4.7c0.8,2.2,1.7,4.4,2.5,6.5c-0.2,0.2-0.4,0.3-0.6,0.5
	c-0.8-0.4-1.5-1.1-2.4-1.3c-2-0.3-4.1-0.8-6-0.5c-2,0.3-3.8,1.4-5.7,2.2c-0.9,0.4-1.7,1-0.7,2.1c0.1,0.2-0.3,0.7-1,1
	c-0.2-2.5-0.3-5-0.7-7.4c-0.1-0.9-0.8-2-1.6-2.5c-2-1.4-4.1-2.6-6.2-3.9C353.4,89.8,353.4,89.5,353.4,89.3z"/>
<path d="M296.5,109.8c-4.2-0.7-8.4-1.4-13-2.2c0.1-0.4,0.2-1.1,0.3-1.7c1.5,0.9,2.2-2.7,3.9-0.6c0.1,0.1,0.2,0.2,0.4,0.2
	c2.2,0.1,4.3,0.1,6.5,0.3c1,0.1,1.9,0.7,2.8,1.6c0.9-0.1,1.8-0.2,2.7-0.3c0,0.3,0.1,0.6,0.1,0.9c-0.9,0.2-1.9,0.3-2.8,0.6
	C297.1,108.9,296.8,109.4,296.5,109.8L296.5,109.8z"/>
<path d="M296.5,109.8c1.9-0.5,4.5,0.5,4.7-2.7c6.3,0.8,6.8,1.3,6.1,5.1C303.7,111.4,300.1,110.6,296.5,109.8
	C296.5,109.8,296.5,109.8,296.5,109.8z"/>
<path d="M314.4,114c-2-0.4-4-0.7-6-1c0.2-1.3,0.3-2.2,0.4-3.2c2.7,0.1,5.2,0.7,6.9,3.1C315.3,113.2,314.9,113.6,314.4,114z"/>
<path d="M314.4,114c0.5-0.4,0.9-0.8,1.4-1.2c0.3-0.4,0.6-1.1,0.8-1.1c1,0.3,1.9,0.7,2.8,1.1c0.2,0.1,0.3,0.5,0.3,0.6
	c-0.2,0.3-0.4,0.6-0.7,0.9c-0.5,0.4-1,0.7-2,1.3c-0.5-0.2-1.8-0.7-3-1.3c0,0,0-0.2,0.1-0.2C314.1,114.1,314.3,114.1,314.4,114z"/>
<path d="M325.5,118.2c-0.9,0.1-1.9,0.2-2.8,0.3c0-0.2-0.1-0.4-0.1-0.6c0.4-0.3,0.8-0.5,1.2-0.8c-0.1-0.2-0.1-0.4-0.2-0.5
	c-1,0.2-2,0.5-3,0.7c-0.1-0.2-0.2-0.4-0.3-0.6c1-0.7,2.1-1.9,3.1-1.8c0.9,0,1.7,1.5,2.5,2.3C325.7,117.6,325.6,117.9,325.5,118.2z"
	/>
<path class="st0" d="M398.4,282.3c2.7-1.1,4.9-2.1,7.1-2.9c1.5-0.5,2.2-1.3,2.5-2.8c0.5-2.4,1.1-4.8,1.8-7.7
	c1.9,2.2,3.3,4.2,5.1,5.9c0.8,0.8,2.1,1.4,3.2,1.4c2.4,0.1,4.8-0.3,7.9-0.5c-1.6,2.5-2.8,4.6-4.1,6.5c-0.9,1.2-1.1,2.3-0.3,3.7
	c1.1,2.1,1.9,4.3,3,7.1c-2.6-0.6-4.8-1-7-1.7c-1.7-0.5-3-0.5-4.3,0.8c-1.6,1.7-3.6,3-5.9,5c-0.1-2.8-0.3-4.9-0.3-7.1
	c0-1.8-0.5-3-2.2-3.9C402.8,285.2,400.8,283.8,398.4,282.3z"/>
<path class="st0" d="M180.7,350.2c-0.1-2.2-0.3-4.4-0.3-6.5c0-1.7-0.6-2.8-2.2-3.6c-2.1-1.1-4-2.5-6.4-4c2.6-1.1,4.8-2.2,7.1-3
	c1.5-0.5,2.1-1.4,2.4-2.9c0.5-2.4,1.1-4.7,1.7-7.6c1.5,1.9,2.8,3.3,3.8,4.8c1.4,2.3,3.3,3.1,6,2.6c1.9-0.3,3.8-0.3,6.5-0.6
	c-1.5,2.4-2.6,4.4-3.9,6.2c-1.2,1.6-1.1,3-0.3,4.7c0.9,1.9,1.5,4,2.4,6.4c-2.2-0.5-4.3-0.8-6.3-1.5c-2-0.7-3.5-0.4-5,1.1
	c-1.5,1.5-3.1,2.8-4.7,4.2C181.1,350.4,180.9,350.3,180.7,350.2z"/>
<g>
	<path class="st1" d="M384.6,312l-2.9,3.5L375,310c0.1-3,1.4-6.1,3.3-8.4c4.2-5.2,11-6.2,16-2.1c5,4.1,5.5,10.8,1.2,16.1
		c-2.4,2.9-5.3,4.5-8.5,4.6l-0.3-4.3c2.3-0.2,4-1.1,5.4-2.8c2.6-3.2,2.3-7.2-0.9-9.8c-3.1-2.5-7.1-2.1-9.7,1.1
		c-0.8,1-1.4,2.2-1.7,3.6L384.6,312z"/>
	<path class="st1" d="M376.9,318.2l7.9,9.1l-3.7,3.2l-7.7-8.9c-2.7-3.1-5.1-3.2-7.4-1.2c-2.3,2-2.5,4.4,0.2,7.5l7.7,8.9l-3.7,3.2
		l-7.9-9.1c-4.1-4.8-3.7-9.8,0.9-13.8C367.8,313.2,372.8,313.4,376.9,318.2z"/>
	<path class="st1" d="M343.4,337.1l8.5-5.1l-0.7-4.9l4.4-2.6l2.9,23.3l-4.2,2.5L335,336.8l4.5-2.7L343.4,337.1z M346.7,339.5
		l7.2,5.3l-1.3-8.8L346.7,339.5z"/>
	<path class="st1" d="M320.9,342.2l6,4l0.2-0.1l4-1.6l-2.2-5.6l4.6-1.8l7.8,20l-8.6,3.4c-5.3,2.1-9.8,0.6-11.5-3.8
		c-1.2-3-0.5-5.8,1.6-7.9l-7-4.7L320.9,342.2z M331.6,356.7l3.8-1.5l-2.7-7l-3.8,1.5c-2.8,1.1-3.7,3-2.9,5.1
		C326.8,357.1,328.7,357.8,331.6,356.7z"/>
	<path class="st1" d="M300.4,352.2l9.7-2l0.9-4.9l5-1l-4.9,22.9l-4.8,1l-13.8-19l5.1-1.1L300.4,352.2z M302.7,355.6l5,7.3l1.6-8.7
		L302.7,355.6z"/>
	<path class="st1" d="M272.2,371.2l-0.7-21.4l4.1-0.1l11.1,12.7l-0.4-13l4.9-0.2l0.7,21.4l-4.1,0.1l-11.1-12.7l0.4,13L272.2,371.2z"
		/>
	<path class="st1" d="M260.6,366.1l6.8,0.9l-0.5,4l-18.5-2.4l0.5-4l6.8,0.9l2.2-17.3l4.9,0.6L260.6,366.1z"/>
	<path class="st1" d="M232.1,346.2l1.1-3.8l16,4.5l-5.8,20.6l-15.6-4.4l1.1-3.8l10.9,3l1.3-4.5l-9.6-2.7l1-3.7l9.6,2.7l1.3-4.8
		L232.1,346.2z"/>
	<path class="st1" d="M213.5,338l1.6-3.6l15.1,6.8l-8.8,19.5l-14.8-6.7l1.6-3.6l10.3,4.6l1.9-4.2l-9.1-4.1l1.6-3.5l9.1,4.1l2-4.5
		L213.5,338z"/>
</g>
<g>
	<path class="st1" d="M169.2,111.9l2.9-3.5l6.6,5.6c-0.2,2.9-1.6,6-3.5,8.4c-4.4,5.1-11.1,5.9-16,1.7c-4.9-4.2-5.2-11-0.8-16.2
		c2.4-2.9,5.4-4.4,8.6-4.4l0.2,4.3c-2.3,0.1-4,1-5.4,2.7c-2.7,3.2-2.4,7.2,0.7,9.8c3.1,2.6,7.1,2.3,9.7-0.9c0.9-1,1.5-2.1,1.8-3.5
		L169.2,111.9z"/>
	<path class="st1" d="M177,105.9l-7.7-9.2l3.8-3.2l7.5,9.1c2.6,3.1,5,3.3,7.4,1.4c2.3-1.9,2.6-4.3,0-7.5l-7.5-9.1l3.8-3.1l7.7,9.2
		c4,4.9,3.5,9.8-1.2,13.7C186.1,111.1,181,110.7,177,105.9z"/>
	<path class="st1" d="M210.9,87.7l-8.6,5l0.6,4.9l-4.4,2.5l-2.4-23.4l4.3-2.4l19,13.8l-4.5,2.6L210.9,87.7z M207.7,85.2l-7-5.4
		l1.1,8.8L207.7,85.2z"/>
	<path class="st1" d="M233.6,83.1l-5.9-4.2l-0.2,0.1l-4.1,1.5l2.1,5.6l-4.7,1.7l-7.4-20.1l8.7-3.2c5.4-2,9.8-0.4,11.4,4.1
		c1.1,3,0.4,5.8-1.8,7.9l6.9,4.8L233.6,83.1z M223.2,68.4l-3.8,1.4l2.6,7l3.8-1.4c2.8-1,3.8-2.9,3-5.1
		C228,68.1,226.1,67.3,223.2,68.4z"/>
	<path class="st1" d="M254.3,73.5l-9.8,1.8l-1,4.9l-5,0.9l5.5-22.8l4.8-0.9l13.4,19.3l-5.1,1L254.3,73.5z M252,70.1l-4.9-7.4
		l-1.8,8.7L252,70.1z"/>
	<path class="st1" d="M282.9,55.2l0.2,21.4l-4.1,0l-10.8-12.9l0.1,13l-4.9,0l-0.2-21.4l4.1,0l10.8,12.9l-0.1-13L282.9,55.2z"/>
	<path class="st1" d="M294.4,60.6l-6.8-1l0.6-4l18.5,2.8l-0.6,4l-6.8-1l-2.6,17.2l-4.9-0.7L294.4,60.6z"/>
	<path class="st1" d="M322.4,81.1l-1.2,3.8l-15.9-4.8l6.2-20.5l15.5,4.7l-1.2,3.8l-10.8-3.3l-1.4,4.5l9.5,2.9l-1.1,3.7l-9.5-2.9
		l-1.4,4.7L322.4,81.1z"/>
	<path class="st1" d="M340.9,89.7l-1.7,3.6l-15-7.2l9.2-19.3l14.6,7l-1.7,3.6l-10.2-4.9l-2,4.2l9,4.3l-1.7,3.5l-9-4.3l-2.1,4.5
		L340.9,89.7z"/>
</g>
<path id="SVGID_x5F_1_x5F_" style="fill:none;" d="M-535.6,300.1c42.1-59.3,124.4-73.2,183.6-31s73.2,124.4,31,183.6
	s-124.4,73.2-183.6,31S-577.7,359.3-535.6,300.1z"/>
<text><textPath  xlink:href="#SVGID_x5F_1_x5F_" startOffset="0%">
<tspan  style="font-family:'Montserrat-Bold'; font-size:30.6281px;">GUARANTEE</tspan></textPath>
</text>
<path class="st1" d="M-467.7-179.7c0-16.7,0-16.9,16.2-20.5c5.6-1.2,8.4-3.9,10.8-9.2c3.3-7,2.9-12.4-1.8-18.1
	c-1.5-1.8-2.5-3.9-3.5-6c-2-4.1-1.6-8.2,1.6-11.6c4.1-4.4,8.4-8.6,12.7-12.7c3.4-3.2,7.4-3.5,11.6-1.7c1.2,0.5,2.3,1.2,3.5,1.9
	c12.3,7.3,12.3,7.4,25.1,1.3c1.6-0.8,3.1-2.9,3.7-4.8c1.4-4.1,2-8.4,3.2-12.5c1.4-4.9,4.7-7.6,9.8-7.6c5.8-0.1,11.7-0.1,17.5,0
	c5.1,0.1,8.4,2.7,9.8,7.6c0.2,0.8,0.7,1.6,0.7,2.4c0.6,10.3,5.4,17,15.8,19c2.2,0.4,4.9,0.5,6.8-0.4c3.8-1.7,7.1-4.3,10.7-6.3
	c4.9-2.7,9.2-2.2,13.2,1.6c4,3.8,7.8,7.7,11.7,11.7c3.7,3.8,3.9,8.2,1.7,12.9c-0.4,0.7-0.7,1.6-1.3,2.1c-7.7,8.1-6.9,16.8-1.5,25.6
	c1,1.6,2.9,3.2,4.7,3.8c4.1,1.4,8.4,2,12.5,3.2c5.1,1.4,7.8,4.8,7.8,10.2c0,5.7,0.1,11.3,0,17c-0.1,5.4-2.6,8.5-7.9,10.1
	c-0.6,0.2-1.3,0.6-1.9,0.6c-10.8,0.3-16.9,6.1-19.2,16.3c-0.4,2-0.5,4.6,0.4,6.4c1.8,3.7,4.3,7.1,6.4,10.7c2.8,4.9,2.3,9.2-1.6,13.2
	c-3.7,3.9-7.5,7.6-11.3,11.3c-4.1,4-8.7,4.5-13.7,1.9c-0.6-0.3-1.2-0.6-1.7-1c-7.8-6.9-16.1-7.7-24.6-1.8c-2,1.4-3.9,3.4-4.8,5.5
	c-1.5,3.7-2,7.7-3,11.6c-1.6,5.6-4.7,8.1-10.3,8.2c-5.7,0.1-11.3,0.1-17,0c-5.2,0-8.4-2.8-9.8-7.6c-0.7-2.2-1.5-4.5-1.8-6.7
	c-0.7-6.4-3-11.1-10.1-12.6c-3.7-0.7-4.1-3.5-1.6-6.4c3-3.6,6.2-7,8.9-10.8c2.4-3.3,4.8-4,8.9-2.9c36.5,9.6,71.7-18.6,70.6-56.3
	c-0.8-29.1-24.2-52.8-54-54.7c-27.7-1.7-54.1,19.5-57.8,47.4c-1.1,8,0.8,16.4,1,24.7c0.1,2-0.3,4.7-1.6,6
	c-3.8,3.7-8.1,6.9-12.2,10.3c-3.2,2.7-6,1.9-6.6-2c-1.2-6.7-5.6-8.7-11.4-9.5c-2-0.3-3.9-0.9-5.8-1.4c-7.3-1.9-9.6-4.8-9.7-12.3
	C-467.7-175-467.7-177.3-467.7-179.7z M-390.8-109c8.1-0.5,8.4,5,9.7,9.8c4.7,17.2,0.2,14.5,19,14.8c7.4,0.1,8.1,0,9.2-7.4
	c1.5-10.4,6-16.8,16.5-20.4c7.2-2.5,12.6-2.7,19,1.4c12.1,7.7,9,7.8,19-2.1c8.7-8.6,8.7-6.4,1.9-16.6c-4.8-7.1-6.4-13.7-1.3-21.1
	c1.1-1.6,1.6-3.7,2.2-5.6c1.4-4.4,4.4-6.7,8.9-7.8c16.2-4.1,16.1-4.2,15.9-21.1c0-4.2-1.5-6.1-5.7-7.2c-19.3-4.6-16.2-2.6-22.5-18.4
	c-0.1-0.3-0.3-0.6-0.4-0.9c-2.7-4.6-2.4-9,0.5-13.6c2.6-4.2,7.1-9,6.5-13c-0.6-4.2-6.3-7.6-9.5-11.6c-3.3-4.2-6.6-5-10.9-1.4
	c-8.4,7.2-17.4,9.2-27.2,2.5c-0.7-0.5-1.5-0.6-2.3-0.9c-4.6-1.3-7.1-4.4-8.2-9.1c-4-16.3-4.1-16.3-21-15.9c-0.3,0-0.7,0-1,0
	c-3.3-0.1-5.3,1.3-5.9,4.7c-0.8,3.9-1.8,7.8-2.9,11.6c-2,7.5-20.1,16.3-27.3,13.3c-0.9-0.4-1.8-0.9-2.6-1.4c-3.3-2-6.6-3.8-9.8-5.9
	c-2.6-1.7-4.8-1.8-7,0.6c-3.3,3.5-6.7,6.9-10.2,10.3c-2.2,2.1-2.2,4.2-0.6,6.6c2.2,3.5,4.3,7.1,6.5,10.7c2.3,3.7,1.9,7.3,0.8,11.4
	c-3.4,12.4-10.6,19.8-23.9,20.5c-0.2,0-0.3,0.1-0.5,0.1c-3.8,0.4-5,2.7-4.9,6.2c0.1,1.7,0,3.3,0,5c0.1,15.2-1.6,12.3,12.8,16.1
	c5.4,1.4,12.1,1.1,12.2,9.5c9-5.2,9.2-5.6,7.8-13.5c-7.5-42.8,31.3-80.9,73.9-72.5c32.7,6.5,54.2,35.2,51.1,68.4
	c-3.4,36.4-38.1,62.7-73.7,55.6c-5-1-7.9,0-10.4,3.9C-388.1-112.4-388.9-111.4-390.8-109z"/>
<path class="st0" d="M-365.9-218.9c5.1,1.3,10.3,2.4,15.3,4.1c4.7,1.7,4.9,4.5,0.9,7.5c-5,3.8-10.2,7.5-15,11.6
	c-5.9,4.9-6.6,11.7-1.9,16.5c4.9,5,11.7,4.3,16.8-1.8c3.8-4.6,7.3-9.5,11-14.2c1.2-1.4,3.3-3.7,4.2-3.4c1.7,0.7,3.3,2.6,4,4.4
	c5.8,14.6,3.5,28.3-6.7,40c-10.2,11.6-23.4,15.4-38.4,11.7c-4.1-1-6.3-0.3-8.9,2.8c-15,17.9-30.1,35.6-45.3,53.3
	c-4.4,5.2-9.8,8.4-16.8,8.4c-9.1,0-15.6-4.3-19.4-12.3c-3.6-7.5-2-17.3,4.3-23c13.6-12.3,27.5-24.1,41.4-36.1
	c4.8-4.1,9.6-8.2,14.7-12c2.9-2.2,3.5-4.4,2.6-8.1C-409.6-194.6-391.6-218.1-365.9-218.9z M-359.6-209.6c-1.6-0.5-2.4-0.8-3.2-0.9
	c-21.3-2.3-38.5,17.2-33.4,38.1c1.7,6.8,1.1,12.2-4.8,16.9c-11.4,9.2-22.6,18.6-33.8,28.1c-7.3,6.3-14.6,12.7-21.6,19.3
	c-4.3,4-5.2,10.2-2.9,15.2c2.4,5.2,7.2,7.8,13.4,7.6c5.5-0.2,8.7-3.8,11.9-7.5c14.2-16.6,28.5-33,42.2-50c5.3-6.6,10.8-8.8,19-6.7
	c17.1,4.3,33.6-6.7,36.9-24.1c0.7-3.8,0.5-7.7,0.7-11.6c-4.4,3.6-7.2,7.3-10.3,10.7c-7,7.8-18.9,8.1-26.3,0.8
	c-7.5-7.4-7.1-19.7,1-26.6C-367.3-203.3-363.7-206.2-359.6-209.6z"/>
<g>
	<path class="st1" d="M-325.1,319.2c0.3,1.2,1.1,5.6,2.3,13.2l-0.8,1.8l-25.2,4.8c-4.3,0.8-5.9,3.4-4.6,7.8c0.7,2.6,1.7,3.9,2.8,3.9
		l-0.8,0l-1,0.4c-0.5,0.8-0.6,1.8-0.2,3c0.3,1,0.9,2.3,2,4.1c1.1,1.8,1.7,3.2,2,4.1l0.1,1.1c-0.2,0.5-0.5,0.9-0.9,1.1
		c0.2,0,0.4,0,0.7,0c0.9-0.2,2.2-1,4-2.5c1.7-1.5,3-2.3,3.9-2.5c2.1-0.4,3.3-0.1,3.6,1c0.1,0.2,0.6,3.6,1.5,10.1
		c-2.2,1.4-5.2,4.9-9,10.3c-0.6,0.1-1.3,0.4-2.3,1c-1,0.6-1.6,0.9-1.8,0.9c-0.3,0.1-2.3,0-6.1,0c-1,0.5-2.6,1.1-4.6,2
		c-0.7-0.1-1.3-0.4-1.8-0.7l-2.7-9.7c-1.9-6.7-5.1-21.4-9.8-44.3l3.2-0.4l3.2-0.8l0.9-1.2c0.5-0.2,1.4-0.4,2.6-0.7
		c2.3-0.4,3.7-0.3,4.1,0.4l12.6-2.4c0-0.4,0.3-0.8,0.8-1.1l1.4-0.4c0.4-0.1,1.1,0,2,0.2c0.9,0.2,1.6,0.3,2,0.2
		c0.7-0.1,1.7-0.5,3-1.1c1.3-0.6,2.3-1,3.1-1.2c0.7-0.1,1.8-0.1,3.3,0c1.5,0.1,2.6,0.1,3.4-0.1c0.7-0.8,1.6-2,2.9-3.8L-325.1,319.2z
		 M-362,359.2c-0.1-0.5-0.5-0.8-1.1-0.9c-0.7,0.3-0.9,0.7-0.8,1.2c0.1,0.5,0.6,0.7,1.3,0.7C-362.1,360.1-361.9,359.7-362,359.2z
		 M-360.3,375.2c-0.1-0.5-0.5-0.8-1.2-1c-0.5,0.4-0.7,0.8-0.5,1.3c0.1,0.5,0.5,0.7,1.1,0.8C-360.3,376-360.1,375.7-360.3,375.2z
		 M-358,373.6c-0.1-0.5-0.5-0.8-1.2-1c-0.6,0.4-0.9,0.9-0.7,1.3c0.1,0.5,0.6,0.7,1.3,0.8C-358,374.4-357.8,374.1-358,373.6z
		 M-356.7,359.3c-0.1-0.5-0.5-0.7-1.2-0.8c-0.5,0.3-0.7,0.7-0.5,1.2c0.1,0.5,0.5,0.7,1.1,0.9C-356.8,360.2-356.6,359.8-356.7,359.3z
		 M-355.3,406.7c0.1,0.5,0,0.9-0.5,1.2c-0.6-0.1-1-0.4-1.1-0.9c-0.1-0.5,0-0.9,0.5-1.3C-355.9,405.9-355.5,406.2-355.3,406.7z
		 M-354.7,358.4c-0.2-0.6-0.5-1-1-1.4l-0.4,0.4l0.3,1.3l0.4,1.1l0.6,0.3C-354.6,359.4-354.5,358.9-354.7,358.4z M-354.4,380.5
		l-0.6-0.3l-0.6,0.6l0.7,0.4L-354.4,380.5z M-320.1,426.3c-1,0.2-2.5,0-4.5-0.4c-2-0.5-3.6-0.6-4.5-0.4c-1,0.2-1.6,1.2-1.8,3.1
		c-0.2,1.9-0.7,2.9-1.6,3.1c-4.3,0.8-8.5-0.7-12.6-4.5c-3.6-3.2-6-6.8-7.1-10.6l-1.4-4.8l2.1,1.9l0.7-6.6l-1.5-0.8
		c2.8-0.7,5.3-1.3,7.4-1.7c5.2-1,8.1-0.5,8.6,1.3c0.1,0.3,0,1-0.3,1.9c-0.3,0.9-0.4,1.6-0.2,2.1c2,6.9,6.8,9.7,14.5,8.3
		L-320.1,426.3z M-349.8,354.8c0.1,0.5-0.2,0.9-0.9,1.2c-0.6-0.1-1-0.4-1.1-0.9c-0.1-0.5,0-0.9,0.5-1.3
		C-350.5,354-350,354.3-349.8,354.8z M-348.9,415.3c-0.1-0.5-0.5-0.9-1.2-1c-0.5,0.4-0.6,0.8-0.5,1.4c0.1,0.5,0.5,0.7,1.1,0.8
		C-349,416.1-348.8,415.7-348.9,415.3z M-344,324.4c-0.1-0.5-0.5-0.7-1.2-0.8c-0.5,0.3-0.7,0.6-0.6,1.1c0.1,0.5,0.5,0.8,1.1,0.9
		C-344.1,325.3-343.9,324.9-344,324.4z M-342.2,410.7c-0.1-0.5-0.6-0.9-1.3-1c-0.5,0.4-0.6,0.8-0.5,1.4c0.1,0.5,0.5,0.7,1.1,0.8
		C-342.3,411.6-342,411.2-342.2,410.7z M-342.1,424.9c-0.1-0.5-0.5-0.8-1.3-0.9c-0.5,0.4-0.7,0.8-0.5,1.3c0.1,0.5,0.5,0.7,1.1,0.8
		C-342.2,425.7-342,425.3-342.1,424.9z M-340,409.2c-0.1-0.5-0.5-0.8-1.2-1c-0.6,0.4-0.9,0.9-0.7,1.3c0.1,0.5,0.6,0.7,1.3,0.8
		C-340,410.1-339.8,409.7-340,409.2z M-336.8,406.4c-0.1-0.5-0.5-0.8-1.2-1c-0.5,0.4-0.7,0.8-0.5,1.3c0.1,0.5,0.5,0.8,1.1,0.9
		C-336.8,407.3-336.6,406.9-336.8,406.4z M-335.9,417l-0.3-0.2l-1.3,0.1c-0.1,0.1-0.3,0.2-0.8,0.3l-0.2,0.3l1.3,0.4L-335.9,417z
		 M-300.2,393l0.1,1.2c-0.2,0.5-0.5,0.9-0.9,1c1.8,7.6,2.7,12.9,2.6,15.9c-0.1,6.9-3.1,10.9-9,12.1l0.1,1.4l1.7,0.9l0.1,0.5
		c-0.2,0.9-2,2.5-5.4,4.7l-2.3-8.3c-0.5,0.5-1,1.9-1.4,4.2c-0.4,2.3-0.9,3.6-1.4,4.1c-0.6-1.5-1.2-3.2-1.8-5.2
		c-0.5-1.9-0.2-4.9,0.9-8.9c1.2-4,1.5-6.9,0.9-8.8l-9-31.9c-0.1-0.2-0.8-1.2-2.1-2.8l-0.3-1l1-1.3c-0.9-0.1-1.8-0.3-2.7-0.6
		c-0.1-0.3,0-0.7,0.3-1l-2.2,0.3l-1.8,1.4c-0.3-1-0.2-2.1,0.3-3.4l0.2,0c-0.1,0-0.1,0-0.1,0c0.4,0.2,1.3,0.3,2.8,0.5l-0.8-2.9
		l-3.5,0.7l-0.5-1.7c-1.1-4-0.6-6.4,1.6-7.1l-2.9-0.5c0.6-0.2,1.8-0.5,3.7-0.9c5.3-1,10.5,0,15.7,2.9c5.2,2.9,8.4,6.6,9.6,10.9
		c-0.2,0.5-0.6,0.9-1.1,1.3l4.3,15.4c0.6,0.2,1.2,0.4,1.7,0.8l0.1,0.5c-0.5,1.7-0.7,2.6-0.6,2.9c0.1,0.4,0.5,0.9,1.1,1.5
		C-300.7,392.2-300.3,392.7-300.2,393z M-331.8,420.1l-0.9-0.5l-0.4,0.7l0.6,0.2L-331.8,420.1z M-330.9,434.5l-0.7,0.6l-0.7-0.3
		l0.6-0.6L-330.9,434.5z M-328.4,356.1c-0.1-0.2-0.3-0.5-0.6-0.9l-0.8,0.1l-0.5,1.2c0.1,0.5,0.6,0.7,1.3,0.7
		C-328.5,357-328.3,356.6-328.4,356.1z M-324.6,414.9l-0.6,0.7l-0.8-0.5l0.5-0.5L-324.6,414.9z M-323.9,422.4l-1,0.2l0.1,1.1l1-0.4
		L-323.9,422.4z M-323.1,370.3c-0.1-0.5-0.5-0.7-1.2-0.8c-0.5,0.3-0.7,0.7-0.5,1.2c0.1,0.5,0.5,0.7,1.1,0.9
		C-323.2,371.1-323,370.7-323.1,370.3z M-320.2,365.3l-1.3,0.2c-0.5,2.1-1.5,4.9-2.9,8.2l1.1,0.5c0.7,0.8,1.1,1.9,1.2,3.4
		C-321.7,374.9-321.1,370.8-320.2,365.3z M-314.4,380.5l-2.7,0.5l-1-3.6c-2.2,0.4-3.6,1.6-4.2,3.5l2.1-1.5l0.7,0.1l1,3.5l3.1-0.6
		l-3.1,3.2l1.7,0.8C-314.6,384.3-313.8,382.3-314.4,380.5z M-319.1,318.7c0.1,0.5-0.1,0.8-0.7,1.1c-0.6-0.1-1-0.3-1.1-0.8
		c-0.1-0.5,0-0.9,0.5-1.3C-319.6,317.9-319.2,318.2-319.1,318.7z M-318.8,375.9c-0.1-0.5-0.5-0.7-1.1-0.9c-0.6,0.4-0.9,0.8-0.8,1.2
		c0.1,0.5,0.6,0.7,1.3,0.8C-318.9,376.8-318.7,376.4-318.8,375.9z M-318.7,431.2l-1.2,0.2l-0.6-2.1L-318.7,431.2z M-318.5,373.3
		l-0.9-0.5l-0.4,0.7l0.6,0.3L-318.5,373.3z M-317.6,389.8c-0.1-0.5-0.5-0.8-1.3-0.9c-0.5,0.4-0.7,0.8-0.5,1.3
		c0.1,0.5,0.5,0.8,1.1,0.9C-317.6,390.7-317.4,390.3-317.6,389.8z M-317.4,367.1c-0.1-0.5-0.5-0.8-1.2-1c-0.6,0.4-0.9,0.9-0.7,1.3
		c0.1,0.5,0.6,0.7,1.3,0.7C-317.4,367.9-317.2,367.6-317.4,367.1z M-317,392.4l-0.9-0.5l-0.4,0.7l0.7,0.4L-317,392.4z M-316.8,370.2
		l-0.8-1l-0.5,0.3l0.1,1c0.1,0.1,0.2,0.3,0.4,0.6l0.6,0.2L-316.8,370.2z M-315.4,388.2c-0.1-0.5-0.5-0.7-1.1-0.8
		c-0.7,0.3-0.9,0.7-0.8,1.1c0.1,0.5,0.6,0.7,1.3,0.8C-315.4,389.1-315.2,388.7-315.4,388.2z M-314.7,366.6c-0.1-0.5-0.5-0.8-1.2-1
		c-0.6,0.4-0.9,0.9-0.7,1.3c0.1,0.5,0.6,0.7,1.3,0.7C-314.8,367.4-314.6,367.1-314.7,366.6z M-314.5,395.7c-0.1-0.5-0.6-0.8-1.4-0.9
		c-0.5,0.4-0.7,0.8-0.5,1.3c0.1,0.5,0.5,0.8,1.1,0.9C-314.6,396.6-314.3,396.2-314.5,395.7z M-314.7,375.1l-1.5-0.8l0.3,1
		L-314.7,375.1z M-314.3,393.1l-0.7-0.5l-0.6,0.6l0.9,0.5L-314.3,393.1z M-313.3,385.8c-0.1-0.5-0.6-0.8-1.4-0.9
		c-0.5,0.4-0.7,0.8-0.5,1.3c0.1,0.5,0.5,0.7,1.1,0.9C-313.4,386.6-313.2,386.2-313.3,385.8z M-313.6,369.6l-1.2,0.2l0.3,1
		L-313.6,369.6z M-313.3,415.6l-0.8-0.4l-0.4,0.6l0.6,0.3L-313.3,415.6z M-310,402.4c-0.1-0.5-0.5-0.7-1.2-0.8l-0.3,0.1
		c-0.1-0.5-0.5-0.8-1.2-1c-0.6,0.4-0.9,0.9-0.7,1.3c0.2,0.7,0.8,1,1.7,0.8c0.1,0.5,0.5,0.7,1.1,0.8
		C-310.1,403.3-309.9,402.9-310,402.4z M-312.1,377.5l-0.6-0.6l-0.5,0.8l0.8,0.2L-312.1,377.5z M-310.9,386l-0.8-0.6l-0.5,0.6
		l0.8,0.5L-310.9,386z M-311.6,401.6c0.1,0.5,0.1,0.9-0.2,1.1C-311.9,402.3-311.8,401.9-311.6,401.6z M-309.9,388.4
		c-0.1-0.5-0.5-0.8-1.3-0.9c-0.5,0.4-0.8,0.8-0.6,1.3c0.1,0.5,0.6,0.8,1.2,0.8C-310,389.3-309.8,388.9-309.9,388.4z M-309.9,375.4
		l-0.9-1l-0.3,0.2l0,1l0.5,0.6l0.4,0.2L-309.9,375.4z M-306,358.4l-1.2,0.8l-1.4-0.3l0.2-0.4c0.2,0,0.5-0.1,0.9-0.3l1.2-0.1
		L-306,358.4z M-305,397.8l-0.7-0.5l-0.6,0.7l0.9,0.4L-305,397.8z M-303.7,408.7l-0.8-0.2l-0.5,0.5l0.7,0.5L-303.7,408.7z
		 M-302,372.8l-1.2,0.7l-1.4-0.2l0.2-0.3c0.2-0.1,0.5-0.2,0.9-0.3l1.2-0.1L-302,372.8z M-302.7,414c-0.1-0.5-0.5-0.7-1.2-0.8
		c-0.6,0.3-0.8,0.7-0.7,1.1c0.1,0.5,0.5,0.7,1.2,0.8C-302.8,414.8-302.5,414.5-302.7,414z M-300.5,406.1l-3-0.7l0.3,1.2
		L-300.5,406.1z M-301.7,401.9l-0.4,0.1c-0.6,0.1-0.9,0.5-0.7,1l0.1,0.3l1.1-0.4L-301.7,401.9z M-299.5,383.2
		c0.1,0.5-0.1,0.9-0.7,1.2c-0.7-0.1-1.1-0.4-1.2-0.8c-0.1-0.5,0.1-0.9,0.6-1.3C-300,382.4-299.6,382.7-299.5,383.2z M-299.5,411.3
		c-0.1-0.5-0.5-0.8-1.3-0.9c-0.5,0.4-0.8,0.8-0.6,1.3c0.1,0.5,0.6,0.8,1.2,0.8C-299.5,412.2-299.3,411.8-299.5,411.3z M-299.1,408
		c-0.1-0.5-0.5-0.8-1.2-1c-0.6,0.4-0.9,0.9-0.7,1.3c0.1,0.5,0.6,0.8,1.3,0.8C-299.1,408.9-298.9,408.5-299.1,408z M-296.5,403.1
		c0.1,0.5-0.1,0.8-0.6,1.1c-0.7,0-1.2-0.3-1.3-0.7c-0.1-0.5,0.1-0.8,0.8-1.1C-297,402.4-296.6,402.7-296.5,403.1z"/>
</g>
<rect x="-335.2" y="2.1" transform="matrix(0.9744 -0.225 0.225 0.9744 -21.8641 -55.7667)" style="fill:none;" width="159" height="132"/>
<text transform="matrix(0.9744 -0.2249 0.2249 0.9744 -319.8857 143.3372)" class="st1" style="font-family:'DirtyEgo'; font-size:180px;">7</text>
<g>
	<path class="st1" d="M115.6,201.1l2.9,12.7l-19.1,98.8l-20.3,4.7l18.5-95.1l-40.2,9.3l4,17.4l-17.7,4.1l-7.7-33.5L115.6,201.1z"/>
</g>
</svg>
