<svg xmlns="http://www.w3.org/2000/svg" width="100" height="127" viewBox="0 0 100 127">
  <defs>
    <style>
      .cls-1 {
        fill: #ecb808;
        fill-rule: evenodd;
      }
    </style>
  </defs>
  <path class="cls-1" d="M99.111,60.465c-0.026.185-.13,0.744-0.34,1.7a50.228,50.228,0,0,1-3.346,10.038c-5.384,12.913-17.25,32.748-43.2,54a3.488,3.488,0,0,1-4.443,0c-25.98-21.248-37.82-41.083-43.2-54A50.768,50.768,0,0,1,1.228,62.168c-0.209-.959-0.313-1.519-0.34-1.7A50.99,50.99,0,0,1,0,50.906C0,22.844,22.425,0,49.974,0S99.948,22.844,100,50.906A53.269,53.269,0,0,1,99.111,60.465ZM49.974,7.161C26.32,7.161,7.057,26.785,7.057,50.879a44.309,44.309,0,0,0,.784,8.309c0,0.079.026,0.132,0.026,0.185,0.026,0.136.079,0.534,0.235,1.145v0.054A45.744,45.744,0,0,0,11,69.253c0.026,0.025.026,0.079,0.053,0.105,4.887,11.8,15.6,29.793,38.918,49.415C73.288,99.151,84,81.154,88.892,69.358c0.026-.026.026-0.08,0.052-0.105a42.852,42.852,0,0,0,2.9-8.681V60.518c0.13-.611.209-1.009,0.235-1.145,0-.053.026-0.105,0.026-0.158a44.186,44.186,0,0,0,.784-8.335C92.89,26.785,73.628,7.161,49.974,7.161Zm0,76.626c-17.485,0-31.73-14.509-31.73-32.323s14.245-32.322,31.73-32.322S81.7,33.654,81.7,51.464,67.459,83.787,49.974,83.787Zm0-57.455a25.138,25.138,0,0,0,0,50.267A25.138,25.138,0,0,0,49.974,26.332Z"/>
</svg>