<svg xmlns="http://www.w3.org/2000/svg" width="122" height="122" viewBox="0 0 122 122">
  <defs>
    <style>
      .cls-1 {
        fill: #ecb808;
        fill-rule: evenodd;
      }
    </style>
  </defs>
  <path class="cls-1" d="M119.11,57.784a4.921,4.921,0,0,1-.593.052,3.459,3.459,0,0,1-3.43-2.883A58.98,58.98,0,0,0,66.969,6.9,3.471,3.471,0,1,1,68.1.052a66.031,66.031,0,0,1,53.843,53.765A3.414,3.414,0,0,1,119.11,57.784ZM67.15,22.172a40.1,40.1,0,0,1,32.7,32.649,3.484,3.484,0,0,1-2.863,4.019,4.592,4.592,0,0,1-.593.048A3.457,3.457,0,0,1,92.962,56,33.161,33.161,0,0,0,65.937,29.021a3.438,3.438,0,0,1-2.811-4.015A3.5,3.5,0,0,1,67.15,22.172Zm-0.9,59.091c0.747,0.464,1.624.9,2.552,1.365,0.645,0.336,1.315.671,1.986,1.034l8.149-8.114a12.433,12.433,0,0,1,8.819-3.964,12.021,12.021,0,0,1,8.716,3.991l14.157,14.188A12.358,12.358,0,0,1,114.6,98.6,12.847,12.847,0,0,1,110.7,107.5c-1.109,1.158-2.243,2.264-3.352,3.321a58.286,58.286,0,0,0-4.513,4.663c-0.025.046-.077,0.076-0.1,0.126A19.452,19.452,0,0,1,87.856,122c-0.516,0-1.082-.024-1.624-0.052-8.844-.567-16.761-3.887-22.692-6.695A121.324,121.324,0,0,1,23.131,83.662C13.822,72.486,7.582,62.056,3.4,50.8,1.7,46.223-.516,39.219.1,31.7a18.816,18.816,0,0,1,5.6-11.97l8.768-8.833c0.025-.024.025-0.024,0.052-0.052A12.631,12.631,0,0,1,23.286,7.06a12.21,12.21,0,0,1,8.639,3.782c1.675,1.546,3.3,3.192,4.847,4.79,0.774,0.823,1.6,1.65,2.4,2.447l7.04,7.028c5.416,5.408,5.416,12.41,0,17.818-0.722.721-1.444,1.468-2.166,2.188-1.909,1.933-3.868,3.941-5.983,5.87a52.227,52.227,0,0,0,6.963,10.971A88.5,88.5,0,0,0,66.247,81.263ZM39.557,66.28a56.447,56.447,0,0,1-8.329-13.57c-0.026-.078-0.052-0.157-0.077-0.231a5.249,5.249,0,0,1,1.34-5.848,0.585,0.585,0,0,1,.129-0.124c2.244-2.012,4.307-4.071,6.473-6.284,0.748-.72,1.47-1.468,2.218-2.216,2.734-2.732,2.734-5.251,0-7.984L34.271,23c-0.825-.849-1.651-1.674-2.45-2.5-1.573-1.62-3.068-3.139-4.642-4.611L27.1,15.812a5.516,5.516,0,0,0-3.765-1.8,5.864,5.864,0,0,0-3.92,1.829l-8.793,8.78a11.818,11.818,0,0,0-3.559,7.648c-0.387,4.713.489,9.71,2.888,16.12,3.894,10.5,9.773,20.291,18.567,30.872a114.535,114.535,0,0,0,38.061,29.766c5.338,2.551,12.455,5.536,20.114,6.029,0.386,0.021.8,0.021,1.186,0.021a12.437,12.437,0,0,0,9.7-4.093,67.328,67.328,0,0,1,4.977-5.149c1.109-1.084,2.14-2.062,3.146-3.142,2.63-2.732,2.63-5.432-.026-8.06L91.466,80.442l-0.052-.052A5.249,5.249,0,0,0,87.7,78.509a5.841,5.841,0,0,0-3.894,1.933l-8.819,8.806a5.516,5.516,0,0,1-3.92,1.777,5.589,5.589,0,0,1-2.553-.645c-0.1-.05-0.206-0.126-0.31-0.181-0.748-.462-1.625-0.9-2.553-1.365a34.144,34.144,0,0,1-3.172-1.724,94.6,94.6,0,0,1-22.9-20.8ZM105.7,102.688C105.675,102.715,105.675,102.688,105.7,102.688Z"/>
</svg>