<?xml version="1.0" encoding="UTF-8"?>
<!-- Generator: Adobe Illustrator 19.0.0, SVG Export Plug-In . SVG Version: 6.00 Build 0)  -->
<svg version="1.1" id="Layer_1" xmlns="http://www.w3.org/2000/svg" xmlns:xlink="http://www.w3.org/1999/xlink" x="0px" y="0px" viewBox="0 0 275 54.5" style="enable-background:new 0 0 275 54.5;" xml:space="preserve">
<style type="text/css">
	.st0{clip-path:url(#SVGID_2_);fill:url(#SVGID_3_);}
	.st1{clip-path:url(#SVGID_5_);fill:url(#SVGID_6_);}
	.st2{clip-path:url(#SVGID_8_);fill:#FFFFFF;}
	.st3{clip-path:url(#SVGID_10_);fill:url(#SVGID_11_);}
	.st4{clip-path:url(#SVGID_13_);fill:#F8B133;}
	.st5{clip-path:url(#SVGID_15_);fill:url(#SVGID_16_);}
	.st6{clip-path:url(#SVGID_18_);fill:#F8B133;}
	.st7{clip-path:url(#SVGID_18_);fill:#1D1D1B;}
</style>
<g>
	<defs>
		<path id="SVGID_1_" d="M67.5,19.8c-0.8,0-1.6,0-2.4,0.2c-0.7,0.1-1.4,0.4-2.1,0.9c-0.5,0.4-0.9,0.8-1.1,1.3    c-0.3,0.5-0.5,1-0.6,1.6c-0.1,0.6-0.2,1.2-0.3,1.8c-0.1,0.6-0.1,1.2-0.1,1.8c0,0.6,0,1.2,0.1,1.9c0,0.7,0.1,1.3,0.3,2    c0.1,0.7,0.3,1.3,0.6,1.9c0.3,0.6,0.6,1.1,1.1,1.5c0.6,0.6,1.3,1,2.1,1.1c0.9,0.1,1.7,0.2,2.6,0.2h4.1c-0.2-0.1-0.3-0.3-0.5-0.4    c-1.1-1.1-1.8-2.4-2.2-3.8c-0.3-1-0.3-2-0.2-3.1c0.1-1,0.4-2,0.9-2.9c0.2-0.4,0.5-0.7,0.8-1.1c1.3-1.5,2.3-3.1,3.2-4.9H67.5z"/>
	</defs>
	<clipPath id="SVGID_2_">
		<use xlink:href="#SVGID_1_" style="overflow:visible;"/>
	</clipPath>
	
		<linearGradient id="SVGID_3_" gradientUnits="userSpaceOnUse" x1="0" y1="54.5095" x2="1" y2="54.5095" gradientTransform="matrix(7.5063 36.8167 36.8167 -7.5063 -1946.1512 404.663)">
		<stop offset="0" style="stop-color:#EF8115"/>
		<stop offset="1" style="stop-color:#FCC30E"/>
	</linearGradient>
	<polygon class="st0" points="73.2,17.3 76.9,35.3 61.4,38.5 57.7,20.4  "/>
</g>
<g>
	<defs>
		<path id="SVGID_4_" d="M62.8,9.4v5.5h12.7c0-0.1,0-0.2,0.1-0.3c0.2-1.4,0.2-2.9-0.5-4.2c0,0,0-0.1,0-0.1c0,0,0,0,0,0l0,0    c0,0,0,0,0,0c0.2,0.1,0.3,0.1,0.5,0.2c0.9,0.6,1.6,1.4,2.3,2.2c0.9,1,1.5,2.1,2,3.3c0.1,0.3,0.3,0.6,0.4,0.9    c0.1,0.2,0.2,0.5,0.2,0.8c0,0.1,0,0.2,0,0.3c0.1,0.4,0.2,0.7,0.2,1.1c0.1,0.5,0.1,1,0.1,1.6c0,0.8-0.1,1.7-0.4,2.5    c-0.2,0.6-0.4,1.2-0.6,1.7c0,0.1-0.1,0.2-0.1,0.2h0.1h0.4c0.5-0.4,1.1-0.9,1.4-1.5c0.2-0.3,0.5-0.6,0.7-0.9    c0.2-0.3,0.4-0.7,0.5-1.1c0.2-0.4,0.3-0.9,0.3-1.4c0-0.1,0-0.1,0.1-0.3c0.1,0.1,0.1,0.1,0.2,0.2c0.4,0.9,0.8,1.9,1.1,2.9    c0.2,0.9,0.4,1.8,0.6,2.7c0,0.1,0,0.1,0,0.2c0.1,1.3,0.2,2.6,0.1,3.9c-0.1,1.8-0.6,3.5-1.7,5c-0.3,0.5-0.7,0.9-1.1,1.3H84    c0.8,0,1.6-0.1,2.4-0.2c0.7-0.1,1.3-0.5,1.9-1c0.5-0.6,0.9-1.2,1-1.8c0.1-0.7,0.2-1.5,0.2-2.2V19c0-0.5,0-1.2-0.1-1.8    c0-0.6-0.2-1.3-0.3-1.9c-0.2-0.6-0.4-1.3-0.8-1.9c-0.3-0.6-0.7-1.2-1.2-1.7c-0.5-0.5-1.3-1-2.4-1.5c-1-0.5-2.4-0.7-4-0.7H62.8z"/>
	</defs>
	<clipPath id="SVGID_5_">
		<use xlink:href="#SVGID_4_" style="overflow:visible;"/>
	</clipPath>
	
		<linearGradient id="SVGID_6_" gradientUnits="userSpaceOnUse" x1="0" y1="54.4906" x2="1" y2="54.4906" gradientTransform="matrix(7.5063 36.8167 36.8167 -7.5063 -1935.9867 402.5906)">
		<stop offset="0" style="stop-color:#EF8115"/>
		<stop offset="1" style="stop-color:#FCC30E"/>
	</linearGradient>
	<polygon class="st1" points="88.4,4.2 94.6,34.9 63.9,41.2 57.6,10.5  "/>
</g>
<g>
	<defs>
		<rect id="SVGID_7_" width="275" height="54.5"/>
	</defs>
	<clipPath id="SVGID_8_">
		<use xlink:href="#SVGID_7_" style="overflow:visible;"/>
	</clipPath>
	<polygon class="st2" points="75.1,10.2 75.1,10.2 75.1,10.2  "/>
</g>
<g>
	<defs>
		<path id="SVGID_9_" d="M76.8,27.7c0,0.3-0.1,0.6-0.2,0.9c-0.4,1.1-0.9,2-1.7,2.9c-0.1,0.1-0.2,0.2-0.3,0.4    c-0.2,0.3-0.3,0.6-0.3,0.9c0,0.3,0,0.7,0.1,1c0.1,0.5,0.4,0.9,0.7,1.3c0.2,0.2,0.4,0.4,0.6,0.5c0.3,0.1,0.5,0.2,0.8,0.3    c0.1,0,0.2,0,0.4,0l0.2,0c0.2,0,0.3,0,0.5-0.1c0.3-0.1,0.5-0.2,0.8-0.3c0.3-0.2,0.6-0.4,0.8-0.7c0.3-0.4,0.5-1,0.5-1.7    c0-0.4-1.1-4.4-2.6-6c-0.1-0.1-0.2-0.2-0.3-0.4C76.8,27.1,76.8,27.4,76.8,27.7"/>
	</defs>
	<clipPath id="SVGID_10_">
		<use xlink:href="#SVGID_9_" style="overflow:visible;"/>
	</clipPath>
	
		<linearGradient id="SVGID_11_" gradientUnits="userSpaceOnUse" x1="0" y1="54.526" x2="1" y2="54.526" gradientTransform="matrix(5.7329 0 0 -5.7329 74.1716 343.9028)">
		<stop offset="0" style="stop-color:#EF8115"/>
		<stop offset="1" style="stop-color:#FCC30E"/>
	</linearGradient>
	<rect x="74.3" y="26.8" class="st3" width="5.5" height="9.1"/>
</g>
<g>
	<defs>
		<rect id="SVGID_12_" width="275" height="54.5"/>
	</defs>
	<clipPath id="SVGID_13_">
		<use xlink:href="#SVGID_12_" style="overflow:visible;"/>
	</clipPath>
	<polygon class="st4" points="118.2,54.4 118.2,48.8 115.9,48.8 115.9,47.5 122.1,47.5 122.1,48.8 119.7,48.8 119.7,54.4  "/>
	<polygon class="st4" points="125.4,54.4 125.4,47.5 126.9,47.5 126.9,50.2 129.9,50.2 129.9,47.5 131.4,47.5 131.4,54.4    129.9,54.4 129.9,51.5 126.9,51.5 126.9,54.4  "/>
	<polygon class="st4" points="135.2,54.4 135.2,47.5 140.7,47.5 140.7,48.8 136.7,48.8 136.7,50.2 140.5,50.2 140.5,51.5    136.7,51.5 136.7,53.1 140.8,53.1 140.8,54.4  "/>
	<polygon class="st4" points="149.6,54.4 149.6,47.5 151.1,47.5 151.1,50.2 154.1,50.2 154.1,47.5 155.6,47.5 155.6,54.4    154.1,54.4 154.1,51.5 151.1,51.5 151.1,54.4  "/>
	<polygon class="st4" points="159.4,54.4 159.4,47.5 164.9,47.5 164.9,48.8 160.9,48.8 160.9,50.2 164.7,50.2 164.7,51.5    160.9,51.5 160.9,53.1 165,53.1 165,54.4  "/>
	<path class="st4" d="M168.1,54.4l3-6.9h1.5l2.9,6.9h-1.4l-0.5-1.1h-3.5l-0.5,1.1H168.1z M170.6,52.1h2.5l-0.5-1.3l-0.7-1.8   c-0.2,0.7-0.5,1.3-0.7,1.8L170.6,52.1z"/>
	<polygon class="st4" points="179.7,54.4 179.7,48.8 177.4,48.8 177.4,47.5 183.6,47.5 183.6,48.8 181.2,48.8 181.2,54.4  "/>
	<rect x="186.9" y="47.5" class="st4" width="1.5" height="6.9"/>
	<path class="st4" d="M192.3,54.4v-6.9h1.6l1.8,2.7c0.1,0.2,0.3,0.5,0.5,0.8c0.2,0.3,0.4,0.5,0.5,0.7l0.2,0.3v-4.5h1.5v6.9h-1.6   l-1.7-2.6c-0.2-0.3-0.4-0.6-0.6-0.9c-0.2-0.3-0.4-0.6-0.5-0.8l-0.2-0.3v4.6H192.3z"/>
	<path class="st4" d="M201.9,51c0-1,0.3-1.8,1-2.5c0.7-0.7,1.6-1,2.6-1c0.9,0,1.7,0.3,2.3,0.8l-0.9,1c-0.4-0.3-0.9-0.4-1.5-0.4   c-0.6,0-1.1,0.2-1.5,0.7s-0.6,1-0.6,1.6c0,0.6,0.2,1.1,0.6,1.6c0.4,0.4,0.9,0.6,1.5,0.6c0.6,0,1.1-0.2,1.5-0.7v-1h-1.1v-1.2h2.5   v2.8c-0.3,0.5-0.7,0.8-1.3,1.1s-1.1,0.4-1.7,0.4c-1.1,0-1.9-0.3-2.6-1S201.9,52,201.9,51"/>
	<path class="st4" d="M217.4,51c0-1,0.3-1.8,1-2.5c0.7-0.7,1.6-1,2.6-1c0.9,0,1.7,0.3,2.3,0.8l-0.9,1c-0.4-0.3-0.9-0.4-1.5-0.4   c-0.6,0-1.1,0.2-1.5,0.7s-0.6,1-0.6,1.6c0,0.6,0.2,1.1,0.6,1.6c0.4,0.4,0.9,0.6,1.5,0.6c0.6,0,1.1-0.2,1.5-0.7v-1h-1.1v-1.2h2.5   v2.8c-0.3,0.5-0.7,0.8-1.3,1.1s-1.1,0.4-1.7,0.4c-1.1,0-1.9-0.3-2.6-1S217.4,52,217.4,51"/>
	<rect x="227.8" y="47.5" class="st4" width="1.5" height="6.9"/>
	<path class="st4" d="M232.4,54.4l3-6.9h1.5l2.9,6.9h-1.4l-0.5-1.1h-3.5l-0.5,1.1H232.4z M235,52.1h2.5l-0.5-1.3l-0.7-1.8   c-0.2,0.7-0.5,1.3-0.7,1.8L235,52.1z"/>
	<path class="st4" d="M243.1,54.4v-6.9h1.6l1.8,2.7c0.1,0.2,0.3,0.5,0.5,0.8c0.2,0.3,0.4,0.5,0.5,0.7l0.2,0.3v-4.5h1.5v6.9h-1.6   l-1.7-2.6c-0.2-0.3-0.4-0.6-0.6-0.9c-0.2-0.3-0.4-0.6-0.5-0.8l-0.2-0.3v4.6H243.1z"/>
	<polygon class="st4" points="254.9,54.4 254.9,48.8 252.6,48.8 252.6,47.5 258.8,47.5 258.8,48.8 256.4,48.8 256.4,54.4  "/>
	<path class="st4" d="M261.5,53.6l0.5-1.2c0.7,0.5,1.5,0.8,2.3,0.8c0.4,0,0.7-0.1,0.9-0.2c0.3-0.2,0.4-0.4,0.4-0.6   c0-0.2-0.1-0.4-0.3-0.5c-0.2-0.1-0.5-0.2-0.9-0.3c-0.3-0.1-0.6-0.1-0.8-0.2c-0.2-0.1-0.5-0.1-0.7-0.3c-0.3-0.1-0.5-0.2-0.6-0.4   c-0.2-0.1-0.3-0.3-0.4-0.5c-0.1-0.2-0.2-0.5-0.2-0.8c0-0.6,0.3-1.1,0.8-1.5c0.5-0.3,1.1-0.5,1.8-0.5c0.9,0,1.8,0.2,2.5,0.7   l-0.5,1.2c-0.6-0.4-1.3-0.6-2-0.6c-0.3,0-0.5,0-0.7,0.2c-0.2,0.1-0.3,0.3-0.3,0.5c0,0.2,0.1,0.4,0.3,0.5c0.2,0.1,0.5,0.2,1,0.3   c1.8,0.4,2.6,1.1,2.6,2.2c0,0.7-0.3,1.2-0.9,1.6c-0.6,0.4-1.2,0.6-2,0.6C263.2,54.5,262.3,54.2,261.5,53.6"/>
</g>
<g>
	<defs>
		<path id="SVGID_14_" d="M30.9,0c-0.5,0-1.1,0-1.7,0.1c-0.6,0.1-1.2,0.2-1.8,0.5c-0.6,0.2-1.1,0.6-1.6,1c-0.4,0.4-0.8,1.1-1,1.9    l-5.6,18.9c0,0.2-0.1,0.4-0.3,0.7c-0.3,0.5-0.6,0.7-1,0.7c-0.4,0-0.7-0.2-0.8-0.4c-0.2-0.2-0.4-0.6-0.6-1.3l-6-21.8H0l8.8,28.8    c0.4,1.5,0.9,2.8,1.5,3.7c0.5,0.9,1.1,1.6,1.7,2.1c0.6,0.5,1.4,0.8,2.2,1c0.9,0.2,1.9,0.3,3,0.3c1.3,0,2.4-0.1,3.3-0.4    c0.9-0.3,1.6-0.6,2.1-1.1c0.6-0.5,1-1.1,1.4-1.8c0.4-0.7,0.7-1.6,1-2.5l4.7-16.1l0-0.1l0-0.1c0-0.1,0.1-0.2,0.2-0.5    c0.2-0.8,0.8-0.9,1-0.9c0.2,0,0.8,0.1,1,0.9c0.1,0.3,0.1,0.4,0.2,0.4l0,0.1l0,0.1l4.7,16.1c0.3,0.9,0.6,1.8,1,2.5    c0.4,0.7,0.8,1.3,1.4,1.8c0.6,0.5,1.3,0.9,2.1,1.1c0.9,0.3,2,0.4,3.3,0.4c1.1,0,2.1-0.1,3-0.3c0.8-0.2,1.5-0.5,2.2-1    c0.6-0.5,1.2-1.2,1.7-2.1c0.5-0.9,1-2.2,1.5-3.7l8.7-28.8H51.3l-6,21.8c-0.2,0.7-0.4,1-0.6,1.3c-0.2,0.2-0.5,0.4-0.8,0.4    c-0.4,0-0.7-0.2-1-0.7c-0.2-0.3-0.3-0.5-0.3-0.7L37,3.5c-0.2-0.8-0.6-1.5-1-1.9c-0.5-0.5-1-0.8-1.6-1c-0.6-0.2-1.2-0.4-1.8-0.5    C32,0,31.4,0,30.9,0z"/>
	</defs>
	<clipPath id="SVGID_15_">
		<use xlink:href="#SVGID_14_" style="overflow:visible;"/>
	</clipPath>
	
		<linearGradient id="SVGID_16_" gradientUnits="userSpaceOnUse" x1="0" y1="54.526" x2="1" y2="54.526" gradientTransform="matrix(62.8862 0 0 -62.8862 -0.51 3447.1179)">
		<stop offset="0" style="stop-color:#EF8115"/>
		<stop offset="1" style="stop-color:#FCC30E"/>
	</linearGradient>
	<rect x="0" y="0" class="st5" width="61.9" height="36.4"/>
</g>
<g>
	<defs>
		<rect id="SVGID_17_" width="275" height="54.5"/>
	</defs>
	<clipPath id="SVGID_18_">
		<use xlink:href="#SVGID_17_" style="overflow:visible;"/>
	</clipPath>
	<path class="st6" d="M104.7,9.5c-0.8,0-1.7,0.1-2.6,0.3c-0.9,0.2-1.8,0.4-2.6,0.8c-0.8,0.3-1.6,0.8-2.3,1.4   c-0.7,0.6-1.3,1.2-1.6,1.9c-0.4,0.7-0.7,1.5-0.9,2.2c-0.2,0.8-0.3,1.5-0.4,2.3c-0.1,0.8-0.1,1.5-0.1,2.1v15.5h8.9V23.3   c0-0.8,0.1-1.8,0.2-2.8c0.2-1.1,0.6-2.1,1.3-3c0.8-1,1.7-1.7,2.8-1.9c1-0.2,2-0.4,3.1-0.4h2.8V9.4h-6.1   C106.4,9.4,105.6,9.4,104.7,9.5"/>
	<path class="st6" d="M154.4,12c-1-0.9-2.2-1.6-3.7-2c-1.5-0.4-3-0.6-4.6-0.6h-24.1c-1.1,0-2.1,0.1-3,0.3c-0.8,0.1-1.4,0.6-2,1.4   c-0.4,0.4-0.6,0.9-0.7,1.3c-0.1,0.5-0.2,1-0.2,1.3v22.3h8.9V17.8c0-0.3,0-0.6,0.1-0.9c0.1-0.4,0.2-0.7,0.4-1l0,0l0,0   c0.1-0.1,0.3-0.2,0.6-0.4c0.3-0.2,0.7-0.3,1.3-0.3h4h0.8V16v20h8.9V16v-0.8h0.8h1.2c0.9,0,1.7,0.1,2.4,0.4c0.7,0.3,1.2,0.6,1.5,1   c0.6,0.6,1,1.4,1.1,2.3c0.1,0.8,0.2,1.5,0.2,2.2v14.8h8.9V19c0-1.2-0.2-2.5-0.7-3.8C155.9,13.9,155.3,12.8,154.4,12"/>
	<path class="st7" d="M193,1.2c-0.4-0.3-0.8-0.5-1.3-0.6c-0.6-0.1-1.2-0.2-1.7-0.2h-28v7.7h15.5c0.4,0,0.8,0.1,1.1,0.3   c0.5,0.3,0.6,0.7,0.6,1c0,0.3-0.1,0.7-0.5,1c-0.1,0.1-0.2,0.2-0.3,0.3l-14.7,14c-0.3,0.3-0.7,0.7-1.1,1.1c-0.4,0.4-0.7,1-1.1,1.6   c-0.3,0.6-0.6,1.2-0.9,2c-0.2,0.7-0.3,1.5-0.3,2.4c0,1.1,0.2,1.9,0.6,2.4c0.4,0.6,0.9,0.9,1.5,1.2c0.6,0.3,1.3,0.4,2,0.5   c0.7,0.1,1.4,0.1,1.9,0.1h27.7v-7.7h-17.6c-0.7,0-1.1-0.3-1.2-0.6c-0.1-0.2-0.2-0.5-0.2-0.7c0-0.6,0.3-0.9,0.5-1   c0,0,0.1-0.1,0.3-0.2l15.7-15c0.4-0.4,0.8-0.8,1.2-1.2c0.3-0.4,0.6-0.8,0.9-1.2c0.3-0.5,0.5-1,0.6-1.6c0.2-0.6,0.2-1.3,0.2-2.2   c0-0.9-0.1-1.7-0.4-2.2C193.7,1.9,193.3,1.5,193,1.2"/>
	<rect x="197.3" y="0.2" class="st7" width="9.2" height="5"/>
	<rect x="197.3" y="9.2" class="st7" width="9.2" height="26.9"/>
	<rect x="211" y="0.4" class="st7" width="8.9" height="35.5"/>
	<rect x="224.6" y="0.4" class="st7" width="8.9" height="35.5"/>
	<path class="st7" d="M265.6,15.2c-0.2-0.6-0.4-1.3-0.8-1.9c-0.3-0.6-0.7-1.2-1.2-1.7c-0.5-0.5-1.3-1-2.4-1.5c-1-0.5-2.4-0.7-4-0.7   h-17.8v5.5h13.3c0.6,0,1.2,0.1,1.8,0.2c0.8,0.1,1.5,0.6,2,1.2c0.3,0.4,0.5,0.8,0.6,1.3c0.1,0.4,0.1,0.7,0.1,1V19v0.8h-0.8h-12.3   c-0.8,0-1.6,0.1-2.4,0.2c-0.7,0.1-1.4,0.4-2.1,0.9c-0.5,0.4-0.9,0.8-1.1,1.3c-0.3,0.5-0.5,1-0.6,1.6c-0.1,0.6-0.2,1.2-0.3,1.8   c-0.1,0.6-0.1,1.2-0.1,1.8c0,0.6,0,1.2,0.1,1.9c0,0.7,0.1,1.4,0.3,2c0.1,0.7,0.3,1.3,0.6,1.9c0.3,0.6,0.6,1.1,1.1,1.5   c0.6,0.6,1.3,1,2.1,1.1c0.9,0.1,1.7,0.2,2.6,0.2h16.5c0.8,0,1.6-0.1,2.4-0.2c0.7-0.1,1.3-0.5,1.9-1c0.5-0.6,0.9-1.2,1-1.8   c0.1-0.7,0.2-1.5,0.2-2.2V19c0-0.5,0-1.2-0.1-1.8C265.9,16.5,265.8,15.9,265.6,15.2 M257.2,25.7v1.7c0,0.3,0,0.6-0.1,0.9   c-0.1,0.4-0.4,0.8-0.8,1.1c-0.2,0.2-0.6,0.3-1,0.4c-0.3,0.1-0.7,0.1-1,0.1h-5.4c-0.3,0-0.6,0-1-0.1c-0.4-0.1-0.7-0.3-1-0.6   c-0.3-0.3-0.5-0.6-0.5-0.9c-0.1-0.3-0.1-0.5-0.1-0.8c0-0.3,0-0.6,0.1-0.9c0.1-0.4,0.3-0.7,0.5-1l0,0l0,0c0.3-0.3,0.7-0.5,1.2-0.6   c0.3-0.1,0.6-0.1,0.8-0.1h7.4h0.8V25.7z"/>
	<path class="st7" d="M269.2,3.1c0-0.1,0-0.2,0-0.3c0-0.1,0.1-0.2,0.1-0.2c0.1-0.1,0.1-0.1,0.2-0.1c0.1,0,0.2,0,0.2,0h1.9   c0.1,0,0.1,0,0.2,0c0.1,0,0.2,0,0.2,0c0.1,0,0.2,0.1,0.2,0.1s0.1,0.1,0.2,0.2c0.1,0.1,0.1,0.2,0.1,0.4c0,0.1,0,0.3,0,0.4   c0,0,0,0.1,0,0.2c0,0.1,0,0.1,0,0.2c0,0.1,0,0.2,0,0.2c0,0.1,0,0.2-0.1,0.2c-0.1,0.2-0.2,0.3-0.3,0.3c-0.1,0.1-0.2,0.1-0.4,0.1   h-0.2v0l1,1.1h-1.4l-0.7-0.9c-0.1-0.1-0.1-0.2-0.2-0.2c-0.1-0.1-0.1-0.2-0.1-0.2V4.5c0-0.1,0-0.2,0.1-0.3c0.1-0.1,0.2-0.1,0.4-0.1   h0.2c0.1,0,0.1,0,0.2,0c0.1,0,0.1,0,0.2-0.1c0,0,0-0.1,0.1-0.1c0-0.1,0-0.1,0-0.2c0-0.1,0-0.2,0-0.2c0,0,0-0.1-0.1-0.1   c0,0-0.1-0.1-0.2-0.1c-0.1,0-0.1,0-0.2,0h-0.6c0,0-0.1,0-0.1,0c0,0-0.1,0-0.1,0c0,0-0.1,0.1-0.1,0.1c0,0,0,0.1,0,0.1V6h-1.1V3.1z"/>
	<path class="st7" d="M271,8.2c-2.2,0-4-1.8-4-4c0-2.2,1.8-4,4-4c2.2,0,4,1.8,4,4C275,6.4,273.2,8.2,271,8.2 M271,0.9   c-1.8,0-3.3,1.5-3.3,3.3c0,1.8,1.5,3.3,3.3,3.3c1.8,0,3.3-1.5,3.3-3.3C274.3,2.4,272.8,0.9,271,0.9"/>
</g>
</svg>