<?xml version="1.0" encoding="utf-8"?>
<!-- Generator: Adobe Illustrator 25.2.3, SVG Export Plug-In . SVG Version: 6.00 Build 0)  -->
<svg version="1.1" id="Layer_1" xmlns="http://www.w3.org/2000/svg" xmlns:xlink="http://www.w3.org/1999/xlink" x="0px" y="0px"
	 viewBox="0 0 300 300" style="enable-background:new 0 0 300 300;" xml:space="preserve">
<style type="text/css">
	.st0{fill-rule:evenodd;clip-rule:evenodd;fill:#F8B231;}
	.st1{fill-rule:evenodd;clip-rule:evenodd;fill:#F8951D;}
	
		.st2{fill-rule:evenodd;clip-rule:evenodd;fill:#FFFFFF;stroke:#FFFFFF;stroke-width:0.7126;stroke-linejoin:round;stroke-miterlimit:22.9256;}
</style>
<path class="st0" d="M149.64,1c82.32,0,149.05,66.73,149.05,149.05c0,82.32-66.73,149.05-149.05,149.05
	c-82.32,0-149.05-66.73-149.05-149.05C0.59,67.73,67.32,1,149.64,1L149.64,1z"/>
<path class="st1" d="M145,299.02L32.1,186.12l70.75-90.19l157.13-4.23l37.21,37.21c0.98,6.91,1.5,13.96,1.5,21.14
	c0,82.32-66.73,149.05-149.05,149.05C148.09,299.1,146.54,299.07,145,299.02L145,299.02z"/>
<path class="st2" d="M261.56,187.72h-1.13h-9.26c-0.55,12.98-11.25,23.33-24.36,23.33s-23.81-10.35-24.36-23.33H96.83
	c-0.55,12.98-11.25,23.33-24.36,23.33s-23.81-10.35-24.36-23.33h-9.26h-1.13v-0.08c-4.12-0.56-7.33-4.11-7.33-8.38l0,0
	c0-4.27,3.21-7.83,7.33-8.38V145.5c0-9.03,7.39-16.41,16.41-16.41h11.84l35.46-40.03h149.89c5.63,0,10.23,4.6,10.23,10.23v71.6
	c4.12,0.56,7.33,4.11,7.33,8.38l0,0c0,4.27-3.2,7.82-7.33,8.38V187.72L261.56,187.72z M129.07,100.99h-22.26l-24.89,28.1h47.15
	V100.99L129.07,100.99z M72.47,172.99c7.55,0,13.67,6.12,13.67,13.67c0,7.55-6.12,13.67-13.67,13.67c-7.55,0-13.67-6.12-13.67-13.67
	C58.8,179.11,64.92,172.99,72.47,172.99L72.47,172.99z M226.81,172.99c7.55,0,13.67,6.12,13.67,13.67c0,7.55-6.12,13.67-13.67,13.67
	c-7.55,0-13.67-6.12-13.67-13.67C213.14,179.11,219.26,172.99,226.81,172.99L226.81,172.99z M206.47,104.4
	c21.95,0,39.75,6.94,39.75,15.5c0,8.56-17.8,15.5-39.75,15.5c-21.95,0-39.74-6.94-39.74-15.5
	C166.72,111.34,184.52,104.4,206.47,104.4L206.47,104.4z"/>
</svg>
